%TF.GenerationSoftware,KiCad,Pcbnew,5.1.9-73d0e3b20d~88~ubuntu20.04.1*%
%TF.CreationDate,2021-04-20T00:17:22+02:00*%
%TF.ProjectId,hardware,68617264-7761-4726-952e-6b696361645f,rev?*%
%TF.SameCoordinates,Original*%
%TF.FileFunction,Paste,Top*%
%TF.FilePolarity,Positive*%
%FSLAX46Y46*%
G04 Gerber Fmt 4.6, Leading zero omitted, Abs format (unit mm)*
G04 Created by KiCad (PCBNEW 5.1.9-73d0e3b20d~88~ubuntu20.04.1) date 2021-04-20 00:17:22*
%MOMM*%
%LPD*%
G01*
G04 APERTURE LIST*
G04 APERTURE END LIST*
%TO.C,C1*%
G36*
G01*
X111412000Y-141187500D02*
X112362000Y-141187500D01*
G75*
G02*
X112612000Y-141437500I0J-250000D01*
G01*
X112612000Y-142112500D01*
G75*
G02*
X112362000Y-142362500I-250000J0D01*
G01*
X111412000Y-142362500D01*
G75*
G02*
X111162000Y-142112500I0J250000D01*
G01*
X111162000Y-141437500D01*
G75*
G02*
X111412000Y-141187500I250000J0D01*
G01*
G37*
G36*
G01*
X111412000Y-139112500D02*
X112362000Y-139112500D01*
G75*
G02*
X112612000Y-139362500I0J-250000D01*
G01*
X112612000Y-140037500D01*
G75*
G02*
X112362000Y-140287500I-250000J0D01*
G01*
X111412000Y-140287500D01*
G75*
G02*
X111162000Y-140037500I0J250000D01*
G01*
X111162000Y-139362500D01*
G75*
G02*
X111412000Y-139112500I250000J0D01*
G01*
G37*
%TD*%
%TO.C,C2*%
G36*
G01*
X112362000Y-137536500D02*
X111412000Y-137536500D01*
G75*
G02*
X111162000Y-137286500I0J250000D01*
G01*
X111162000Y-136611500D01*
G75*
G02*
X111412000Y-136361500I250000J0D01*
G01*
X112362000Y-136361500D01*
G75*
G02*
X112612000Y-136611500I0J-250000D01*
G01*
X112612000Y-137286500D01*
G75*
G02*
X112362000Y-137536500I-250000J0D01*
G01*
G37*
G36*
G01*
X112362000Y-135461500D02*
X111412000Y-135461500D01*
G75*
G02*
X111162000Y-135211500I0J250000D01*
G01*
X111162000Y-134536500D01*
G75*
G02*
X111412000Y-134286500I250000J0D01*
G01*
X112362000Y-134286500D01*
G75*
G02*
X112612000Y-134536500I0J-250000D01*
G01*
X112612000Y-135211500D01*
G75*
G02*
X112362000Y-135461500I-250000J0D01*
G01*
G37*
%TD*%
%TO.C,C3*%
G36*
G01*
X106087500Y-130025000D02*
X106087500Y-130975000D01*
G75*
G02*
X105837500Y-131225000I-250000J0D01*
G01*
X105162500Y-131225000D01*
G75*
G02*
X104912500Y-130975000I0J250000D01*
G01*
X104912500Y-130025000D01*
G75*
G02*
X105162500Y-129775000I250000J0D01*
G01*
X105837500Y-129775000D01*
G75*
G02*
X106087500Y-130025000I0J-250000D01*
G01*
G37*
G36*
G01*
X104012500Y-130025000D02*
X104012500Y-130975000D01*
G75*
G02*
X103762500Y-131225000I-250000J0D01*
G01*
X103087500Y-131225000D01*
G75*
G02*
X102837500Y-130975000I0J250000D01*
G01*
X102837500Y-130025000D01*
G75*
G02*
X103087500Y-129775000I250000J0D01*
G01*
X103762500Y-129775000D01*
G75*
G02*
X104012500Y-130025000I0J-250000D01*
G01*
G37*
%TD*%
%TO.C,R1*%
G36*
G01*
X87826001Y-127330000D02*
X86925999Y-127330000D01*
G75*
G02*
X86676000Y-127080001I0J249999D01*
G01*
X86676000Y-126379999D01*
G75*
G02*
X86925999Y-126130000I249999J0D01*
G01*
X87826001Y-126130000D01*
G75*
G02*
X88076000Y-126379999I0J-249999D01*
G01*
X88076000Y-127080001D01*
G75*
G02*
X87826001Y-127330000I-249999J0D01*
G01*
G37*
G36*
G01*
X87826001Y-125330000D02*
X86925999Y-125330000D01*
G75*
G02*
X86676000Y-125080001I0J249999D01*
G01*
X86676000Y-124379999D01*
G75*
G02*
X86925999Y-124130000I249999J0D01*
G01*
X87826001Y-124130000D01*
G75*
G02*
X88076000Y-124379999I0J-249999D01*
G01*
X88076000Y-125080001D01*
G75*
G02*
X87826001Y-125330000I-249999J0D01*
G01*
G37*
%TD*%
%TO.C,U1*%
G36*
G01*
X108943000Y-138660000D02*
X109243000Y-138660000D01*
G75*
G02*
X109393000Y-138810000I0J-150000D01*
G01*
X109393000Y-140460000D01*
G75*
G02*
X109243000Y-140610000I-150000J0D01*
G01*
X108943000Y-140610000D01*
G75*
G02*
X108793000Y-140460000I0J150000D01*
G01*
X108793000Y-138810000D01*
G75*
G02*
X108943000Y-138660000I150000J0D01*
G01*
G37*
G36*
G01*
X107673000Y-138660000D02*
X107973000Y-138660000D01*
G75*
G02*
X108123000Y-138810000I0J-150000D01*
G01*
X108123000Y-140460000D01*
G75*
G02*
X107973000Y-140610000I-150000J0D01*
G01*
X107673000Y-140610000D01*
G75*
G02*
X107523000Y-140460000I0J150000D01*
G01*
X107523000Y-138810000D01*
G75*
G02*
X107673000Y-138660000I150000J0D01*
G01*
G37*
G36*
G01*
X106403000Y-138660000D02*
X106703000Y-138660000D01*
G75*
G02*
X106853000Y-138810000I0J-150000D01*
G01*
X106853000Y-140460000D01*
G75*
G02*
X106703000Y-140610000I-150000J0D01*
G01*
X106403000Y-140610000D01*
G75*
G02*
X106253000Y-140460000I0J150000D01*
G01*
X106253000Y-138810000D01*
G75*
G02*
X106403000Y-138660000I150000J0D01*
G01*
G37*
G36*
G01*
X105133000Y-138660000D02*
X105433000Y-138660000D01*
G75*
G02*
X105583000Y-138810000I0J-150000D01*
G01*
X105583000Y-140460000D01*
G75*
G02*
X105433000Y-140610000I-150000J0D01*
G01*
X105133000Y-140610000D01*
G75*
G02*
X104983000Y-140460000I0J150000D01*
G01*
X104983000Y-138810000D01*
G75*
G02*
X105133000Y-138660000I150000J0D01*
G01*
G37*
G36*
G01*
X105133000Y-133710000D02*
X105433000Y-133710000D01*
G75*
G02*
X105583000Y-133860000I0J-150000D01*
G01*
X105583000Y-135510000D01*
G75*
G02*
X105433000Y-135660000I-150000J0D01*
G01*
X105133000Y-135660000D01*
G75*
G02*
X104983000Y-135510000I0J150000D01*
G01*
X104983000Y-133860000D01*
G75*
G02*
X105133000Y-133710000I150000J0D01*
G01*
G37*
G36*
G01*
X106403000Y-133710000D02*
X106703000Y-133710000D01*
G75*
G02*
X106853000Y-133860000I0J-150000D01*
G01*
X106853000Y-135510000D01*
G75*
G02*
X106703000Y-135660000I-150000J0D01*
G01*
X106403000Y-135660000D01*
G75*
G02*
X106253000Y-135510000I0J150000D01*
G01*
X106253000Y-133860000D01*
G75*
G02*
X106403000Y-133710000I150000J0D01*
G01*
G37*
G36*
G01*
X107673000Y-133710000D02*
X107973000Y-133710000D01*
G75*
G02*
X108123000Y-133860000I0J-150000D01*
G01*
X108123000Y-135510000D01*
G75*
G02*
X107973000Y-135660000I-150000J0D01*
G01*
X107673000Y-135660000D01*
G75*
G02*
X107523000Y-135510000I0J150000D01*
G01*
X107523000Y-133860000D01*
G75*
G02*
X107673000Y-133710000I150000J0D01*
G01*
G37*
G36*
G01*
X108943000Y-133710000D02*
X109243000Y-133710000D01*
G75*
G02*
X109393000Y-133860000I0J-150000D01*
G01*
X109393000Y-135510000D01*
G75*
G02*
X109243000Y-135660000I-150000J0D01*
G01*
X108943000Y-135660000D01*
G75*
G02*
X108793000Y-135510000I0J150000D01*
G01*
X108793000Y-133860000D01*
G75*
G02*
X108943000Y-133710000I150000J0D01*
G01*
G37*
%TD*%
M02*
