M48
; DRILL file {KiCad 5.1.9-73d0e3b20d~88~ubuntu20.04.1} date Tue Apr 20 00:17:15 2021
; FORMAT={-:-/ absolute / inch / decimal}
; #@! TF.CreationDate,2021-04-20T00:17:15+02:00
; #@! TF.GenerationSoftware,Kicad,Pcbnew,5.1.9-73d0e3b20d~88~ubuntu20.04.1
; #@! TF.FileFunction,Plated,1,2,PTH
FMAT,2
INCH
T1C0.0157
T2C0.0394
T3C0.0512
%
G90
G05
T1
X3.3071Y-5.0984
X3.5236Y-5.0984
X3.9961Y-5.0591
X4.0551Y-5.2953
X4.145Y-5.6
X4.195Y-5.6
X4.2126Y-4.9409
X4.2443Y-5.6007
X4.295Y-5.6
X4.4Y-5.15
X4.405Y-5.75
T2
X3.4744Y-5.3016
X3.4744Y-5.4
X3.4744Y-5.4984
X3.65Y-4.9
X3.65Y-5.0
X3.75Y-4.9
X3.75Y-5.0
X3.85Y-4.9
X3.85Y-5.0
T3
X3.26Y-6.0
X3.4569Y-6.0
X3.6537Y-6.0
X3.8506Y-6.0
X4.0474Y-6.0
X4.2443Y-6.0
T0
M30
