%TF.GenerationSoftware,KiCad,Pcbnew,5.1.9-73d0e3b20d~88~ubuntu20.04.1*%
%TF.CreationDate,2021-04-09T22:55:46+02:00*%
%TF.ProjectId,hardware,68617264-7761-4726-952e-6b696361645f,rev?*%
%TF.SameCoordinates,Original*%
%TF.FileFunction,Copper,L1,Top*%
%TF.FilePolarity,Positive*%
%FSLAX46Y46*%
G04 Gerber Fmt 4.6, Leading zero omitted, Abs format (unit mm)*
G04 Created by KiCad (PCBNEW 5.1.9-73d0e3b20d~88~ubuntu20.04.1) date 2021-04-09 22:55:46*
%MOMM*%
%LPD*%
G01*
G04 APERTURE LIST*
%TA.AperFunction,ComponentPad*%
%ADD10R,2.600000X2.600000*%
%TD*%
%TA.AperFunction,ComponentPad*%
%ADD11C,2.600000*%
%TD*%
%TA.AperFunction,ComponentPad*%
%ADD12R,1.700000X1.700000*%
%TD*%
%TA.AperFunction,ComponentPad*%
%ADD13O,1.700000X1.700000*%
%TD*%
%TA.AperFunction,WasherPad*%
%ADD14C,4.000000*%
%TD*%
%TA.AperFunction,ComponentPad*%
%ADD15C,1.800000*%
%TD*%
%TA.AperFunction,ViaPad*%
%ADD16C,0.800000*%
%TD*%
%TA.AperFunction,ViaPad*%
%ADD17C,1.000000*%
%TD*%
%TA.AperFunction,Conductor*%
%ADD18C,0.400000*%
%TD*%
%TA.AperFunction,Conductor*%
%ADD19C,0.250000*%
%TD*%
%TA.AperFunction,Conductor*%
%ADD20C,0.254000*%
%TD*%
%TA.AperFunction,Conductor*%
%ADD21C,0.100000*%
%TD*%
G04 APERTURE END LIST*
%TO.P,C1,2*%
%TO.N,GND*%
%TA.AperFunction,SMDPad,CuDef*%
G36*
G01*
X111412000Y-141187500D02*
X112362000Y-141187500D01*
G75*
G02*
X112612000Y-141437500I0J-250000D01*
G01*
X112612000Y-142112500D01*
G75*
G02*
X112362000Y-142362500I-250000J0D01*
G01*
X111412000Y-142362500D01*
G75*
G02*
X111162000Y-142112500I0J250000D01*
G01*
X111162000Y-141437500D01*
G75*
G02*
X111412000Y-141187500I250000J0D01*
G01*
G37*
%TD.AperFunction*%
%TO.P,C1,1*%
%TO.N,+5V*%
%TA.AperFunction,SMDPad,CuDef*%
G36*
G01*
X111412000Y-139112500D02*
X112362000Y-139112500D01*
G75*
G02*
X112612000Y-139362500I0J-250000D01*
G01*
X112612000Y-140037500D01*
G75*
G02*
X112362000Y-140287500I-250000J0D01*
G01*
X111412000Y-140287500D01*
G75*
G02*
X111162000Y-140037500I0J250000D01*
G01*
X111162000Y-139362500D01*
G75*
G02*
X111412000Y-139112500I250000J0D01*
G01*
G37*
%TD.AperFunction*%
%TD*%
%TO.P,C2,1*%
%TO.N,+5V*%
%TA.AperFunction,SMDPad,CuDef*%
G36*
G01*
X112362000Y-137536500D02*
X111412000Y-137536500D01*
G75*
G02*
X111162000Y-137286500I0J250000D01*
G01*
X111162000Y-136611500D01*
G75*
G02*
X111412000Y-136361500I250000J0D01*
G01*
X112362000Y-136361500D01*
G75*
G02*
X112612000Y-136611500I0J-250000D01*
G01*
X112612000Y-137286500D01*
G75*
G02*
X112362000Y-137536500I-250000J0D01*
G01*
G37*
%TD.AperFunction*%
%TO.P,C2,2*%
%TO.N,GND*%
%TA.AperFunction,SMDPad,CuDef*%
G36*
G01*
X112362000Y-135461500D02*
X111412000Y-135461500D01*
G75*
G02*
X111162000Y-135211500I0J250000D01*
G01*
X111162000Y-134536500D01*
G75*
G02*
X111412000Y-134286500I250000J0D01*
G01*
X112362000Y-134286500D01*
G75*
G02*
X112612000Y-134536500I0J-250000D01*
G01*
X112612000Y-135211500D01*
G75*
G02*
X112362000Y-135461500I-250000J0D01*
G01*
G37*
%TD.AperFunction*%
%TD*%
%TO.P,C3,1*%
%TO.N,POT*%
%TA.AperFunction,SMDPad,CuDef*%
G36*
G01*
X84025000Y-136837500D02*
X84975000Y-136837500D01*
G75*
G02*
X85225000Y-137087500I0J-250000D01*
G01*
X85225000Y-137762500D01*
G75*
G02*
X84975000Y-138012500I-250000J0D01*
G01*
X84025000Y-138012500D01*
G75*
G02*
X83775000Y-137762500I0J250000D01*
G01*
X83775000Y-137087500D01*
G75*
G02*
X84025000Y-136837500I250000J0D01*
G01*
G37*
%TD.AperFunction*%
%TO.P,C3,2*%
%TO.N,GND*%
%TA.AperFunction,SMDPad,CuDef*%
G36*
G01*
X84025000Y-138912500D02*
X84975000Y-138912500D01*
G75*
G02*
X85225000Y-139162500I0J-250000D01*
G01*
X85225000Y-139837500D01*
G75*
G02*
X84975000Y-140087500I-250000J0D01*
G01*
X84025000Y-140087500D01*
G75*
G02*
X83775000Y-139837500I0J250000D01*
G01*
X83775000Y-139162500D01*
G75*
G02*
X84025000Y-138912500I250000J0D01*
G01*
G37*
%TD.AperFunction*%
%TD*%
D10*
%TO.P,J1,1*%
%TO.N,+5V*%
X82804000Y-152400000D03*
D11*
%TO.P,J1,2*%
%TO.N,GND*%
X87804000Y-152400000D03*
%TO.P,J1,3*%
%TO.N,PWM*%
X92804000Y-152400000D03*
%TO.P,J1,4*%
%TO.N,PB0*%
X97804000Y-152400000D03*
%TO.P,J1,5*%
%TO.N,PB1*%
X102804000Y-152400000D03*
%TO.P,J1,6*%
%TO.N,PB2*%
X107804000Y-152400000D03*
%TD*%
D12*
%TO.P,J2,1*%
%TO.N,PB1*%
X97790000Y-124460000D03*
D13*
%TO.P,J2,2*%
%TO.N,+5V*%
X97790000Y-127000000D03*
%TO.P,J2,3*%
%TO.N,PB2*%
X95250000Y-124460000D03*
%TO.P,J2,4*%
%TO.N,PB0*%
X95250000Y-127000000D03*
%TO.P,J2,5*%
%TO.N,nRST*%
X92710000Y-124460000D03*
%TO.P,J2,6*%
%TO.N,GND*%
X92710000Y-127000000D03*
%TD*%
%TO.P,R1,1*%
%TO.N,+5V*%
%TA.AperFunction,SMDPad,CuDef*%
G36*
G01*
X87826001Y-127330000D02*
X86925999Y-127330000D01*
G75*
G02*
X86676000Y-127080001I0J249999D01*
G01*
X86676000Y-126379999D01*
G75*
G02*
X86925999Y-126130000I249999J0D01*
G01*
X87826001Y-126130000D01*
G75*
G02*
X88076000Y-126379999I0J-249999D01*
G01*
X88076000Y-127080001D01*
G75*
G02*
X87826001Y-127330000I-249999J0D01*
G01*
G37*
%TD.AperFunction*%
%TO.P,R1,2*%
%TO.N,nRST*%
%TA.AperFunction,SMDPad,CuDef*%
G36*
G01*
X87826001Y-125330000D02*
X86925999Y-125330000D01*
G75*
G02*
X86676000Y-125080001I0J249999D01*
G01*
X86676000Y-124379999D01*
G75*
G02*
X86925999Y-124130000I249999J0D01*
G01*
X87826001Y-124130000D01*
G75*
G02*
X88076000Y-124379999I0J-249999D01*
G01*
X88076000Y-125080001D01*
G75*
G02*
X87826001Y-125330000I-249999J0D01*
G01*
G37*
%TD.AperFunction*%
%TD*%
%TO.P,U1,8*%
%TO.N,+5V*%
%TA.AperFunction,SMDPad,CuDef*%
G36*
G01*
X108943000Y-138660000D02*
X109243000Y-138660000D01*
G75*
G02*
X109393000Y-138810000I0J-150000D01*
G01*
X109393000Y-140460000D01*
G75*
G02*
X109243000Y-140610000I-150000J0D01*
G01*
X108943000Y-140610000D01*
G75*
G02*
X108793000Y-140460000I0J150000D01*
G01*
X108793000Y-138810000D01*
G75*
G02*
X108943000Y-138660000I150000J0D01*
G01*
G37*
%TD.AperFunction*%
%TO.P,U1,7*%
%TO.N,PB2*%
%TA.AperFunction,SMDPad,CuDef*%
G36*
G01*
X107673000Y-138660000D02*
X107973000Y-138660000D01*
G75*
G02*
X108123000Y-138810000I0J-150000D01*
G01*
X108123000Y-140460000D01*
G75*
G02*
X107973000Y-140610000I-150000J0D01*
G01*
X107673000Y-140610000D01*
G75*
G02*
X107523000Y-140460000I0J150000D01*
G01*
X107523000Y-138810000D01*
G75*
G02*
X107673000Y-138660000I150000J0D01*
G01*
G37*
%TD.AperFunction*%
%TO.P,U1,6*%
%TO.N,PB1*%
%TA.AperFunction,SMDPad,CuDef*%
G36*
G01*
X106403000Y-138660000D02*
X106703000Y-138660000D01*
G75*
G02*
X106853000Y-138810000I0J-150000D01*
G01*
X106853000Y-140460000D01*
G75*
G02*
X106703000Y-140610000I-150000J0D01*
G01*
X106403000Y-140610000D01*
G75*
G02*
X106253000Y-140460000I0J150000D01*
G01*
X106253000Y-138810000D01*
G75*
G02*
X106403000Y-138660000I150000J0D01*
G01*
G37*
%TD.AperFunction*%
%TO.P,U1,5*%
%TO.N,PB0*%
%TA.AperFunction,SMDPad,CuDef*%
G36*
G01*
X105133000Y-138660000D02*
X105433000Y-138660000D01*
G75*
G02*
X105583000Y-138810000I0J-150000D01*
G01*
X105583000Y-140460000D01*
G75*
G02*
X105433000Y-140610000I-150000J0D01*
G01*
X105133000Y-140610000D01*
G75*
G02*
X104983000Y-140460000I0J150000D01*
G01*
X104983000Y-138810000D01*
G75*
G02*
X105133000Y-138660000I150000J0D01*
G01*
G37*
%TD.AperFunction*%
%TO.P,U1,4*%
%TO.N,GND*%
%TA.AperFunction,SMDPad,CuDef*%
G36*
G01*
X105133000Y-133710000D02*
X105433000Y-133710000D01*
G75*
G02*
X105583000Y-133860000I0J-150000D01*
G01*
X105583000Y-135510000D01*
G75*
G02*
X105433000Y-135660000I-150000J0D01*
G01*
X105133000Y-135660000D01*
G75*
G02*
X104983000Y-135510000I0J150000D01*
G01*
X104983000Y-133860000D01*
G75*
G02*
X105133000Y-133710000I150000J0D01*
G01*
G37*
%TD.AperFunction*%
%TO.P,U1,3*%
%TO.N,PWM*%
%TA.AperFunction,SMDPad,CuDef*%
G36*
G01*
X106403000Y-133710000D02*
X106703000Y-133710000D01*
G75*
G02*
X106853000Y-133860000I0J-150000D01*
G01*
X106853000Y-135510000D01*
G75*
G02*
X106703000Y-135660000I-150000J0D01*
G01*
X106403000Y-135660000D01*
G75*
G02*
X106253000Y-135510000I0J150000D01*
G01*
X106253000Y-133860000D01*
G75*
G02*
X106403000Y-133710000I150000J0D01*
G01*
G37*
%TD.AperFunction*%
%TO.P,U1,2*%
%TO.N,POT*%
%TA.AperFunction,SMDPad,CuDef*%
G36*
G01*
X107673000Y-133710000D02*
X107973000Y-133710000D01*
G75*
G02*
X108123000Y-133860000I0J-150000D01*
G01*
X108123000Y-135510000D01*
G75*
G02*
X107973000Y-135660000I-150000J0D01*
G01*
X107673000Y-135660000D01*
G75*
G02*
X107523000Y-135510000I0J150000D01*
G01*
X107523000Y-133860000D01*
G75*
G02*
X107673000Y-133710000I150000J0D01*
G01*
G37*
%TD.AperFunction*%
%TO.P,U1,1*%
%TO.N,nRST*%
%TA.AperFunction,SMDPad,CuDef*%
G36*
G01*
X108943000Y-133710000D02*
X109243000Y-133710000D01*
G75*
G02*
X109393000Y-133860000I0J-150000D01*
G01*
X109393000Y-135510000D01*
G75*
G02*
X109243000Y-135660000I-150000J0D01*
G01*
X108943000Y-135660000D01*
G75*
G02*
X108793000Y-135510000I0J150000D01*
G01*
X108793000Y-133860000D01*
G75*
G02*
X108943000Y-133710000I150000J0D01*
G01*
G37*
%TD.AperFunction*%
%TD*%
D14*
%TO.P,RV1,*%
%TO.N,*%
X95250000Y-141560000D03*
X95250000Y-132760000D03*
D15*
%TO.P,RV1,1*%
%TO.N,GND*%
X88250000Y-139660000D03*
%TO.P,RV1,2*%
%TO.N,POT*%
X88250000Y-137160000D03*
%TO.P,RV1,3*%
%TO.N,+5V*%
X88250000Y-134660000D03*
%TD*%
D16*
%TO.N,GND*%
X111760000Y-130810000D03*
X111887000Y-146050000D03*
D17*
%TO.N,+5V*%
X109093000Y-142240000D03*
D16*
%TO.N,PB2*%
X107804000Y-142259000D03*
%TO.N,PB1*%
X106553000Y-142240000D03*
%TO.N,PB0*%
X105283000Y-142240000D03*
%TD*%
D18*
%TO.N,+5V*%
X109093000Y-142240000D02*
X109093000Y-139635000D01*
X111887000Y-136949000D02*
X111887000Y-139700000D01*
X109158000Y-139700000D02*
X109093000Y-139635000D01*
X111887000Y-139700000D02*
X109158000Y-139700000D01*
D19*
%TO.N,POT*%
X88250000Y-137160000D02*
X98552000Y-137160000D01*
X98552000Y-137160000D02*
X103505000Y-132207000D01*
X103505000Y-132207000D02*
X107188000Y-132207000D01*
X107823000Y-132842000D02*
X107823000Y-134685000D01*
X107188000Y-132207000D02*
X107823000Y-132842000D01*
X84582000Y-137160000D02*
X88250000Y-137160000D01*
%TO.N,PWM*%
X106553000Y-134685000D02*
X106553000Y-136271000D01*
X106553000Y-136271000D02*
X105664000Y-137160000D01*
X105664000Y-137160000D02*
X104648000Y-137160000D01*
X104648000Y-137160000D02*
X104140000Y-137668000D01*
X104140000Y-141064000D02*
X92804000Y-152400000D01*
X104140000Y-137668000D02*
X104140000Y-141064000D01*
%TO.N,PB2*%
X107804000Y-139654000D02*
X107823000Y-139635000D01*
X107804000Y-152400000D02*
X107804000Y-142259000D01*
X107804000Y-142259000D02*
X107804000Y-139654000D01*
%TO.N,PB1*%
X106553000Y-148651000D02*
X102804000Y-152400000D01*
X106553000Y-139635000D02*
X106553000Y-142240000D01*
X106553000Y-142240000D02*
X106553000Y-148651000D01*
%TO.N,PB0*%
X105283000Y-144921000D02*
X97804000Y-152400000D01*
X105283000Y-139635000D02*
X105283000Y-142240000D01*
X105283000Y-142240000D02*
X105283000Y-144921000D01*
%TO.N,nRST*%
X109093000Y-134685000D02*
X109093000Y-130683000D01*
X109093000Y-130683000D02*
X101600000Y-123190000D01*
X93980000Y-123190000D02*
X92710000Y-124460000D01*
X101600000Y-123190000D02*
X93980000Y-123190000D01*
X87646000Y-124460000D02*
X87376000Y-124730000D01*
X92710000Y-124460000D02*
X87646000Y-124460000D01*
D18*
%TO.N,+5V*%
X87376000Y-133786000D02*
X88250000Y-134660000D01*
X87376000Y-126730000D02*
X87376000Y-133786000D01*
%TD*%
D20*
%TO.N,GND*%
X118648126Y-120726714D02*
X119271572Y-120914943D01*
X119846579Y-121220681D01*
X120351247Y-121632279D01*
X120766362Y-122134067D01*
X121076105Y-122706924D01*
X121268682Y-123329039D01*
X121340001Y-124007594D01*
X121340000Y-153967721D01*
X121273286Y-154648126D01*
X121085057Y-155271570D01*
X120779323Y-155846573D01*
X120367721Y-156351248D01*
X119865933Y-156766362D01*
X119293077Y-157076104D01*
X118670961Y-157268682D01*
X117992417Y-157340000D01*
X73032279Y-157340000D01*
X72351874Y-157273286D01*
X71728430Y-157085057D01*
X71153427Y-156779323D01*
X70648752Y-156367721D01*
X70233638Y-155865933D01*
X69923896Y-155293077D01*
X69731318Y-154670961D01*
X69660000Y-153992417D01*
X69660000Y-153779872D01*
X70765000Y-153779872D01*
X70765000Y-154220128D01*
X70850890Y-154651925D01*
X71019369Y-155058669D01*
X71263962Y-155424729D01*
X71575271Y-155736038D01*
X71941331Y-155980631D01*
X72348075Y-156149110D01*
X72779872Y-156235000D01*
X73220128Y-156235000D01*
X73651925Y-156149110D01*
X74058669Y-155980631D01*
X74424729Y-155736038D01*
X74736038Y-155424729D01*
X74980631Y-155058669D01*
X75149110Y-154651925D01*
X75235000Y-154220128D01*
X75235000Y-153779872D01*
X75149110Y-153348075D01*
X74980631Y-152941331D01*
X74736038Y-152575271D01*
X74424729Y-152263962D01*
X74058669Y-152019369D01*
X73651925Y-151850890D01*
X73220128Y-151765000D01*
X72779872Y-151765000D01*
X72348075Y-151850890D01*
X71941331Y-152019369D01*
X71575271Y-152263962D01*
X71263962Y-152575271D01*
X71019369Y-152941331D01*
X70850890Y-153348075D01*
X70765000Y-153779872D01*
X69660000Y-153779872D01*
X69660000Y-151100000D01*
X80865928Y-151100000D01*
X80865928Y-153700000D01*
X80878188Y-153824482D01*
X80914498Y-153944180D01*
X80973463Y-154054494D01*
X81052815Y-154151185D01*
X81149506Y-154230537D01*
X81259820Y-154289502D01*
X81379518Y-154325812D01*
X81504000Y-154338072D01*
X84104000Y-154338072D01*
X84228482Y-154325812D01*
X84348180Y-154289502D01*
X84458494Y-154230537D01*
X84555185Y-154151185D01*
X84634537Y-154054494D01*
X84693502Y-153944180D01*
X84729812Y-153824482D01*
X84737224Y-153749224D01*
X86634381Y-153749224D01*
X86766317Y-154044312D01*
X87107045Y-154215159D01*
X87474557Y-154316250D01*
X87854729Y-154343701D01*
X88232951Y-154296457D01*
X88594690Y-154176333D01*
X88841683Y-154044312D01*
X88973619Y-153749224D01*
X87804000Y-152579605D01*
X86634381Y-153749224D01*
X84737224Y-153749224D01*
X84742072Y-153700000D01*
X84742072Y-152450729D01*
X85860299Y-152450729D01*
X85907543Y-152828951D01*
X86027667Y-153190690D01*
X86159688Y-153437683D01*
X86454776Y-153569619D01*
X87624395Y-152400000D01*
X87983605Y-152400000D01*
X89153224Y-153569619D01*
X89448312Y-153437683D01*
X89619159Y-153096955D01*
X89720250Y-152729443D01*
X89747701Y-152349271D01*
X89700457Y-151971049D01*
X89580333Y-151609310D01*
X89448312Y-151362317D01*
X89153224Y-151230381D01*
X87983605Y-152400000D01*
X87624395Y-152400000D01*
X86454776Y-151230381D01*
X86159688Y-151362317D01*
X85988841Y-151703045D01*
X85887750Y-152070557D01*
X85860299Y-152450729D01*
X84742072Y-152450729D01*
X84742072Y-151100000D01*
X84737225Y-151050776D01*
X86634381Y-151050776D01*
X87804000Y-152220395D01*
X88973619Y-151050776D01*
X88841683Y-150755688D01*
X88500955Y-150584841D01*
X88133443Y-150483750D01*
X87753271Y-150456299D01*
X87375049Y-150503543D01*
X87013310Y-150623667D01*
X86766317Y-150755688D01*
X86634381Y-151050776D01*
X84737225Y-151050776D01*
X84729812Y-150975518D01*
X84693502Y-150855820D01*
X84634537Y-150745506D01*
X84555185Y-150648815D01*
X84458494Y-150569463D01*
X84348180Y-150510498D01*
X84228482Y-150474188D01*
X84104000Y-150461928D01*
X81504000Y-150461928D01*
X81379518Y-150474188D01*
X81259820Y-150510498D01*
X81149506Y-150569463D01*
X81052815Y-150648815D01*
X80973463Y-150745506D01*
X80914498Y-150855820D01*
X80878188Y-150975518D01*
X80865928Y-151100000D01*
X69660000Y-151100000D01*
X69660000Y-141300475D01*
X92615000Y-141300475D01*
X92615000Y-141819525D01*
X92716261Y-142328601D01*
X92914893Y-142808141D01*
X93203262Y-143239715D01*
X93570285Y-143606738D01*
X94001859Y-143895107D01*
X94481399Y-144093739D01*
X94990475Y-144195000D01*
X95509525Y-144195000D01*
X96018601Y-144093739D01*
X96498141Y-143895107D01*
X96929715Y-143606738D01*
X97296738Y-143239715D01*
X97585107Y-142808141D01*
X97783739Y-142328601D01*
X97885000Y-141819525D01*
X97885000Y-141300475D01*
X97783739Y-140791399D01*
X97585107Y-140311859D01*
X97296738Y-139880285D01*
X96929715Y-139513262D01*
X96498141Y-139224893D01*
X96018601Y-139026261D01*
X95509525Y-138925000D01*
X94990475Y-138925000D01*
X94481399Y-139026261D01*
X94001859Y-139224893D01*
X93570285Y-139513262D01*
X93203262Y-139880285D01*
X92914893Y-140311859D01*
X92716261Y-140791399D01*
X92615000Y-141300475D01*
X69660000Y-141300475D01*
X69660000Y-140087500D01*
X83136928Y-140087500D01*
X83149188Y-140211982D01*
X83185498Y-140331680D01*
X83244463Y-140441994D01*
X83323815Y-140538685D01*
X83420506Y-140618037D01*
X83530820Y-140677002D01*
X83650518Y-140713312D01*
X83775000Y-140725572D01*
X84214250Y-140722500D01*
X84373000Y-140563750D01*
X84373000Y-139627000D01*
X84627000Y-139627000D01*
X84627000Y-140563750D01*
X84785750Y-140722500D01*
X85225000Y-140725572D01*
X85240149Y-140724080D01*
X87365525Y-140724080D01*
X87449208Y-140978261D01*
X87721775Y-141109158D01*
X88014642Y-141184365D01*
X88316553Y-141200991D01*
X88615907Y-141158397D01*
X88901199Y-141058222D01*
X89050792Y-140978261D01*
X89134475Y-140724080D01*
X88250000Y-139839605D01*
X87365525Y-140724080D01*
X85240149Y-140724080D01*
X85349482Y-140713312D01*
X85469180Y-140677002D01*
X85579494Y-140618037D01*
X85676185Y-140538685D01*
X85755537Y-140441994D01*
X85814502Y-140331680D01*
X85850812Y-140211982D01*
X85863072Y-140087500D01*
X85860000Y-139785750D01*
X85800803Y-139726553D01*
X86709009Y-139726553D01*
X86751603Y-140025907D01*
X86851778Y-140311199D01*
X86931739Y-140460792D01*
X87185920Y-140544475D01*
X88070395Y-139660000D01*
X88429605Y-139660000D01*
X89314080Y-140544475D01*
X89568261Y-140460792D01*
X89699158Y-140188225D01*
X89774365Y-139895358D01*
X89790991Y-139593447D01*
X89748397Y-139294093D01*
X89648222Y-139008801D01*
X89568261Y-138859208D01*
X89314080Y-138775525D01*
X88429605Y-139660000D01*
X88070395Y-139660000D01*
X87185920Y-138775525D01*
X86931739Y-138859208D01*
X86800842Y-139131775D01*
X86725635Y-139424642D01*
X86709009Y-139726553D01*
X85800803Y-139726553D01*
X85701250Y-139627000D01*
X84627000Y-139627000D01*
X84373000Y-139627000D01*
X83298750Y-139627000D01*
X83140000Y-139785750D01*
X83136928Y-140087500D01*
X69660000Y-140087500D01*
X69660000Y-137087500D01*
X83136928Y-137087500D01*
X83136928Y-137762500D01*
X83153992Y-137935754D01*
X83204528Y-138102350D01*
X83286595Y-138255886D01*
X83397038Y-138390462D01*
X83403594Y-138395842D01*
X83323815Y-138461315D01*
X83244463Y-138558006D01*
X83185498Y-138668320D01*
X83149188Y-138788018D01*
X83136928Y-138912500D01*
X83140000Y-139214250D01*
X83298750Y-139373000D01*
X84373000Y-139373000D01*
X84373000Y-139353000D01*
X84627000Y-139353000D01*
X84627000Y-139373000D01*
X85701250Y-139373000D01*
X85860000Y-139214250D01*
X85863072Y-138912500D01*
X85850812Y-138788018D01*
X85814502Y-138668320D01*
X85755537Y-138558006D01*
X85676185Y-138461315D01*
X85596406Y-138395842D01*
X85602962Y-138390462D01*
X85713405Y-138255886D01*
X85795472Y-138102350D01*
X85846008Y-137935754D01*
X85847560Y-137920000D01*
X86911687Y-137920000D01*
X87057688Y-138138505D01*
X87271495Y-138352312D01*
X87414310Y-138447738D01*
X87365525Y-138595920D01*
X88250000Y-139480395D01*
X89134475Y-138595920D01*
X89085690Y-138447738D01*
X89228505Y-138352312D01*
X89442312Y-138138505D01*
X89588313Y-137920000D01*
X98514678Y-137920000D01*
X98552000Y-137923676D01*
X98589322Y-137920000D01*
X98589333Y-137920000D01*
X98700986Y-137909003D01*
X98844247Y-137865546D01*
X98976276Y-137794974D01*
X99092001Y-137700001D01*
X99115804Y-137670997D01*
X101126801Y-135660000D01*
X104344928Y-135660000D01*
X104357188Y-135784482D01*
X104393498Y-135904180D01*
X104452463Y-136014494D01*
X104531815Y-136111185D01*
X104628506Y-136190537D01*
X104738820Y-136249502D01*
X104858518Y-136285812D01*
X104983000Y-136298072D01*
X104997250Y-136295000D01*
X105156000Y-136136250D01*
X105156000Y-134812000D01*
X104506750Y-134812000D01*
X104348000Y-134970750D01*
X104344928Y-135660000D01*
X101126801Y-135660000D01*
X103076801Y-133710000D01*
X104344928Y-133710000D01*
X104348000Y-134399250D01*
X104506750Y-134558000D01*
X105156000Y-134558000D01*
X105156000Y-133233750D01*
X104997250Y-133075000D01*
X104983000Y-133071928D01*
X104858518Y-133084188D01*
X104738820Y-133120498D01*
X104628506Y-133179463D01*
X104531815Y-133258815D01*
X104452463Y-133355506D01*
X104393498Y-133465820D01*
X104357188Y-133585518D01*
X104344928Y-133710000D01*
X103076801Y-133710000D01*
X103819802Y-132967000D01*
X106873199Y-132967000D01*
X107063000Y-133156802D01*
X107063000Y-133163141D01*
X107004582Y-133131916D01*
X106856745Y-133087071D01*
X106703000Y-133071928D01*
X106403000Y-133071928D01*
X106249255Y-133087071D01*
X106101418Y-133131916D01*
X105967064Y-133203730D01*
X105937494Y-133179463D01*
X105827180Y-133120498D01*
X105707482Y-133084188D01*
X105583000Y-133071928D01*
X105568750Y-133075000D01*
X105410000Y-133233750D01*
X105410000Y-134558000D01*
X105430000Y-134558000D01*
X105430000Y-134812000D01*
X105410000Y-134812000D01*
X105410000Y-136136250D01*
X105511474Y-136237724D01*
X105349199Y-136400000D01*
X104685322Y-136400000D01*
X104647999Y-136396324D01*
X104610676Y-136400000D01*
X104610667Y-136400000D01*
X104499014Y-136410997D01*
X104355753Y-136454454D01*
X104223724Y-136525026D01*
X104107999Y-136619999D01*
X104084200Y-136648998D01*
X103629002Y-137104197D01*
X103599999Y-137127999D01*
X103573737Y-137160000D01*
X103505026Y-137243724D01*
X103470142Y-137308987D01*
X103434454Y-137375754D01*
X103390997Y-137519015D01*
X103380000Y-137630668D01*
X103380000Y-137630678D01*
X103376324Y-137668000D01*
X103380000Y-137705323D01*
X103380001Y-140749197D01*
X93524986Y-150604213D01*
X93368419Y-150539361D01*
X92994581Y-150465000D01*
X92613419Y-150465000D01*
X92239581Y-150539361D01*
X91887434Y-150685225D01*
X91570509Y-150896987D01*
X91300987Y-151166509D01*
X91089225Y-151483434D01*
X90943361Y-151835581D01*
X90869000Y-152209419D01*
X90869000Y-152590581D01*
X90943361Y-152964419D01*
X91089225Y-153316566D01*
X91300987Y-153633491D01*
X91570509Y-153903013D01*
X91887434Y-154114775D01*
X92239581Y-154260639D01*
X92613419Y-154335000D01*
X92994581Y-154335000D01*
X93368419Y-154260639D01*
X93720566Y-154114775D01*
X94037491Y-153903013D01*
X94307013Y-153633491D01*
X94518775Y-153316566D01*
X94664639Y-152964419D01*
X94739000Y-152590581D01*
X94739000Y-152209419D01*
X94664639Y-151835581D01*
X94599787Y-151679014D01*
X104274632Y-142004170D01*
X104248000Y-142138061D01*
X104248000Y-142341939D01*
X104287774Y-142541898D01*
X104365795Y-142730256D01*
X104479063Y-142899774D01*
X104523000Y-142943711D01*
X104523001Y-144606197D01*
X98524986Y-150604213D01*
X98368419Y-150539361D01*
X97994581Y-150465000D01*
X97613419Y-150465000D01*
X97239581Y-150539361D01*
X96887434Y-150685225D01*
X96570509Y-150896987D01*
X96300987Y-151166509D01*
X96089225Y-151483434D01*
X95943361Y-151835581D01*
X95869000Y-152209419D01*
X95869000Y-152590581D01*
X95943361Y-152964419D01*
X96089225Y-153316566D01*
X96300987Y-153633491D01*
X96570509Y-153903013D01*
X96887434Y-154114775D01*
X97239581Y-154260639D01*
X97613419Y-154335000D01*
X97994581Y-154335000D01*
X98368419Y-154260639D01*
X98720566Y-154114775D01*
X99037491Y-153903013D01*
X99307013Y-153633491D01*
X99518775Y-153316566D01*
X99664639Y-152964419D01*
X99739000Y-152590581D01*
X99739000Y-152209419D01*
X99664639Y-151835581D01*
X99599787Y-151679014D01*
X105793001Y-145485801D01*
X105793001Y-148336197D01*
X103524986Y-150604213D01*
X103368419Y-150539361D01*
X102994581Y-150465000D01*
X102613419Y-150465000D01*
X102239581Y-150539361D01*
X101887434Y-150685225D01*
X101570509Y-150896987D01*
X101300987Y-151166509D01*
X101089225Y-151483434D01*
X100943361Y-151835581D01*
X100869000Y-152209419D01*
X100869000Y-152590581D01*
X100943361Y-152964419D01*
X101089225Y-153316566D01*
X101300987Y-153633491D01*
X101570509Y-153903013D01*
X101887434Y-154114775D01*
X102239581Y-154260639D01*
X102613419Y-154335000D01*
X102994581Y-154335000D01*
X103368419Y-154260639D01*
X103720566Y-154114775D01*
X104037491Y-153903013D01*
X104307013Y-153633491D01*
X104518775Y-153316566D01*
X104664639Y-152964419D01*
X104739000Y-152590581D01*
X104739000Y-152209419D01*
X104664639Y-151835581D01*
X104599787Y-151679014D01*
X107044000Y-149234802D01*
X107044000Y-150620373D01*
X106887434Y-150685225D01*
X106570509Y-150896987D01*
X106300987Y-151166509D01*
X106089225Y-151483434D01*
X105943361Y-151835581D01*
X105869000Y-152209419D01*
X105869000Y-152590581D01*
X105943361Y-152964419D01*
X106089225Y-153316566D01*
X106300987Y-153633491D01*
X106570509Y-153903013D01*
X106887434Y-154114775D01*
X107239581Y-154260639D01*
X107613419Y-154335000D01*
X107994581Y-154335000D01*
X108368419Y-154260639D01*
X108720566Y-154114775D01*
X109037491Y-153903013D01*
X109160632Y-153779872D01*
X115765000Y-153779872D01*
X115765000Y-154220128D01*
X115850890Y-154651925D01*
X116019369Y-155058669D01*
X116263962Y-155424729D01*
X116575271Y-155736038D01*
X116941331Y-155980631D01*
X117348075Y-156149110D01*
X117779872Y-156235000D01*
X118220128Y-156235000D01*
X118651925Y-156149110D01*
X119058669Y-155980631D01*
X119424729Y-155736038D01*
X119736038Y-155424729D01*
X119980631Y-155058669D01*
X120149110Y-154651925D01*
X120235000Y-154220128D01*
X120235000Y-153779872D01*
X120149110Y-153348075D01*
X119980631Y-152941331D01*
X119736038Y-152575271D01*
X119424729Y-152263962D01*
X119058669Y-152019369D01*
X118651925Y-151850890D01*
X118220128Y-151765000D01*
X117779872Y-151765000D01*
X117348075Y-151850890D01*
X116941331Y-152019369D01*
X116575271Y-152263962D01*
X116263962Y-152575271D01*
X116019369Y-152941331D01*
X115850890Y-153348075D01*
X115765000Y-153779872D01*
X109160632Y-153779872D01*
X109307013Y-153633491D01*
X109518775Y-153316566D01*
X109664639Y-152964419D01*
X109739000Y-152590581D01*
X109739000Y-152209419D01*
X109664639Y-151835581D01*
X109518775Y-151483434D01*
X109307013Y-151166509D01*
X109037491Y-150896987D01*
X108720566Y-150685225D01*
X108564000Y-150620373D01*
X108564000Y-143249396D01*
X108761933Y-143331383D01*
X108981212Y-143375000D01*
X109204788Y-143375000D01*
X109424067Y-143331383D01*
X109630624Y-143245824D01*
X109816520Y-143121612D01*
X109974612Y-142963520D01*
X110098824Y-142777624D01*
X110184383Y-142571067D01*
X110225869Y-142362500D01*
X110523928Y-142362500D01*
X110536188Y-142486982D01*
X110572498Y-142606680D01*
X110631463Y-142716994D01*
X110710815Y-142813685D01*
X110807506Y-142893037D01*
X110917820Y-142952002D01*
X111037518Y-142988312D01*
X111162000Y-143000572D01*
X111601250Y-142997500D01*
X111760000Y-142838750D01*
X111760000Y-141902000D01*
X112014000Y-141902000D01*
X112014000Y-142838750D01*
X112172750Y-142997500D01*
X112612000Y-143000572D01*
X112736482Y-142988312D01*
X112856180Y-142952002D01*
X112966494Y-142893037D01*
X113063185Y-142813685D01*
X113142537Y-142716994D01*
X113201502Y-142606680D01*
X113237812Y-142486982D01*
X113250072Y-142362500D01*
X113247000Y-142060750D01*
X113088250Y-141902000D01*
X112014000Y-141902000D01*
X111760000Y-141902000D01*
X110685750Y-141902000D01*
X110527000Y-142060750D01*
X110523928Y-142362500D01*
X110225869Y-142362500D01*
X110228000Y-142351788D01*
X110228000Y-142128212D01*
X110184383Y-141908933D01*
X110098824Y-141702376D01*
X109974612Y-141516480D01*
X109928000Y-141469868D01*
X109928000Y-140842186D01*
X109971084Y-140761582D01*
X110015929Y-140613745D01*
X110023685Y-140535000D01*
X110676971Y-140535000D01*
X110784038Y-140665462D01*
X110790594Y-140670842D01*
X110710815Y-140736315D01*
X110631463Y-140833006D01*
X110572498Y-140943320D01*
X110536188Y-141063018D01*
X110523928Y-141187500D01*
X110527000Y-141489250D01*
X110685750Y-141648000D01*
X111760000Y-141648000D01*
X111760000Y-141628000D01*
X112014000Y-141628000D01*
X112014000Y-141648000D01*
X113088250Y-141648000D01*
X113247000Y-141489250D01*
X113250072Y-141187500D01*
X113237812Y-141063018D01*
X113201502Y-140943320D01*
X113142537Y-140833006D01*
X113063185Y-140736315D01*
X112983406Y-140670842D01*
X112989962Y-140665462D01*
X113100405Y-140530886D01*
X113182472Y-140377350D01*
X113233008Y-140210754D01*
X113250072Y-140037500D01*
X113250072Y-139362500D01*
X113233008Y-139189246D01*
X113182472Y-139022650D01*
X113100405Y-138869114D01*
X112989962Y-138734538D01*
X112855386Y-138624095D01*
X112722000Y-138552798D01*
X112722000Y-138096202D01*
X112855386Y-138024905D01*
X112989962Y-137914462D01*
X113100405Y-137779886D01*
X113182472Y-137626350D01*
X113233008Y-137459754D01*
X113250072Y-137286500D01*
X113250072Y-136611500D01*
X113233008Y-136438246D01*
X113182472Y-136271650D01*
X113100405Y-136118114D01*
X112989962Y-135983538D01*
X112983406Y-135978158D01*
X113063185Y-135912685D01*
X113142537Y-135815994D01*
X113201502Y-135705680D01*
X113237812Y-135585982D01*
X113250072Y-135461500D01*
X113247000Y-135159750D01*
X113088250Y-135001000D01*
X112014000Y-135001000D01*
X112014000Y-135021000D01*
X111760000Y-135021000D01*
X111760000Y-135001000D01*
X110685750Y-135001000D01*
X110527000Y-135159750D01*
X110523928Y-135461500D01*
X110536188Y-135585982D01*
X110572498Y-135705680D01*
X110631463Y-135815994D01*
X110710815Y-135912685D01*
X110790594Y-135978158D01*
X110784038Y-135983538D01*
X110673595Y-136118114D01*
X110591528Y-136271650D01*
X110540992Y-136438246D01*
X110523928Y-136611500D01*
X110523928Y-137286500D01*
X110540992Y-137459754D01*
X110591528Y-137626350D01*
X110673595Y-137779886D01*
X110784038Y-137914462D01*
X110918614Y-138024905D01*
X111052000Y-138096202D01*
X111052001Y-138552798D01*
X110918614Y-138624095D01*
X110784038Y-138734538D01*
X110676971Y-138865000D01*
X110031072Y-138865000D01*
X110031072Y-138810000D01*
X110015929Y-138656255D01*
X109971084Y-138508418D01*
X109898258Y-138372171D01*
X109800251Y-138252749D01*
X109680829Y-138154742D01*
X109544582Y-138081916D01*
X109396745Y-138037071D01*
X109243000Y-138021928D01*
X108943000Y-138021928D01*
X108789255Y-138037071D01*
X108641418Y-138081916D01*
X108505171Y-138154742D01*
X108458000Y-138193454D01*
X108410829Y-138154742D01*
X108274582Y-138081916D01*
X108126745Y-138037071D01*
X107973000Y-138021928D01*
X107673000Y-138021928D01*
X107519255Y-138037071D01*
X107371418Y-138081916D01*
X107235171Y-138154742D01*
X107188000Y-138193454D01*
X107140829Y-138154742D01*
X107004582Y-138081916D01*
X106856745Y-138037071D01*
X106703000Y-138021928D01*
X106403000Y-138021928D01*
X106249255Y-138037071D01*
X106101418Y-138081916D01*
X105965171Y-138154742D01*
X105918000Y-138193454D01*
X105870829Y-138154742D01*
X105734582Y-138081916D01*
X105586745Y-138037071D01*
X105433000Y-138021928D01*
X105133000Y-138021928D01*
X104979255Y-138037071D01*
X104900000Y-138061112D01*
X104900000Y-137982801D01*
X104962802Y-137920000D01*
X105626678Y-137920000D01*
X105664000Y-137923676D01*
X105701322Y-137920000D01*
X105701333Y-137920000D01*
X105812986Y-137909003D01*
X105956247Y-137865546D01*
X106088276Y-137794974D01*
X106204001Y-137700001D01*
X106227803Y-137670998D01*
X107064003Y-136834799D01*
X107093001Y-136811001D01*
X107187974Y-136695276D01*
X107258546Y-136563247D01*
X107302003Y-136419986D01*
X107313000Y-136308333D01*
X107313000Y-136308323D01*
X107316676Y-136271000D01*
X107313000Y-136233677D01*
X107313000Y-136206859D01*
X107371418Y-136238084D01*
X107519255Y-136282929D01*
X107673000Y-136298072D01*
X107973000Y-136298072D01*
X108126745Y-136282929D01*
X108274582Y-136238084D01*
X108410829Y-136165258D01*
X108458000Y-136126546D01*
X108505171Y-136165258D01*
X108641418Y-136238084D01*
X108789255Y-136282929D01*
X108943000Y-136298072D01*
X109243000Y-136298072D01*
X109396745Y-136282929D01*
X109544582Y-136238084D01*
X109680829Y-136165258D01*
X109800251Y-136067251D01*
X109898258Y-135947829D01*
X109971084Y-135811582D01*
X110015929Y-135663745D01*
X110031072Y-135510000D01*
X110031072Y-134286500D01*
X110523928Y-134286500D01*
X110527000Y-134588250D01*
X110685750Y-134747000D01*
X111760000Y-134747000D01*
X111760000Y-133810250D01*
X112014000Y-133810250D01*
X112014000Y-134747000D01*
X113088250Y-134747000D01*
X113247000Y-134588250D01*
X113250072Y-134286500D01*
X113237812Y-134162018D01*
X113201502Y-134042320D01*
X113142537Y-133932006D01*
X113063185Y-133835315D01*
X112966494Y-133755963D01*
X112856180Y-133696998D01*
X112736482Y-133660688D01*
X112612000Y-133648428D01*
X112172750Y-133651500D01*
X112014000Y-133810250D01*
X111760000Y-133810250D01*
X111601250Y-133651500D01*
X111162000Y-133648428D01*
X111037518Y-133660688D01*
X110917820Y-133696998D01*
X110807506Y-133755963D01*
X110710815Y-133835315D01*
X110631463Y-133932006D01*
X110572498Y-134042320D01*
X110536188Y-134162018D01*
X110523928Y-134286500D01*
X110031072Y-134286500D01*
X110031072Y-133860000D01*
X110015929Y-133706255D01*
X109971084Y-133558418D01*
X109898258Y-133422171D01*
X109853000Y-133367024D01*
X109853000Y-130720322D01*
X109856676Y-130682999D01*
X109853000Y-130645676D01*
X109853000Y-130645667D01*
X109842003Y-130534014D01*
X109798546Y-130390753D01*
X109727974Y-130258724D01*
X109633001Y-130142999D01*
X109604003Y-130119201D01*
X103264674Y-123779872D01*
X115765000Y-123779872D01*
X115765000Y-124220128D01*
X115850890Y-124651925D01*
X116019369Y-125058669D01*
X116263962Y-125424729D01*
X116575271Y-125736038D01*
X116941331Y-125980631D01*
X117348075Y-126149110D01*
X117779872Y-126235000D01*
X118220128Y-126235000D01*
X118651925Y-126149110D01*
X119058669Y-125980631D01*
X119424729Y-125736038D01*
X119736038Y-125424729D01*
X119980631Y-125058669D01*
X120149110Y-124651925D01*
X120235000Y-124220128D01*
X120235000Y-123779872D01*
X120149110Y-123348075D01*
X119980631Y-122941331D01*
X119736038Y-122575271D01*
X119424729Y-122263962D01*
X119058669Y-122019369D01*
X118651925Y-121850890D01*
X118220128Y-121765000D01*
X117779872Y-121765000D01*
X117348075Y-121850890D01*
X116941331Y-122019369D01*
X116575271Y-122263962D01*
X116263962Y-122575271D01*
X116019369Y-122941331D01*
X115850890Y-123348075D01*
X115765000Y-123779872D01*
X103264674Y-123779872D01*
X102163804Y-122679003D01*
X102140001Y-122649999D01*
X102024276Y-122555026D01*
X101892247Y-122484454D01*
X101748986Y-122440997D01*
X101637333Y-122430000D01*
X101637322Y-122430000D01*
X101600000Y-122426324D01*
X101562678Y-122430000D01*
X94017322Y-122430000D01*
X93979999Y-122426324D01*
X93942676Y-122430000D01*
X93942667Y-122430000D01*
X93831014Y-122440997D01*
X93687753Y-122484454D01*
X93555724Y-122555026D01*
X93439999Y-122649999D01*
X93416201Y-122678997D01*
X93076408Y-123018790D01*
X92856260Y-122975000D01*
X92563740Y-122975000D01*
X92276842Y-123032068D01*
X92006589Y-123144010D01*
X91763368Y-123306525D01*
X91556525Y-123513368D01*
X91431822Y-123700000D01*
X88390554Y-123700000D01*
X88319387Y-123641595D01*
X88165851Y-123559528D01*
X87999255Y-123508992D01*
X87826001Y-123491928D01*
X86925999Y-123491928D01*
X86752745Y-123508992D01*
X86586149Y-123559528D01*
X86432613Y-123641595D01*
X86298038Y-123752038D01*
X86187595Y-123886613D01*
X86105528Y-124040149D01*
X86054992Y-124206745D01*
X86037928Y-124379999D01*
X86037928Y-125080001D01*
X86054992Y-125253255D01*
X86105528Y-125419851D01*
X86187595Y-125573387D01*
X86298038Y-125707962D01*
X86324891Y-125730000D01*
X86298038Y-125752038D01*
X86187595Y-125886613D01*
X86105528Y-126040149D01*
X86054992Y-126206745D01*
X86037928Y-126379999D01*
X86037928Y-127080001D01*
X86054992Y-127253255D01*
X86105528Y-127419851D01*
X86187595Y-127573387D01*
X86298038Y-127707962D01*
X86432613Y-127818405D01*
X86541000Y-127876339D01*
X86541001Y-133744972D01*
X86536960Y-133786000D01*
X86553082Y-133949688D01*
X86600828Y-134107086D01*
X86678364Y-134252145D01*
X86701907Y-134280832D01*
X86748947Y-134338151D01*
X86715000Y-134508816D01*
X86715000Y-134811184D01*
X86773989Y-135107743D01*
X86889701Y-135387095D01*
X87057688Y-135638505D01*
X87271495Y-135852312D01*
X87357831Y-135910000D01*
X87271495Y-135967688D01*
X87057688Y-136181495D01*
X86911687Y-136400000D01*
X85530414Y-136400000D01*
X85468386Y-136349095D01*
X85314850Y-136267028D01*
X85148254Y-136216492D01*
X84975000Y-136199428D01*
X84025000Y-136199428D01*
X83851746Y-136216492D01*
X83685150Y-136267028D01*
X83531614Y-136349095D01*
X83397038Y-136459538D01*
X83286595Y-136594114D01*
X83204528Y-136747650D01*
X83153992Y-136914246D01*
X83136928Y-137087500D01*
X69660000Y-137087500D01*
X69660000Y-124032278D01*
X69684748Y-123779872D01*
X70765000Y-123779872D01*
X70765000Y-124220128D01*
X70850890Y-124651925D01*
X71019369Y-125058669D01*
X71263962Y-125424729D01*
X71575271Y-125736038D01*
X71941331Y-125980631D01*
X72348075Y-126149110D01*
X72779872Y-126235000D01*
X73220128Y-126235000D01*
X73651925Y-126149110D01*
X74058669Y-125980631D01*
X74424729Y-125736038D01*
X74736038Y-125424729D01*
X74980631Y-125058669D01*
X75149110Y-124651925D01*
X75235000Y-124220128D01*
X75235000Y-123779872D01*
X75149110Y-123348075D01*
X74980631Y-122941331D01*
X74736038Y-122575271D01*
X74424729Y-122263962D01*
X74058669Y-122019369D01*
X73651925Y-121850890D01*
X73220128Y-121765000D01*
X72779872Y-121765000D01*
X72348075Y-121850890D01*
X71941331Y-122019369D01*
X71575271Y-122263962D01*
X71263962Y-122575271D01*
X71019369Y-122941331D01*
X70850890Y-123348075D01*
X70765000Y-123779872D01*
X69684748Y-123779872D01*
X69726714Y-123351874D01*
X69914943Y-122728428D01*
X70220681Y-122153421D01*
X70632279Y-121648753D01*
X71134067Y-121233638D01*
X71706924Y-120923895D01*
X72329039Y-120731318D01*
X73007584Y-120660000D01*
X117967722Y-120660000D01*
X118648126Y-120726714D01*
%TA.AperFunction,Conductor*%
D21*
G36*
X118648126Y-120726714D02*
G01*
X119271572Y-120914943D01*
X119846579Y-121220681D01*
X120351247Y-121632279D01*
X120766362Y-122134067D01*
X121076105Y-122706924D01*
X121268682Y-123329039D01*
X121340001Y-124007594D01*
X121340000Y-153967721D01*
X121273286Y-154648126D01*
X121085057Y-155271570D01*
X120779323Y-155846573D01*
X120367721Y-156351248D01*
X119865933Y-156766362D01*
X119293077Y-157076104D01*
X118670961Y-157268682D01*
X117992417Y-157340000D01*
X73032279Y-157340000D01*
X72351874Y-157273286D01*
X71728430Y-157085057D01*
X71153427Y-156779323D01*
X70648752Y-156367721D01*
X70233638Y-155865933D01*
X69923896Y-155293077D01*
X69731318Y-154670961D01*
X69660000Y-153992417D01*
X69660000Y-153779872D01*
X70765000Y-153779872D01*
X70765000Y-154220128D01*
X70850890Y-154651925D01*
X71019369Y-155058669D01*
X71263962Y-155424729D01*
X71575271Y-155736038D01*
X71941331Y-155980631D01*
X72348075Y-156149110D01*
X72779872Y-156235000D01*
X73220128Y-156235000D01*
X73651925Y-156149110D01*
X74058669Y-155980631D01*
X74424729Y-155736038D01*
X74736038Y-155424729D01*
X74980631Y-155058669D01*
X75149110Y-154651925D01*
X75235000Y-154220128D01*
X75235000Y-153779872D01*
X75149110Y-153348075D01*
X74980631Y-152941331D01*
X74736038Y-152575271D01*
X74424729Y-152263962D01*
X74058669Y-152019369D01*
X73651925Y-151850890D01*
X73220128Y-151765000D01*
X72779872Y-151765000D01*
X72348075Y-151850890D01*
X71941331Y-152019369D01*
X71575271Y-152263962D01*
X71263962Y-152575271D01*
X71019369Y-152941331D01*
X70850890Y-153348075D01*
X70765000Y-153779872D01*
X69660000Y-153779872D01*
X69660000Y-151100000D01*
X80865928Y-151100000D01*
X80865928Y-153700000D01*
X80878188Y-153824482D01*
X80914498Y-153944180D01*
X80973463Y-154054494D01*
X81052815Y-154151185D01*
X81149506Y-154230537D01*
X81259820Y-154289502D01*
X81379518Y-154325812D01*
X81504000Y-154338072D01*
X84104000Y-154338072D01*
X84228482Y-154325812D01*
X84348180Y-154289502D01*
X84458494Y-154230537D01*
X84555185Y-154151185D01*
X84634537Y-154054494D01*
X84693502Y-153944180D01*
X84729812Y-153824482D01*
X84737224Y-153749224D01*
X86634381Y-153749224D01*
X86766317Y-154044312D01*
X87107045Y-154215159D01*
X87474557Y-154316250D01*
X87854729Y-154343701D01*
X88232951Y-154296457D01*
X88594690Y-154176333D01*
X88841683Y-154044312D01*
X88973619Y-153749224D01*
X87804000Y-152579605D01*
X86634381Y-153749224D01*
X84737224Y-153749224D01*
X84742072Y-153700000D01*
X84742072Y-152450729D01*
X85860299Y-152450729D01*
X85907543Y-152828951D01*
X86027667Y-153190690D01*
X86159688Y-153437683D01*
X86454776Y-153569619D01*
X87624395Y-152400000D01*
X87983605Y-152400000D01*
X89153224Y-153569619D01*
X89448312Y-153437683D01*
X89619159Y-153096955D01*
X89720250Y-152729443D01*
X89747701Y-152349271D01*
X89700457Y-151971049D01*
X89580333Y-151609310D01*
X89448312Y-151362317D01*
X89153224Y-151230381D01*
X87983605Y-152400000D01*
X87624395Y-152400000D01*
X86454776Y-151230381D01*
X86159688Y-151362317D01*
X85988841Y-151703045D01*
X85887750Y-152070557D01*
X85860299Y-152450729D01*
X84742072Y-152450729D01*
X84742072Y-151100000D01*
X84737225Y-151050776D01*
X86634381Y-151050776D01*
X87804000Y-152220395D01*
X88973619Y-151050776D01*
X88841683Y-150755688D01*
X88500955Y-150584841D01*
X88133443Y-150483750D01*
X87753271Y-150456299D01*
X87375049Y-150503543D01*
X87013310Y-150623667D01*
X86766317Y-150755688D01*
X86634381Y-151050776D01*
X84737225Y-151050776D01*
X84729812Y-150975518D01*
X84693502Y-150855820D01*
X84634537Y-150745506D01*
X84555185Y-150648815D01*
X84458494Y-150569463D01*
X84348180Y-150510498D01*
X84228482Y-150474188D01*
X84104000Y-150461928D01*
X81504000Y-150461928D01*
X81379518Y-150474188D01*
X81259820Y-150510498D01*
X81149506Y-150569463D01*
X81052815Y-150648815D01*
X80973463Y-150745506D01*
X80914498Y-150855820D01*
X80878188Y-150975518D01*
X80865928Y-151100000D01*
X69660000Y-151100000D01*
X69660000Y-141300475D01*
X92615000Y-141300475D01*
X92615000Y-141819525D01*
X92716261Y-142328601D01*
X92914893Y-142808141D01*
X93203262Y-143239715D01*
X93570285Y-143606738D01*
X94001859Y-143895107D01*
X94481399Y-144093739D01*
X94990475Y-144195000D01*
X95509525Y-144195000D01*
X96018601Y-144093739D01*
X96498141Y-143895107D01*
X96929715Y-143606738D01*
X97296738Y-143239715D01*
X97585107Y-142808141D01*
X97783739Y-142328601D01*
X97885000Y-141819525D01*
X97885000Y-141300475D01*
X97783739Y-140791399D01*
X97585107Y-140311859D01*
X97296738Y-139880285D01*
X96929715Y-139513262D01*
X96498141Y-139224893D01*
X96018601Y-139026261D01*
X95509525Y-138925000D01*
X94990475Y-138925000D01*
X94481399Y-139026261D01*
X94001859Y-139224893D01*
X93570285Y-139513262D01*
X93203262Y-139880285D01*
X92914893Y-140311859D01*
X92716261Y-140791399D01*
X92615000Y-141300475D01*
X69660000Y-141300475D01*
X69660000Y-140087500D01*
X83136928Y-140087500D01*
X83149188Y-140211982D01*
X83185498Y-140331680D01*
X83244463Y-140441994D01*
X83323815Y-140538685D01*
X83420506Y-140618037D01*
X83530820Y-140677002D01*
X83650518Y-140713312D01*
X83775000Y-140725572D01*
X84214250Y-140722500D01*
X84373000Y-140563750D01*
X84373000Y-139627000D01*
X84627000Y-139627000D01*
X84627000Y-140563750D01*
X84785750Y-140722500D01*
X85225000Y-140725572D01*
X85240149Y-140724080D01*
X87365525Y-140724080D01*
X87449208Y-140978261D01*
X87721775Y-141109158D01*
X88014642Y-141184365D01*
X88316553Y-141200991D01*
X88615907Y-141158397D01*
X88901199Y-141058222D01*
X89050792Y-140978261D01*
X89134475Y-140724080D01*
X88250000Y-139839605D01*
X87365525Y-140724080D01*
X85240149Y-140724080D01*
X85349482Y-140713312D01*
X85469180Y-140677002D01*
X85579494Y-140618037D01*
X85676185Y-140538685D01*
X85755537Y-140441994D01*
X85814502Y-140331680D01*
X85850812Y-140211982D01*
X85863072Y-140087500D01*
X85860000Y-139785750D01*
X85800803Y-139726553D01*
X86709009Y-139726553D01*
X86751603Y-140025907D01*
X86851778Y-140311199D01*
X86931739Y-140460792D01*
X87185920Y-140544475D01*
X88070395Y-139660000D01*
X88429605Y-139660000D01*
X89314080Y-140544475D01*
X89568261Y-140460792D01*
X89699158Y-140188225D01*
X89774365Y-139895358D01*
X89790991Y-139593447D01*
X89748397Y-139294093D01*
X89648222Y-139008801D01*
X89568261Y-138859208D01*
X89314080Y-138775525D01*
X88429605Y-139660000D01*
X88070395Y-139660000D01*
X87185920Y-138775525D01*
X86931739Y-138859208D01*
X86800842Y-139131775D01*
X86725635Y-139424642D01*
X86709009Y-139726553D01*
X85800803Y-139726553D01*
X85701250Y-139627000D01*
X84627000Y-139627000D01*
X84373000Y-139627000D01*
X83298750Y-139627000D01*
X83140000Y-139785750D01*
X83136928Y-140087500D01*
X69660000Y-140087500D01*
X69660000Y-137087500D01*
X83136928Y-137087500D01*
X83136928Y-137762500D01*
X83153992Y-137935754D01*
X83204528Y-138102350D01*
X83286595Y-138255886D01*
X83397038Y-138390462D01*
X83403594Y-138395842D01*
X83323815Y-138461315D01*
X83244463Y-138558006D01*
X83185498Y-138668320D01*
X83149188Y-138788018D01*
X83136928Y-138912500D01*
X83140000Y-139214250D01*
X83298750Y-139373000D01*
X84373000Y-139373000D01*
X84373000Y-139353000D01*
X84627000Y-139353000D01*
X84627000Y-139373000D01*
X85701250Y-139373000D01*
X85860000Y-139214250D01*
X85863072Y-138912500D01*
X85850812Y-138788018D01*
X85814502Y-138668320D01*
X85755537Y-138558006D01*
X85676185Y-138461315D01*
X85596406Y-138395842D01*
X85602962Y-138390462D01*
X85713405Y-138255886D01*
X85795472Y-138102350D01*
X85846008Y-137935754D01*
X85847560Y-137920000D01*
X86911687Y-137920000D01*
X87057688Y-138138505D01*
X87271495Y-138352312D01*
X87414310Y-138447738D01*
X87365525Y-138595920D01*
X88250000Y-139480395D01*
X89134475Y-138595920D01*
X89085690Y-138447738D01*
X89228505Y-138352312D01*
X89442312Y-138138505D01*
X89588313Y-137920000D01*
X98514678Y-137920000D01*
X98552000Y-137923676D01*
X98589322Y-137920000D01*
X98589333Y-137920000D01*
X98700986Y-137909003D01*
X98844247Y-137865546D01*
X98976276Y-137794974D01*
X99092001Y-137700001D01*
X99115804Y-137670997D01*
X101126801Y-135660000D01*
X104344928Y-135660000D01*
X104357188Y-135784482D01*
X104393498Y-135904180D01*
X104452463Y-136014494D01*
X104531815Y-136111185D01*
X104628506Y-136190537D01*
X104738820Y-136249502D01*
X104858518Y-136285812D01*
X104983000Y-136298072D01*
X104997250Y-136295000D01*
X105156000Y-136136250D01*
X105156000Y-134812000D01*
X104506750Y-134812000D01*
X104348000Y-134970750D01*
X104344928Y-135660000D01*
X101126801Y-135660000D01*
X103076801Y-133710000D01*
X104344928Y-133710000D01*
X104348000Y-134399250D01*
X104506750Y-134558000D01*
X105156000Y-134558000D01*
X105156000Y-133233750D01*
X104997250Y-133075000D01*
X104983000Y-133071928D01*
X104858518Y-133084188D01*
X104738820Y-133120498D01*
X104628506Y-133179463D01*
X104531815Y-133258815D01*
X104452463Y-133355506D01*
X104393498Y-133465820D01*
X104357188Y-133585518D01*
X104344928Y-133710000D01*
X103076801Y-133710000D01*
X103819802Y-132967000D01*
X106873199Y-132967000D01*
X107063000Y-133156802D01*
X107063000Y-133163141D01*
X107004582Y-133131916D01*
X106856745Y-133087071D01*
X106703000Y-133071928D01*
X106403000Y-133071928D01*
X106249255Y-133087071D01*
X106101418Y-133131916D01*
X105967064Y-133203730D01*
X105937494Y-133179463D01*
X105827180Y-133120498D01*
X105707482Y-133084188D01*
X105583000Y-133071928D01*
X105568750Y-133075000D01*
X105410000Y-133233750D01*
X105410000Y-134558000D01*
X105430000Y-134558000D01*
X105430000Y-134812000D01*
X105410000Y-134812000D01*
X105410000Y-136136250D01*
X105511474Y-136237724D01*
X105349199Y-136400000D01*
X104685322Y-136400000D01*
X104647999Y-136396324D01*
X104610676Y-136400000D01*
X104610667Y-136400000D01*
X104499014Y-136410997D01*
X104355753Y-136454454D01*
X104223724Y-136525026D01*
X104107999Y-136619999D01*
X104084200Y-136648998D01*
X103629002Y-137104197D01*
X103599999Y-137127999D01*
X103573737Y-137160000D01*
X103505026Y-137243724D01*
X103470142Y-137308987D01*
X103434454Y-137375754D01*
X103390997Y-137519015D01*
X103380000Y-137630668D01*
X103380000Y-137630678D01*
X103376324Y-137668000D01*
X103380000Y-137705323D01*
X103380001Y-140749197D01*
X93524986Y-150604213D01*
X93368419Y-150539361D01*
X92994581Y-150465000D01*
X92613419Y-150465000D01*
X92239581Y-150539361D01*
X91887434Y-150685225D01*
X91570509Y-150896987D01*
X91300987Y-151166509D01*
X91089225Y-151483434D01*
X90943361Y-151835581D01*
X90869000Y-152209419D01*
X90869000Y-152590581D01*
X90943361Y-152964419D01*
X91089225Y-153316566D01*
X91300987Y-153633491D01*
X91570509Y-153903013D01*
X91887434Y-154114775D01*
X92239581Y-154260639D01*
X92613419Y-154335000D01*
X92994581Y-154335000D01*
X93368419Y-154260639D01*
X93720566Y-154114775D01*
X94037491Y-153903013D01*
X94307013Y-153633491D01*
X94518775Y-153316566D01*
X94664639Y-152964419D01*
X94739000Y-152590581D01*
X94739000Y-152209419D01*
X94664639Y-151835581D01*
X94599787Y-151679014D01*
X104274632Y-142004170D01*
X104248000Y-142138061D01*
X104248000Y-142341939D01*
X104287774Y-142541898D01*
X104365795Y-142730256D01*
X104479063Y-142899774D01*
X104523000Y-142943711D01*
X104523001Y-144606197D01*
X98524986Y-150604213D01*
X98368419Y-150539361D01*
X97994581Y-150465000D01*
X97613419Y-150465000D01*
X97239581Y-150539361D01*
X96887434Y-150685225D01*
X96570509Y-150896987D01*
X96300987Y-151166509D01*
X96089225Y-151483434D01*
X95943361Y-151835581D01*
X95869000Y-152209419D01*
X95869000Y-152590581D01*
X95943361Y-152964419D01*
X96089225Y-153316566D01*
X96300987Y-153633491D01*
X96570509Y-153903013D01*
X96887434Y-154114775D01*
X97239581Y-154260639D01*
X97613419Y-154335000D01*
X97994581Y-154335000D01*
X98368419Y-154260639D01*
X98720566Y-154114775D01*
X99037491Y-153903013D01*
X99307013Y-153633491D01*
X99518775Y-153316566D01*
X99664639Y-152964419D01*
X99739000Y-152590581D01*
X99739000Y-152209419D01*
X99664639Y-151835581D01*
X99599787Y-151679014D01*
X105793001Y-145485801D01*
X105793001Y-148336197D01*
X103524986Y-150604213D01*
X103368419Y-150539361D01*
X102994581Y-150465000D01*
X102613419Y-150465000D01*
X102239581Y-150539361D01*
X101887434Y-150685225D01*
X101570509Y-150896987D01*
X101300987Y-151166509D01*
X101089225Y-151483434D01*
X100943361Y-151835581D01*
X100869000Y-152209419D01*
X100869000Y-152590581D01*
X100943361Y-152964419D01*
X101089225Y-153316566D01*
X101300987Y-153633491D01*
X101570509Y-153903013D01*
X101887434Y-154114775D01*
X102239581Y-154260639D01*
X102613419Y-154335000D01*
X102994581Y-154335000D01*
X103368419Y-154260639D01*
X103720566Y-154114775D01*
X104037491Y-153903013D01*
X104307013Y-153633491D01*
X104518775Y-153316566D01*
X104664639Y-152964419D01*
X104739000Y-152590581D01*
X104739000Y-152209419D01*
X104664639Y-151835581D01*
X104599787Y-151679014D01*
X107044000Y-149234802D01*
X107044000Y-150620373D01*
X106887434Y-150685225D01*
X106570509Y-150896987D01*
X106300987Y-151166509D01*
X106089225Y-151483434D01*
X105943361Y-151835581D01*
X105869000Y-152209419D01*
X105869000Y-152590581D01*
X105943361Y-152964419D01*
X106089225Y-153316566D01*
X106300987Y-153633491D01*
X106570509Y-153903013D01*
X106887434Y-154114775D01*
X107239581Y-154260639D01*
X107613419Y-154335000D01*
X107994581Y-154335000D01*
X108368419Y-154260639D01*
X108720566Y-154114775D01*
X109037491Y-153903013D01*
X109160632Y-153779872D01*
X115765000Y-153779872D01*
X115765000Y-154220128D01*
X115850890Y-154651925D01*
X116019369Y-155058669D01*
X116263962Y-155424729D01*
X116575271Y-155736038D01*
X116941331Y-155980631D01*
X117348075Y-156149110D01*
X117779872Y-156235000D01*
X118220128Y-156235000D01*
X118651925Y-156149110D01*
X119058669Y-155980631D01*
X119424729Y-155736038D01*
X119736038Y-155424729D01*
X119980631Y-155058669D01*
X120149110Y-154651925D01*
X120235000Y-154220128D01*
X120235000Y-153779872D01*
X120149110Y-153348075D01*
X119980631Y-152941331D01*
X119736038Y-152575271D01*
X119424729Y-152263962D01*
X119058669Y-152019369D01*
X118651925Y-151850890D01*
X118220128Y-151765000D01*
X117779872Y-151765000D01*
X117348075Y-151850890D01*
X116941331Y-152019369D01*
X116575271Y-152263962D01*
X116263962Y-152575271D01*
X116019369Y-152941331D01*
X115850890Y-153348075D01*
X115765000Y-153779872D01*
X109160632Y-153779872D01*
X109307013Y-153633491D01*
X109518775Y-153316566D01*
X109664639Y-152964419D01*
X109739000Y-152590581D01*
X109739000Y-152209419D01*
X109664639Y-151835581D01*
X109518775Y-151483434D01*
X109307013Y-151166509D01*
X109037491Y-150896987D01*
X108720566Y-150685225D01*
X108564000Y-150620373D01*
X108564000Y-143249396D01*
X108761933Y-143331383D01*
X108981212Y-143375000D01*
X109204788Y-143375000D01*
X109424067Y-143331383D01*
X109630624Y-143245824D01*
X109816520Y-143121612D01*
X109974612Y-142963520D01*
X110098824Y-142777624D01*
X110184383Y-142571067D01*
X110225869Y-142362500D01*
X110523928Y-142362500D01*
X110536188Y-142486982D01*
X110572498Y-142606680D01*
X110631463Y-142716994D01*
X110710815Y-142813685D01*
X110807506Y-142893037D01*
X110917820Y-142952002D01*
X111037518Y-142988312D01*
X111162000Y-143000572D01*
X111601250Y-142997500D01*
X111760000Y-142838750D01*
X111760000Y-141902000D01*
X112014000Y-141902000D01*
X112014000Y-142838750D01*
X112172750Y-142997500D01*
X112612000Y-143000572D01*
X112736482Y-142988312D01*
X112856180Y-142952002D01*
X112966494Y-142893037D01*
X113063185Y-142813685D01*
X113142537Y-142716994D01*
X113201502Y-142606680D01*
X113237812Y-142486982D01*
X113250072Y-142362500D01*
X113247000Y-142060750D01*
X113088250Y-141902000D01*
X112014000Y-141902000D01*
X111760000Y-141902000D01*
X110685750Y-141902000D01*
X110527000Y-142060750D01*
X110523928Y-142362500D01*
X110225869Y-142362500D01*
X110228000Y-142351788D01*
X110228000Y-142128212D01*
X110184383Y-141908933D01*
X110098824Y-141702376D01*
X109974612Y-141516480D01*
X109928000Y-141469868D01*
X109928000Y-140842186D01*
X109971084Y-140761582D01*
X110015929Y-140613745D01*
X110023685Y-140535000D01*
X110676971Y-140535000D01*
X110784038Y-140665462D01*
X110790594Y-140670842D01*
X110710815Y-140736315D01*
X110631463Y-140833006D01*
X110572498Y-140943320D01*
X110536188Y-141063018D01*
X110523928Y-141187500D01*
X110527000Y-141489250D01*
X110685750Y-141648000D01*
X111760000Y-141648000D01*
X111760000Y-141628000D01*
X112014000Y-141628000D01*
X112014000Y-141648000D01*
X113088250Y-141648000D01*
X113247000Y-141489250D01*
X113250072Y-141187500D01*
X113237812Y-141063018D01*
X113201502Y-140943320D01*
X113142537Y-140833006D01*
X113063185Y-140736315D01*
X112983406Y-140670842D01*
X112989962Y-140665462D01*
X113100405Y-140530886D01*
X113182472Y-140377350D01*
X113233008Y-140210754D01*
X113250072Y-140037500D01*
X113250072Y-139362500D01*
X113233008Y-139189246D01*
X113182472Y-139022650D01*
X113100405Y-138869114D01*
X112989962Y-138734538D01*
X112855386Y-138624095D01*
X112722000Y-138552798D01*
X112722000Y-138096202D01*
X112855386Y-138024905D01*
X112989962Y-137914462D01*
X113100405Y-137779886D01*
X113182472Y-137626350D01*
X113233008Y-137459754D01*
X113250072Y-137286500D01*
X113250072Y-136611500D01*
X113233008Y-136438246D01*
X113182472Y-136271650D01*
X113100405Y-136118114D01*
X112989962Y-135983538D01*
X112983406Y-135978158D01*
X113063185Y-135912685D01*
X113142537Y-135815994D01*
X113201502Y-135705680D01*
X113237812Y-135585982D01*
X113250072Y-135461500D01*
X113247000Y-135159750D01*
X113088250Y-135001000D01*
X112014000Y-135001000D01*
X112014000Y-135021000D01*
X111760000Y-135021000D01*
X111760000Y-135001000D01*
X110685750Y-135001000D01*
X110527000Y-135159750D01*
X110523928Y-135461500D01*
X110536188Y-135585982D01*
X110572498Y-135705680D01*
X110631463Y-135815994D01*
X110710815Y-135912685D01*
X110790594Y-135978158D01*
X110784038Y-135983538D01*
X110673595Y-136118114D01*
X110591528Y-136271650D01*
X110540992Y-136438246D01*
X110523928Y-136611500D01*
X110523928Y-137286500D01*
X110540992Y-137459754D01*
X110591528Y-137626350D01*
X110673595Y-137779886D01*
X110784038Y-137914462D01*
X110918614Y-138024905D01*
X111052000Y-138096202D01*
X111052001Y-138552798D01*
X110918614Y-138624095D01*
X110784038Y-138734538D01*
X110676971Y-138865000D01*
X110031072Y-138865000D01*
X110031072Y-138810000D01*
X110015929Y-138656255D01*
X109971084Y-138508418D01*
X109898258Y-138372171D01*
X109800251Y-138252749D01*
X109680829Y-138154742D01*
X109544582Y-138081916D01*
X109396745Y-138037071D01*
X109243000Y-138021928D01*
X108943000Y-138021928D01*
X108789255Y-138037071D01*
X108641418Y-138081916D01*
X108505171Y-138154742D01*
X108458000Y-138193454D01*
X108410829Y-138154742D01*
X108274582Y-138081916D01*
X108126745Y-138037071D01*
X107973000Y-138021928D01*
X107673000Y-138021928D01*
X107519255Y-138037071D01*
X107371418Y-138081916D01*
X107235171Y-138154742D01*
X107188000Y-138193454D01*
X107140829Y-138154742D01*
X107004582Y-138081916D01*
X106856745Y-138037071D01*
X106703000Y-138021928D01*
X106403000Y-138021928D01*
X106249255Y-138037071D01*
X106101418Y-138081916D01*
X105965171Y-138154742D01*
X105918000Y-138193454D01*
X105870829Y-138154742D01*
X105734582Y-138081916D01*
X105586745Y-138037071D01*
X105433000Y-138021928D01*
X105133000Y-138021928D01*
X104979255Y-138037071D01*
X104900000Y-138061112D01*
X104900000Y-137982801D01*
X104962802Y-137920000D01*
X105626678Y-137920000D01*
X105664000Y-137923676D01*
X105701322Y-137920000D01*
X105701333Y-137920000D01*
X105812986Y-137909003D01*
X105956247Y-137865546D01*
X106088276Y-137794974D01*
X106204001Y-137700001D01*
X106227803Y-137670998D01*
X107064003Y-136834799D01*
X107093001Y-136811001D01*
X107187974Y-136695276D01*
X107258546Y-136563247D01*
X107302003Y-136419986D01*
X107313000Y-136308333D01*
X107313000Y-136308323D01*
X107316676Y-136271000D01*
X107313000Y-136233677D01*
X107313000Y-136206859D01*
X107371418Y-136238084D01*
X107519255Y-136282929D01*
X107673000Y-136298072D01*
X107973000Y-136298072D01*
X108126745Y-136282929D01*
X108274582Y-136238084D01*
X108410829Y-136165258D01*
X108458000Y-136126546D01*
X108505171Y-136165258D01*
X108641418Y-136238084D01*
X108789255Y-136282929D01*
X108943000Y-136298072D01*
X109243000Y-136298072D01*
X109396745Y-136282929D01*
X109544582Y-136238084D01*
X109680829Y-136165258D01*
X109800251Y-136067251D01*
X109898258Y-135947829D01*
X109971084Y-135811582D01*
X110015929Y-135663745D01*
X110031072Y-135510000D01*
X110031072Y-134286500D01*
X110523928Y-134286500D01*
X110527000Y-134588250D01*
X110685750Y-134747000D01*
X111760000Y-134747000D01*
X111760000Y-133810250D01*
X112014000Y-133810250D01*
X112014000Y-134747000D01*
X113088250Y-134747000D01*
X113247000Y-134588250D01*
X113250072Y-134286500D01*
X113237812Y-134162018D01*
X113201502Y-134042320D01*
X113142537Y-133932006D01*
X113063185Y-133835315D01*
X112966494Y-133755963D01*
X112856180Y-133696998D01*
X112736482Y-133660688D01*
X112612000Y-133648428D01*
X112172750Y-133651500D01*
X112014000Y-133810250D01*
X111760000Y-133810250D01*
X111601250Y-133651500D01*
X111162000Y-133648428D01*
X111037518Y-133660688D01*
X110917820Y-133696998D01*
X110807506Y-133755963D01*
X110710815Y-133835315D01*
X110631463Y-133932006D01*
X110572498Y-134042320D01*
X110536188Y-134162018D01*
X110523928Y-134286500D01*
X110031072Y-134286500D01*
X110031072Y-133860000D01*
X110015929Y-133706255D01*
X109971084Y-133558418D01*
X109898258Y-133422171D01*
X109853000Y-133367024D01*
X109853000Y-130720322D01*
X109856676Y-130682999D01*
X109853000Y-130645676D01*
X109853000Y-130645667D01*
X109842003Y-130534014D01*
X109798546Y-130390753D01*
X109727974Y-130258724D01*
X109633001Y-130142999D01*
X109604003Y-130119201D01*
X103264674Y-123779872D01*
X115765000Y-123779872D01*
X115765000Y-124220128D01*
X115850890Y-124651925D01*
X116019369Y-125058669D01*
X116263962Y-125424729D01*
X116575271Y-125736038D01*
X116941331Y-125980631D01*
X117348075Y-126149110D01*
X117779872Y-126235000D01*
X118220128Y-126235000D01*
X118651925Y-126149110D01*
X119058669Y-125980631D01*
X119424729Y-125736038D01*
X119736038Y-125424729D01*
X119980631Y-125058669D01*
X120149110Y-124651925D01*
X120235000Y-124220128D01*
X120235000Y-123779872D01*
X120149110Y-123348075D01*
X119980631Y-122941331D01*
X119736038Y-122575271D01*
X119424729Y-122263962D01*
X119058669Y-122019369D01*
X118651925Y-121850890D01*
X118220128Y-121765000D01*
X117779872Y-121765000D01*
X117348075Y-121850890D01*
X116941331Y-122019369D01*
X116575271Y-122263962D01*
X116263962Y-122575271D01*
X116019369Y-122941331D01*
X115850890Y-123348075D01*
X115765000Y-123779872D01*
X103264674Y-123779872D01*
X102163804Y-122679003D01*
X102140001Y-122649999D01*
X102024276Y-122555026D01*
X101892247Y-122484454D01*
X101748986Y-122440997D01*
X101637333Y-122430000D01*
X101637322Y-122430000D01*
X101600000Y-122426324D01*
X101562678Y-122430000D01*
X94017322Y-122430000D01*
X93979999Y-122426324D01*
X93942676Y-122430000D01*
X93942667Y-122430000D01*
X93831014Y-122440997D01*
X93687753Y-122484454D01*
X93555724Y-122555026D01*
X93439999Y-122649999D01*
X93416201Y-122678997D01*
X93076408Y-123018790D01*
X92856260Y-122975000D01*
X92563740Y-122975000D01*
X92276842Y-123032068D01*
X92006589Y-123144010D01*
X91763368Y-123306525D01*
X91556525Y-123513368D01*
X91431822Y-123700000D01*
X88390554Y-123700000D01*
X88319387Y-123641595D01*
X88165851Y-123559528D01*
X87999255Y-123508992D01*
X87826001Y-123491928D01*
X86925999Y-123491928D01*
X86752745Y-123508992D01*
X86586149Y-123559528D01*
X86432613Y-123641595D01*
X86298038Y-123752038D01*
X86187595Y-123886613D01*
X86105528Y-124040149D01*
X86054992Y-124206745D01*
X86037928Y-124379999D01*
X86037928Y-125080001D01*
X86054992Y-125253255D01*
X86105528Y-125419851D01*
X86187595Y-125573387D01*
X86298038Y-125707962D01*
X86324891Y-125730000D01*
X86298038Y-125752038D01*
X86187595Y-125886613D01*
X86105528Y-126040149D01*
X86054992Y-126206745D01*
X86037928Y-126379999D01*
X86037928Y-127080001D01*
X86054992Y-127253255D01*
X86105528Y-127419851D01*
X86187595Y-127573387D01*
X86298038Y-127707962D01*
X86432613Y-127818405D01*
X86541000Y-127876339D01*
X86541001Y-133744972D01*
X86536960Y-133786000D01*
X86553082Y-133949688D01*
X86600828Y-134107086D01*
X86678364Y-134252145D01*
X86701907Y-134280832D01*
X86748947Y-134338151D01*
X86715000Y-134508816D01*
X86715000Y-134811184D01*
X86773989Y-135107743D01*
X86889701Y-135387095D01*
X87057688Y-135638505D01*
X87271495Y-135852312D01*
X87357831Y-135910000D01*
X87271495Y-135967688D01*
X87057688Y-136181495D01*
X86911687Y-136400000D01*
X85530414Y-136400000D01*
X85468386Y-136349095D01*
X85314850Y-136267028D01*
X85148254Y-136216492D01*
X84975000Y-136199428D01*
X84025000Y-136199428D01*
X83851746Y-136216492D01*
X83685150Y-136267028D01*
X83531614Y-136349095D01*
X83397038Y-136459538D01*
X83286595Y-136594114D01*
X83204528Y-136747650D01*
X83153992Y-136914246D01*
X83136928Y-137087500D01*
X69660000Y-137087500D01*
X69660000Y-124032278D01*
X69684748Y-123779872D01*
X70765000Y-123779872D01*
X70765000Y-124220128D01*
X70850890Y-124651925D01*
X71019369Y-125058669D01*
X71263962Y-125424729D01*
X71575271Y-125736038D01*
X71941331Y-125980631D01*
X72348075Y-126149110D01*
X72779872Y-126235000D01*
X73220128Y-126235000D01*
X73651925Y-126149110D01*
X74058669Y-125980631D01*
X74424729Y-125736038D01*
X74736038Y-125424729D01*
X74980631Y-125058669D01*
X75149110Y-124651925D01*
X75235000Y-124220128D01*
X75235000Y-123779872D01*
X75149110Y-123348075D01*
X74980631Y-122941331D01*
X74736038Y-122575271D01*
X74424729Y-122263962D01*
X74058669Y-122019369D01*
X73651925Y-121850890D01*
X73220128Y-121765000D01*
X72779872Y-121765000D01*
X72348075Y-121850890D01*
X71941331Y-122019369D01*
X71575271Y-122263962D01*
X71263962Y-122575271D01*
X71019369Y-122941331D01*
X70850890Y-123348075D01*
X70765000Y-123779872D01*
X69684748Y-123779872D01*
X69726714Y-123351874D01*
X69914943Y-122728428D01*
X70220681Y-122153421D01*
X70632279Y-121648753D01*
X71134067Y-121233638D01*
X71706924Y-120923895D01*
X72329039Y-120731318D01*
X73007584Y-120660000D01*
X117967722Y-120660000D01*
X118648126Y-120726714D01*
G37*
%TD.AperFunction*%
D20*
X108333001Y-130997803D02*
X108333001Y-132277199D01*
X107751803Y-131696002D01*
X107728001Y-131666999D01*
X107612276Y-131572026D01*
X107480247Y-131501454D01*
X107336986Y-131457997D01*
X107225333Y-131447000D01*
X107225322Y-131447000D01*
X107188000Y-131443324D01*
X107150678Y-131447000D01*
X103542325Y-131447000D01*
X103505000Y-131443324D01*
X103467675Y-131447000D01*
X103467667Y-131447000D01*
X103356014Y-131457997D01*
X103212753Y-131501454D01*
X103080724Y-131572026D01*
X102964999Y-131666999D01*
X102941201Y-131695997D01*
X98237199Y-136400000D01*
X89588313Y-136400000D01*
X89442312Y-136181495D01*
X89228505Y-135967688D01*
X89142169Y-135910000D01*
X89228505Y-135852312D01*
X89442312Y-135638505D01*
X89610299Y-135387095D01*
X89726011Y-135107743D01*
X89785000Y-134811184D01*
X89785000Y-134508816D01*
X89726011Y-134212257D01*
X89610299Y-133932905D01*
X89442312Y-133681495D01*
X89228505Y-133467688D01*
X88977095Y-133299701D01*
X88697743Y-133183989D01*
X88401184Y-133125000D01*
X88211000Y-133125000D01*
X88211000Y-132500475D01*
X92615000Y-132500475D01*
X92615000Y-133019525D01*
X92716261Y-133528601D01*
X92914893Y-134008141D01*
X93203262Y-134439715D01*
X93570285Y-134806738D01*
X94001859Y-135095107D01*
X94481399Y-135293739D01*
X94990475Y-135395000D01*
X95509525Y-135395000D01*
X96018601Y-135293739D01*
X96498141Y-135095107D01*
X96929715Y-134806738D01*
X97296738Y-134439715D01*
X97585107Y-134008141D01*
X97783739Y-133528601D01*
X97885000Y-133019525D01*
X97885000Y-132500475D01*
X97783739Y-131991399D01*
X97585107Y-131511859D01*
X97296738Y-131080285D01*
X96929715Y-130713262D01*
X96498141Y-130424893D01*
X96018601Y-130226261D01*
X95509525Y-130125000D01*
X94990475Y-130125000D01*
X94481399Y-130226261D01*
X94001859Y-130424893D01*
X93570285Y-130713262D01*
X93203262Y-131080285D01*
X92914893Y-131511859D01*
X92716261Y-131991399D01*
X92615000Y-132500475D01*
X88211000Y-132500475D01*
X88211000Y-127876339D01*
X88319387Y-127818405D01*
X88453962Y-127707962D01*
X88564405Y-127573387D01*
X88646472Y-127419851D01*
X88665570Y-127356891D01*
X91268519Y-127356891D01*
X91365843Y-127631252D01*
X91514822Y-127881355D01*
X91709731Y-128097588D01*
X91943080Y-128271641D01*
X92205901Y-128396825D01*
X92353110Y-128441476D01*
X92583000Y-128320155D01*
X92583000Y-127127000D01*
X91389186Y-127127000D01*
X91268519Y-127356891D01*
X88665570Y-127356891D01*
X88697008Y-127253255D01*
X88714072Y-127080001D01*
X88714072Y-126379999D01*
X88697008Y-126206745D01*
X88646472Y-126040149D01*
X88564405Y-125886613D01*
X88453962Y-125752038D01*
X88427109Y-125730000D01*
X88453962Y-125707962D01*
X88564405Y-125573387D01*
X88646472Y-125419851D01*
X88697008Y-125253255D01*
X88700283Y-125220000D01*
X91431822Y-125220000D01*
X91556525Y-125406632D01*
X91763368Y-125613475D01*
X91939406Y-125731100D01*
X91709731Y-125902412D01*
X91514822Y-126118645D01*
X91365843Y-126368748D01*
X91268519Y-126643109D01*
X91389186Y-126873000D01*
X92583000Y-126873000D01*
X92583000Y-126853000D01*
X92837000Y-126853000D01*
X92837000Y-126873000D01*
X92857000Y-126873000D01*
X92857000Y-127127000D01*
X92837000Y-127127000D01*
X92837000Y-128320155D01*
X93066890Y-128441476D01*
X93214099Y-128396825D01*
X93476920Y-128271641D01*
X93710269Y-128097588D01*
X93905178Y-127881355D01*
X93974805Y-127764466D01*
X94096525Y-127946632D01*
X94303368Y-128153475D01*
X94546589Y-128315990D01*
X94816842Y-128427932D01*
X95103740Y-128485000D01*
X95396260Y-128485000D01*
X95683158Y-128427932D01*
X95953411Y-128315990D01*
X96196632Y-128153475D01*
X96403475Y-127946632D01*
X96520000Y-127772240D01*
X96636525Y-127946632D01*
X96843368Y-128153475D01*
X97086589Y-128315990D01*
X97356842Y-128427932D01*
X97643740Y-128485000D01*
X97936260Y-128485000D01*
X98223158Y-128427932D01*
X98493411Y-128315990D01*
X98736632Y-128153475D01*
X98943475Y-127946632D01*
X99105990Y-127703411D01*
X99217932Y-127433158D01*
X99275000Y-127146260D01*
X99275000Y-126853740D01*
X99217932Y-126566842D01*
X99105990Y-126296589D01*
X98943475Y-126053368D01*
X98811620Y-125921513D01*
X98884180Y-125899502D01*
X98994494Y-125840537D01*
X99091185Y-125761185D01*
X99170537Y-125664494D01*
X99229502Y-125554180D01*
X99265812Y-125434482D01*
X99278072Y-125310000D01*
X99278072Y-123950000D01*
X101285199Y-123950000D01*
X108333001Y-130997803D01*
%TA.AperFunction,Conductor*%
D21*
G36*
X108333001Y-130997803D02*
G01*
X108333001Y-132277199D01*
X107751803Y-131696002D01*
X107728001Y-131666999D01*
X107612276Y-131572026D01*
X107480247Y-131501454D01*
X107336986Y-131457997D01*
X107225333Y-131447000D01*
X107225322Y-131447000D01*
X107188000Y-131443324D01*
X107150678Y-131447000D01*
X103542325Y-131447000D01*
X103505000Y-131443324D01*
X103467675Y-131447000D01*
X103467667Y-131447000D01*
X103356014Y-131457997D01*
X103212753Y-131501454D01*
X103080724Y-131572026D01*
X102964999Y-131666999D01*
X102941201Y-131695997D01*
X98237199Y-136400000D01*
X89588313Y-136400000D01*
X89442312Y-136181495D01*
X89228505Y-135967688D01*
X89142169Y-135910000D01*
X89228505Y-135852312D01*
X89442312Y-135638505D01*
X89610299Y-135387095D01*
X89726011Y-135107743D01*
X89785000Y-134811184D01*
X89785000Y-134508816D01*
X89726011Y-134212257D01*
X89610299Y-133932905D01*
X89442312Y-133681495D01*
X89228505Y-133467688D01*
X88977095Y-133299701D01*
X88697743Y-133183989D01*
X88401184Y-133125000D01*
X88211000Y-133125000D01*
X88211000Y-132500475D01*
X92615000Y-132500475D01*
X92615000Y-133019525D01*
X92716261Y-133528601D01*
X92914893Y-134008141D01*
X93203262Y-134439715D01*
X93570285Y-134806738D01*
X94001859Y-135095107D01*
X94481399Y-135293739D01*
X94990475Y-135395000D01*
X95509525Y-135395000D01*
X96018601Y-135293739D01*
X96498141Y-135095107D01*
X96929715Y-134806738D01*
X97296738Y-134439715D01*
X97585107Y-134008141D01*
X97783739Y-133528601D01*
X97885000Y-133019525D01*
X97885000Y-132500475D01*
X97783739Y-131991399D01*
X97585107Y-131511859D01*
X97296738Y-131080285D01*
X96929715Y-130713262D01*
X96498141Y-130424893D01*
X96018601Y-130226261D01*
X95509525Y-130125000D01*
X94990475Y-130125000D01*
X94481399Y-130226261D01*
X94001859Y-130424893D01*
X93570285Y-130713262D01*
X93203262Y-131080285D01*
X92914893Y-131511859D01*
X92716261Y-131991399D01*
X92615000Y-132500475D01*
X88211000Y-132500475D01*
X88211000Y-127876339D01*
X88319387Y-127818405D01*
X88453962Y-127707962D01*
X88564405Y-127573387D01*
X88646472Y-127419851D01*
X88665570Y-127356891D01*
X91268519Y-127356891D01*
X91365843Y-127631252D01*
X91514822Y-127881355D01*
X91709731Y-128097588D01*
X91943080Y-128271641D01*
X92205901Y-128396825D01*
X92353110Y-128441476D01*
X92583000Y-128320155D01*
X92583000Y-127127000D01*
X91389186Y-127127000D01*
X91268519Y-127356891D01*
X88665570Y-127356891D01*
X88697008Y-127253255D01*
X88714072Y-127080001D01*
X88714072Y-126379999D01*
X88697008Y-126206745D01*
X88646472Y-126040149D01*
X88564405Y-125886613D01*
X88453962Y-125752038D01*
X88427109Y-125730000D01*
X88453962Y-125707962D01*
X88564405Y-125573387D01*
X88646472Y-125419851D01*
X88697008Y-125253255D01*
X88700283Y-125220000D01*
X91431822Y-125220000D01*
X91556525Y-125406632D01*
X91763368Y-125613475D01*
X91939406Y-125731100D01*
X91709731Y-125902412D01*
X91514822Y-126118645D01*
X91365843Y-126368748D01*
X91268519Y-126643109D01*
X91389186Y-126873000D01*
X92583000Y-126873000D01*
X92583000Y-126853000D01*
X92837000Y-126853000D01*
X92837000Y-126873000D01*
X92857000Y-126873000D01*
X92857000Y-127127000D01*
X92837000Y-127127000D01*
X92837000Y-128320155D01*
X93066890Y-128441476D01*
X93214099Y-128396825D01*
X93476920Y-128271641D01*
X93710269Y-128097588D01*
X93905178Y-127881355D01*
X93974805Y-127764466D01*
X94096525Y-127946632D01*
X94303368Y-128153475D01*
X94546589Y-128315990D01*
X94816842Y-128427932D01*
X95103740Y-128485000D01*
X95396260Y-128485000D01*
X95683158Y-128427932D01*
X95953411Y-128315990D01*
X96196632Y-128153475D01*
X96403475Y-127946632D01*
X96520000Y-127772240D01*
X96636525Y-127946632D01*
X96843368Y-128153475D01*
X97086589Y-128315990D01*
X97356842Y-128427932D01*
X97643740Y-128485000D01*
X97936260Y-128485000D01*
X98223158Y-128427932D01*
X98493411Y-128315990D01*
X98736632Y-128153475D01*
X98943475Y-127946632D01*
X99105990Y-127703411D01*
X99217932Y-127433158D01*
X99275000Y-127146260D01*
X99275000Y-126853740D01*
X99217932Y-126566842D01*
X99105990Y-126296589D01*
X98943475Y-126053368D01*
X98811620Y-125921513D01*
X98884180Y-125899502D01*
X98994494Y-125840537D01*
X99091185Y-125761185D01*
X99170537Y-125664494D01*
X99229502Y-125554180D01*
X99265812Y-125434482D01*
X99278072Y-125310000D01*
X99278072Y-123950000D01*
X101285199Y-123950000D01*
X108333001Y-130997803D01*
G37*
%TD.AperFunction*%
%TD*%
M02*
