%TF.GenerationSoftware,KiCad,Pcbnew,5.1.9-73d0e3b20d~88~ubuntu20.04.1*%
%TF.CreationDate,2021-04-09T22:55:46+02:00*%
%TF.ProjectId,hardware,68617264-7761-4726-952e-6b696361645f,rev?*%
%TF.SameCoordinates,Original*%
%TF.FileFunction,Copper,L2,Bot*%
%TF.FilePolarity,Positive*%
%FSLAX46Y46*%
G04 Gerber Fmt 4.6, Leading zero omitted, Abs format (unit mm)*
G04 Created by KiCad (PCBNEW 5.1.9-73d0e3b20d~88~ubuntu20.04.1) date 2021-04-09 22:55:46*
%MOMM*%
%LPD*%
G01*
G04 APERTURE LIST*
%TA.AperFunction,ComponentPad*%
%ADD10R,2.600000X2.600000*%
%TD*%
%TA.AperFunction,ComponentPad*%
%ADD11C,2.600000*%
%TD*%
%TA.AperFunction,ComponentPad*%
%ADD12R,1.700000X1.700000*%
%TD*%
%TA.AperFunction,ComponentPad*%
%ADD13O,1.700000X1.700000*%
%TD*%
%TA.AperFunction,WasherPad*%
%ADD14C,4.000000*%
%TD*%
%TA.AperFunction,ComponentPad*%
%ADD15C,1.800000*%
%TD*%
%TA.AperFunction,ViaPad*%
%ADD16C,0.800000*%
%TD*%
%TA.AperFunction,ViaPad*%
%ADD17C,1.000000*%
%TD*%
%TA.AperFunction,Conductor*%
%ADD18C,0.400000*%
%TD*%
%TA.AperFunction,Conductor*%
%ADD19C,0.250000*%
%TD*%
%TA.AperFunction,Conductor*%
%ADD20C,0.254000*%
%TD*%
%TA.AperFunction,Conductor*%
%ADD21C,0.100000*%
%TD*%
G04 APERTURE END LIST*
D10*
%TO.P,J1,1*%
%TO.N,+5V*%
X82804000Y-152400000D03*
D11*
%TO.P,J1,2*%
%TO.N,GND*%
X87804000Y-152400000D03*
%TO.P,J1,3*%
%TO.N,PWM*%
X92804000Y-152400000D03*
%TO.P,J1,4*%
%TO.N,PB0*%
X97804000Y-152400000D03*
%TO.P,J1,5*%
%TO.N,PB1*%
X102804000Y-152400000D03*
%TO.P,J1,6*%
%TO.N,PB2*%
X107804000Y-152400000D03*
%TD*%
D12*
%TO.P,J2,1*%
%TO.N,PB1*%
X97790000Y-124460000D03*
D13*
%TO.P,J2,2*%
%TO.N,+5V*%
X97790000Y-127000000D03*
%TO.P,J2,3*%
%TO.N,PB2*%
X95250000Y-124460000D03*
%TO.P,J2,4*%
%TO.N,PB0*%
X95250000Y-127000000D03*
%TO.P,J2,5*%
%TO.N,nRST*%
X92710000Y-124460000D03*
%TO.P,J2,6*%
%TO.N,GND*%
X92710000Y-127000000D03*
%TD*%
D14*
%TO.P,RV1,*%
%TO.N,*%
X95250000Y-141560000D03*
X95250000Y-132760000D03*
D15*
%TO.P,RV1,1*%
%TO.N,GND*%
X88250000Y-139660000D03*
%TO.P,RV1,2*%
%TO.N,POT*%
X88250000Y-137160000D03*
%TO.P,RV1,3*%
%TO.N,+5V*%
X88250000Y-134660000D03*
%TD*%
D16*
%TO.N,GND*%
X111760000Y-130810000D03*
X111887000Y-146050000D03*
D17*
%TO.N,+5V*%
X109093000Y-142240000D03*
D16*
%TO.N,PB2*%
X107804000Y-142259000D03*
%TO.N,PB1*%
X106553000Y-142240000D03*
%TO.N,PB0*%
X105283000Y-142240000D03*
%TD*%
D18*
%TO.N,+5V*%
X109093000Y-142240000D02*
X109093000Y-144780000D01*
X109093000Y-144780000D02*
X107823000Y-146050000D01*
X89154000Y-146050000D02*
X82804000Y-152400000D01*
X97790000Y-127000000D02*
X100330000Y-129540000D01*
X100330000Y-129540000D02*
X100330000Y-146050000D01*
X100330000Y-146050000D02*
X89154000Y-146050000D01*
X107823000Y-146050000D02*
X100330000Y-146050000D01*
D19*
%TO.N,PB2*%
X107804000Y-142259000D02*
X107804000Y-129394000D01*
X107804000Y-129394000D02*
X101600000Y-123190000D01*
X96520000Y-123190000D02*
X95250000Y-124460000D01*
X101600000Y-123190000D02*
X96520000Y-123190000D01*
%TO.N,PB1*%
X106553000Y-142240000D02*
X106553000Y-129413000D01*
X101600000Y-124460000D02*
X97790000Y-124460000D01*
X106553000Y-129413000D02*
X101600000Y-124460000D01*
%TO.N,PB0*%
X96520000Y-125730000D02*
X95250000Y-127000000D01*
X101600000Y-125730000D02*
X96520000Y-125730000D01*
X105283000Y-129413000D02*
X101600000Y-125730000D01*
X105283000Y-142240000D02*
X105283000Y-129413000D01*
D18*
%TO.N,+5V*%
X82804000Y-140106000D02*
X88250000Y-134660000D01*
X82804000Y-152400000D02*
X82804000Y-140106000D01*
%TD*%
D20*
%TO.N,GND*%
X118648126Y-120726714D02*
X119271572Y-120914943D01*
X119846579Y-121220681D01*
X120351247Y-121632279D01*
X120766362Y-122134067D01*
X121076105Y-122706924D01*
X121268682Y-123329039D01*
X121340001Y-124007594D01*
X121340000Y-153967721D01*
X121273286Y-154648126D01*
X121085057Y-155271570D01*
X120779323Y-155846573D01*
X120367721Y-156351248D01*
X119865933Y-156766362D01*
X119293077Y-157076104D01*
X118670961Y-157268682D01*
X117992417Y-157340000D01*
X73032279Y-157340000D01*
X72351874Y-157273286D01*
X71728430Y-157085057D01*
X71153427Y-156779323D01*
X70648752Y-156367721D01*
X70233638Y-155865933D01*
X69923896Y-155293077D01*
X69731318Y-154670961D01*
X69660000Y-153992417D01*
X69660000Y-153779872D01*
X70765000Y-153779872D01*
X70765000Y-154220128D01*
X70850890Y-154651925D01*
X71019369Y-155058669D01*
X71263962Y-155424729D01*
X71575271Y-155736038D01*
X71941331Y-155980631D01*
X72348075Y-156149110D01*
X72779872Y-156235000D01*
X73220128Y-156235000D01*
X73651925Y-156149110D01*
X74058669Y-155980631D01*
X74424729Y-155736038D01*
X74736038Y-155424729D01*
X74980631Y-155058669D01*
X75149110Y-154651925D01*
X75235000Y-154220128D01*
X75235000Y-153779872D01*
X75149110Y-153348075D01*
X74980631Y-152941331D01*
X74736038Y-152575271D01*
X74424729Y-152263962D01*
X74058669Y-152019369D01*
X73651925Y-151850890D01*
X73220128Y-151765000D01*
X72779872Y-151765000D01*
X72348075Y-151850890D01*
X71941331Y-152019369D01*
X71575271Y-152263962D01*
X71263962Y-152575271D01*
X71019369Y-152941331D01*
X70850890Y-153348075D01*
X70765000Y-153779872D01*
X69660000Y-153779872D01*
X69660000Y-151100000D01*
X80865928Y-151100000D01*
X80865928Y-153700000D01*
X80878188Y-153824482D01*
X80914498Y-153944180D01*
X80973463Y-154054494D01*
X81052815Y-154151185D01*
X81149506Y-154230537D01*
X81259820Y-154289502D01*
X81379518Y-154325812D01*
X81504000Y-154338072D01*
X84104000Y-154338072D01*
X84228482Y-154325812D01*
X84348180Y-154289502D01*
X84458494Y-154230537D01*
X84555185Y-154151185D01*
X84634537Y-154054494D01*
X84693502Y-153944180D01*
X84729812Y-153824482D01*
X84737224Y-153749224D01*
X86634381Y-153749224D01*
X86766317Y-154044312D01*
X87107045Y-154215159D01*
X87474557Y-154316250D01*
X87854729Y-154343701D01*
X88232951Y-154296457D01*
X88594690Y-154176333D01*
X88841683Y-154044312D01*
X88973619Y-153749224D01*
X87804000Y-152579605D01*
X86634381Y-153749224D01*
X84737224Y-153749224D01*
X84742072Y-153700000D01*
X84742072Y-152450729D01*
X85860299Y-152450729D01*
X85907543Y-152828951D01*
X86027667Y-153190690D01*
X86159688Y-153437683D01*
X86454776Y-153569619D01*
X87624395Y-152400000D01*
X87983605Y-152400000D01*
X89153224Y-153569619D01*
X89448312Y-153437683D01*
X89619159Y-153096955D01*
X89720250Y-152729443D01*
X89747701Y-152349271D01*
X89730232Y-152209419D01*
X90869000Y-152209419D01*
X90869000Y-152590581D01*
X90943361Y-152964419D01*
X91089225Y-153316566D01*
X91300987Y-153633491D01*
X91570509Y-153903013D01*
X91887434Y-154114775D01*
X92239581Y-154260639D01*
X92613419Y-154335000D01*
X92994581Y-154335000D01*
X93368419Y-154260639D01*
X93720566Y-154114775D01*
X94037491Y-153903013D01*
X94307013Y-153633491D01*
X94518775Y-153316566D01*
X94664639Y-152964419D01*
X94739000Y-152590581D01*
X94739000Y-152209419D01*
X95869000Y-152209419D01*
X95869000Y-152590581D01*
X95943361Y-152964419D01*
X96089225Y-153316566D01*
X96300987Y-153633491D01*
X96570509Y-153903013D01*
X96887434Y-154114775D01*
X97239581Y-154260639D01*
X97613419Y-154335000D01*
X97994581Y-154335000D01*
X98368419Y-154260639D01*
X98720566Y-154114775D01*
X99037491Y-153903013D01*
X99307013Y-153633491D01*
X99518775Y-153316566D01*
X99664639Y-152964419D01*
X99739000Y-152590581D01*
X99739000Y-152209419D01*
X100869000Y-152209419D01*
X100869000Y-152590581D01*
X100943361Y-152964419D01*
X101089225Y-153316566D01*
X101300987Y-153633491D01*
X101570509Y-153903013D01*
X101887434Y-154114775D01*
X102239581Y-154260639D01*
X102613419Y-154335000D01*
X102994581Y-154335000D01*
X103368419Y-154260639D01*
X103720566Y-154114775D01*
X104037491Y-153903013D01*
X104307013Y-153633491D01*
X104518775Y-153316566D01*
X104664639Y-152964419D01*
X104739000Y-152590581D01*
X104739000Y-152209419D01*
X105869000Y-152209419D01*
X105869000Y-152590581D01*
X105943361Y-152964419D01*
X106089225Y-153316566D01*
X106300987Y-153633491D01*
X106570509Y-153903013D01*
X106887434Y-154114775D01*
X107239581Y-154260639D01*
X107613419Y-154335000D01*
X107994581Y-154335000D01*
X108368419Y-154260639D01*
X108720566Y-154114775D01*
X109037491Y-153903013D01*
X109160632Y-153779872D01*
X115765000Y-153779872D01*
X115765000Y-154220128D01*
X115850890Y-154651925D01*
X116019369Y-155058669D01*
X116263962Y-155424729D01*
X116575271Y-155736038D01*
X116941331Y-155980631D01*
X117348075Y-156149110D01*
X117779872Y-156235000D01*
X118220128Y-156235000D01*
X118651925Y-156149110D01*
X119058669Y-155980631D01*
X119424729Y-155736038D01*
X119736038Y-155424729D01*
X119980631Y-155058669D01*
X120149110Y-154651925D01*
X120235000Y-154220128D01*
X120235000Y-153779872D01*
X120149110Y-153348075D01*
X119980631Y-152941331D01*
X119736038Y-152575271D01*
X119424729Y-152263962D01*
X119058669Y-152019369D01*
X118651925Y-151850890D01*
X118220128Y-151765000D01*
X117779872Y-151765000D01*
X117348075Y-151850890D01*
X116941331Y-152019369D01*
X116575271Y-152263962D01*
X116263962Y-152575271D01*
X116019369Y-152941331D01*
X115850890Y-153348075D01*
X115765000Y-153779872D01*
X109160632Y-153779872D01*
X109307013Y-153633491D01*
X109518775Y-153316566D01*
X109664639Y-152964419D01*
X109739000Y-152590581D01*
X109739000Y-152209419D01*
X109664639Y-151835581D01*
X109518775Y-151483434D01*
X109307013Y-151166509D01*
X109037491Y-150896987D01*
X108720566Y-150685225D01*
X108368419Y-150539361D01*
X107994581Y-150465000D01*
X107613419Y-150465000D01*
X107239581Y-150539361D01*
X106887434Y-150685225D01*
X106570509Y-150896987D01*
X106300987Y-151166509D01*
X106089225Y-151483434D01*
X105943361Y-151835581D01*
X105869000Y-152209419D01*
X104739000Y-152209419D01*
X104664639Y-151835581D01*
X104518775Y-151483434D01*
X104307013Y-151166509D01*
X104037491Y-150896987D01*
X103720566Y-150685225D01*
X103368419Y-150539361D01*
X102994581Y-150465000D01*
X102613419Y-150465000D01*
X102239581Y-150539361D01*
X101887434Y-150685225D01*
X101570509Y-150896987D01*
X101300987Y-151166509D01*
X101089225Y-151483434D01*
X100943361Y-151835581D01*
X100869000Y-152209419D01*
X99739000Y-152209419D01*
X99664639Y-151835581D01*
X99518775Y-151483434D01*
X99307013Y-151166509D01*
X99037491Y-150896987D01*
X98720566Y-150685225D01*
X98368419Y-150539361D01*
X97994581Y-150465000D01*
X97613419Y-150465000D01*
X97239581Y-150539361D01*
X96887434Y-150685225D01*
X96570509Y-150896987D01*
X96300987Y-151166509D01*
X96089225Y-151483434D01*
X95943361Y-151835581D01*
X95869000Y-152209419D01*
X94739000Y-152209419D01*
X94664639Y-151835581D01*
X94518775Y-151483434D01*
X94307013Y-151166509D01*
X94037491Y-150896987D01*
X93720566Y-150685225D01*
X93368419Y-150539361D01*
X92994581Y-150465000D01*
X92613419Y-150465000D01*
X92239581Y-150539361D01*
X91887434Y-150685225D01*
X91570509Y-150896987D01*
X91300987Y-151166509D01*
X91089225Y-151483434D01*
X90943361Y-151835581D01*
X90869000Y-152209419D01*
X89730232Y-152209419D01*
X89700457Y-151971049D01*
X89580333Y-151609310D01*
X89448312Y-151362317D01*
X89153224Y-151230381D01*
X87983605Y-152400000D01*
X87624395Y-152400000D01*
X86454776Y-151230381D01*
X86159688Y-151362317D01*
X85988841Y-151703045D01*
X85887750Y-152070557D01*
X85860299Y-152450729D01*
X84742072Y-152450729D01*
X84742072Y-151642795D01*
X85334091Y-151050776D01*
X86634381Y-151050776D01*
X87804000Y-152220395D01*
X88973619Y-151050776D01*
X88841683Y-150755688D01*
X88500955Y-150584841D01*
X88133443Y-150483750D01*
X87753271Y-150456299D01*
X87375049Y-150503543D01*
X87013310Y-150623667D01*
X86766317Y-150755688D01*
X86634381Y-151050776D01*
X85334091Y-151050776D01*
X89499868Y-146885000D01*
X100288982Y-146885000D01*
X100330000Y-146889040D01*
X100371019Y-146885000D01*
X107781982Y-146885000D01*
X107823000Y-146889040D01*
X107864018Y-146885000D01*
X107864019Y-146885000D01*
X107986689Y-146872918D01*
X108144087Y-146825172D01*
X108289146Y-146747636D01*
X108416291Y-146643291D01*
X108442446Y-146611421D01*
X109654426Y-145399442D01*
X109686291Y-145373291D01*
X109790636Y-145246146D01*
X109868172Y-145101087D01*
X109915918Y-144943689D01*
X109928000Y-144821019D01*
X109928000Y-144821017D01*
X109932040Y-144780001D01*
X109928000Y-144738985D01*
X109928000Y-143010132D01*
X109974612Y-142963520D01*
X110098824Y-142777624D01*
X110184383Y-142571067D01*
X110228000Y-142351788D01*
X110228000Y-142128212D01*
X110184383Y-141908933D01*
X110098824Y-141702376D01*
X109974612Y-141516480D01*
X109816520Y-141358388D01*
X109630624Y-141234176D01*
X109424067Y-141148617D01*
X109204788Y-141105000D01*
X108981212Y-141105000D01*
X108761933Y-141148617D01*
X108564000Y-141230604D01*
X108564000Y-129431323D01*
X108567676Y-129394000D01*
X108564000Y-129356677D01*
X108564000Y-129356667D01*
X108553003Y-129245014D01*
X108509546Y-129101753D01*
X108494634Y-129073855D01*
X108438974Y-128969723D01*
X108367799Y-128882997D01*
X108344001Y-128853999D01*
X108315003Y-128830201D01*
X103264674Y-123779872D01*
X115765000Y-123779872D01*
X115765000Y-124220128D01*
X115850890Y-124651925D01*
X116019369Y-125058669D01*
X116263962Y-125424729D01*
X116575271Y-125736038D01*
X116941331Y-125980631D01*
X117348075Y-126149110D01*
X117779872Y-126235000D01*
X118220128Y-126235000D01*
X118651925Y-126149110D01*
X119058669Y-125980631D01*
X119424729Y-125736038D01*
X119736038Y-125424729D01*
X119980631Y-125058669D01*
X120149110Y-124651925D01*
X120235000Y-124220128D01*
X120235000Y-123779872D01*
X120149110Y-123348075D01*
X119980631Y-122941331D01*
X119736038Y-122575271D01*
X119424729Y-122263962D01*
X119058669Y-122019369D01*
X118651925Y-121850890D01*
X118220128Y-121765000D01*
X117779872Y-121765000D01*
X117348075Y-121850890D01*
X116941331Y-122019369D01*
X116575271Y-122263962D01*
X116263962Y-122575271D01*
X116019369Y-122941331D01*
X115850890Y-123348075D01*
X115765000Y-123779872D01*
X103264674Y-123779872D01*
X102163804Y-122679003D01*
X102140001Y-122649999D01*
X102024276Y-122555026D01*
X101892247Y-122484454D01*
X101748986Y-122440997D01*
X101637333Y-122430000D01*
X101637322Y-122430000D01*
X101600000Y-122426324D01*
X101562678Y-122430000D01*
X96557322Y-122430000D01*
X96519999Y-122426324D01*
X96482676Y-122430000D01*
X96482667Y-122430000D01*
X96371014Y-122440997D01*
X96227753Y-122484454D01*
X96095724Y-122555026D01*
X95979999Y-122649999D01*
X95956201Y-122678997D01*
X95616408Y-123018790D01*
X95396260Y-122975000D01*
X95103740Y-122975000D01*
X94816842Y-123032068D01*
X94546589Y-123144010D01*
X94303368Y-123306525D01*
X94096525Y-123513368D01*
X93980000Y-123687760D01*
X93863475Y-123513368D01*
X93656632Y-123306525D01*
X93413411Y-123144010D01*
X93143158Y-123032068D01*
X92856260Y-122975000D01*
X92563740Y-122975000D01*
X92276842Y-123032068D01*
X92006589Y-123144010D01*
X91763368Y-123306525D01*
X91556525Y-123513368D01*
X91394010Y-123756589D01*
X91282068Y-124026842D01*
X91225000Y-124313740D01*
X91225000Y-124606260D01*
X91282068Y-124893158D01*
X91394010Y-125163411D01*
X91556525Y-125406632D01*
X91763368Y-125613475D01*
X91939406Y-125731100D01*
X91709731Y-125902412D01*
X91514822Y-126118645D01*
X91365843Y-126368748D01*
X91268519Y-126643109D01*
X91389186Y-126873000D01*
X92583000Y-126873000D01*
X92583000Y-126853000D01*
X92837000Y-126853000D01*
X92837000Y-126873000D01*
X92857000Y-126873000D01*
X92857000Y-127127000D01*
X92837000Y-127127000D01*
X92837000Y-128320155D01*
X93066890Y-128441476D01*
X93214099Y-128396825D01*
X93476920Y-128271641D01*
X93710269Y-128097588D01*
X93905178Y-127881355D01*
X93974805Y-127764466D01*
X94096525Y-127946632D01*
X94303368Y-128153475D01*
X94546589Y-128315990D01*
X94816842Y-128427932D01*
X95103740Y-128485000D01*
X95396260Y-128485000D01*
X95683158Y-128427932D01*
X95953411Y-128315990D01*
X96196632Y-128153475D01*
X96403475Y-127946632D01*
X96520000Y-127772240D01*
X96636525Y-127946632D01*
X96843368Y-128153475D01*
X97086589Y-128315990D01*
X97356842Y-128427932D01*
X97643740Y-128485000D01*
X97936260Y-128485000D01*
X98067940Y-128458807D01*
X99495000Y-129885868D01*
X99495001Y-145215000D01*
X89195018Y-145215000D01*
X89153999Y-145210960D01*
X89112981Y-145215000D01*
X88990311Y-145227082D01*
X88832913Y-145274828D01*
X88687854Y-145352364D01*
X88560709Y-145456709D01*
X88534561Y-145488571D01*
X83639000Y-150384133D01*
X83639000Y-141300475D01*
X92615000Y-141300475D01*
X92615000Y-141819525D01*
X92716261Y-142328601D01*
X92914893Y-142808141D01*
X93203262Y-143239715D01*
X93570285Y-143606738D01*
X94001859Y-143895107D01*
X94481399Y-144093739D01*
X94990475Y-144195000D01*
X95509525Y-144195000D01*
X96018601Y-144093739D01*
X96498141Y-143895107D01*
X96929715Y-143606738D01*
X97296738Y-143239715D01*
X97585107Y-142808141D01*
X97783739Y-142328601D01*
X97885000Y-141819525D01*
X97885000Y-141300475D01*
X97783739Y-140791399D01*
X97585107Y-140311859D01*
X97296738Y-139880285D01*
X96929715Y-139513262D01*
X96498141Y-139224893D01*
X96018601Y-139026261D01*
X95509525Y-138925000D01*
X94990475Y-138925000D01*
X94481399Y-139026261D01*
X94001859Y-139224893D01*
X93570285Y-139513262D01*
X93203262Y-139880285D01*
X92914893Y-140311859D01*
X92716261Y-140791399D01*
X92615000Y-141300475D01*
X83639000Y-141300475D01*
X83639000Y-140724080D01*
X87365525Y-140724080D01*
X87449208Y-140978261D01*
X87721775Y-141109158D01*
X88014642Y-141184365D01*
X88316553Y-141200991D01*
X88615907Y-141158397D01*
X88901199Y-141058222D01*
X89050792Y-140978261D01*
X89134475Y-140724080D01*
X88250000Y-139839605D01*
X87365525Y-140724080D01*
X83639000Y-140724080D01*
X83639000Y-140451867D01*
X84364314Y-139726553D01*
X86709009Y-139726553D01*
X86751603Y-140025907D01*
X86851778Y-140311199D01*
X86931739Y-140460792D01*
X87185920Y-140544475D01*
X88070395Y-139660000D01*
X88429605Y-139660000D01*
X89314080Y-140544475D01*
X89568261Y-140460792D01*
X89699158Y-140188225D01*
X89774365Y-139895358D01*
X89790991Y-139593447D01*
X89748397Y-139294093D01*
X89648222Y-139008801D01*
X89568261Y-138859208D01*
X89314080Y-138775525D01*
X88429605Y-139660000D01*
X88070395Y-139660000D01*
X87185920Y-138775525D01*
X86931739Y-138859208D01*
X86800842Y-139131775D01*
X86725635Y-139424642D01*
X86709009Y-139726553D01*
X84364314Y-139726553D01*
X86725732Y-137365136D01*
X86773989Y-137607743D01*
X86889701Y-137887095D01*
X87057688Y-138138505D01*
X87271495Y-138352312D01*
X87414310Y-138447738D01*
X87365525Y-138595920D01*
X88250000Y-139480395D01*
X89134475Y-138595920D01*
X89085690Y-138447738D01*
X89228505Y-138352312D01*
X89442312Y-138138505D01*
X89610299Y-137887095D01*
X89726011Y-137607743D01*
X89785000Y-137311184D01*
X89785000Y-137008816D01*
X89726011Y-136712257D01*
X89610299Y-136432905D01*
X89442312Y-136181495D01*
X89228505Y-135967688D01*
X89142169Y-135910000D01*
X89228505Y-135852312D01*
X89442312Y-135638505D01*
X89610299Y-135387095D01*
X89726011Y-135107743D01*
X89785000Y-134811184D01*
X89785000Y-134508816D01*
X89726011Y-134212257D01*
X89610299Y-133932905D01*
X89442312Y-133681495D01*
X89228505Y-133467688D01*
X88977095Y-133299701D01*
X88697743Y-133183989D01*
X88401184Y-133125000D01*
X88098816Y-133125000D01*
X87802257Y-133183989D01*
X87522905Y-133299701D01*
X87271495Y-133467688D01*
X87057688Y-133681495D01*
X86889701Y-133932905D01*
X86773989Y-134212257D01*
X86715000Y-134508816D01*
X86715000Y-134811184D01*
X86748671Y-134980461D01*
X82242574Y-139486559D01*
X82210710Y-139512709D01*
X82184562Y-139544571D01*
X82106364Y-139639855D01*
X82028828Y-139784914D01*
X81981082Y-139942312D01*
X81964960Y-140106000D01*
X81969001Y-140147029D01*
X81969000Y-150461928D01*
X81504000Y-150461928D01*
X81379518Y-150474188D01*
X81259820Y-150510498D01*
X81149506Y-150569463D01*
X81052815Y-150648815D01*
X80973463Y-150745506D01*
X80914498Y-150855820D01*
X80878188Y-150975518D01*
X80865928Y-151100000D01*
X69660000Y-151100000D01*
X69660000Y-132500475D01*
X92615000Y-132500475D01*
X92615000Y-133019525D01*
X92716261Y-133528601D01*
X92914893Y-134008141D01*
X93203262Y-134439715D01*
X93570285Y-134806738D01*
X94001859Y-135095107D01*
X94481399Y-135293739D01*
X94990475Y-135395000D01*
X95509525Y-135395000D01*
X96018601Y-135293739D01*
X96498141Y-135095107D01*
X96929715Y-134806738D01*
X97296738Y-134439715D01*
X97585107Y-134008141D01*
X97783739Y-133528601D01*
X97885000Y-133019525D01*
X97885000Y-132500475D01*
X97783739Y-131991399D01*
X97585107Y-131511859D01*
X97296738Y-131080285D01*
X96929715Y-130713262D01*
X96498141Y-130424893D01*
X96018601Y-130226261D01*
X95509525Y-130125000D01*
X94990475Y-130125000D01*
X94481399Y-130226261D01*
X94001859Y-130424893D01*
X93570285Y-130713262D01*
X93203262Y-131080285D01*
X92914893Y-131511859D01*
X92716261Y-131991399D01*
X92615000Y-132500475D01*
X69660000Y-132500475D01*
X69660000Y-127356891D01*
X91268519Y-127356891D01*
X91365843Y-127631252D01*
X91514822Y-127881355D01*
X91709731Y-128097588D01*
X91943080Y-128271641D01*
X92205901Y-128396825D01*
X92353110Y-128441476D01*
X92583000Y-128320155D01*
X92583000Y-127127000D01*
X91389186Y-127127000D01*
X91268519Y-127356891D01*
X69660000Y-127356891D01*
X69660000Y-124032278D01*
X69684748Y-123779872D01*
X70765000Y-123779872D01*
X70765000Y-124220128D01*
X70850890Y-124651925D01*
X71019369Y-125058669D01*
X71263962Y-125424729D01*
X71575271Y-125736038D01*
X71941331Y-125980631D01*
X72348075Y-126149110D01*
X72779872Y-126235000D01*
X73220128Y-126235000D01*
X73651925Y-126149110D01*
X74058669Y-125980631D01*
X74424729Y-125736038D01*
X74736038Y-125424729D01*
X74980631Y-125058669D01*
X75149110Y-124651925D01*
X75235000Y-124220128D01*
X75235000Y-123779872D01*
X75149110Y-123348075D01*
X74980631Y-122941331D01*
X74736038Y-122575271D01*
X74424729Y-122263962D01*
X74058669Y-122019369D01*
X73651925Y-121850890D01*
X73220128Y-121765000D01*
X72779872Y-121765000D01*
X72348075Y-121850890D01*
X71941331Y-122019369D01*
X71575271Y-122263962D01*
X71263962Y-122575271D01*
X71019369Y-122941331D01*
X70850890Y-123348075D01*
X70765000Y-123779872D01*
X69684748Y-123779872D01*
X69726714Y-123351874D01*
X69914943Y-122728428D01*
X70220681Y-122153421D01*
X70632279Y-121648753D01*
X71134067Y-121233638D01*
X71706924Y-120923895D01*
X72329039Y-120731318D01*
X73007584Y-120660000D01*
X117967722Y-120660000D01*
X118648126Y-120726714D01*
%TA.AperFunction,Conductor*%
D21*
G36*
X118648126Y-120726714D02*
G01*
X119271572Y-120914943D01*
X119846579Y-121220681D01*
X120351247Y-121632279D01*
X120766362Y-122134067D01*
X121076105Y-122706924D01*
X121268682Y-123329039D01*
X121340001Y-124007594D01*
X121340000Y-153967721D01*
X121273286Y-154648126D01*
X121085057Y-155271570D01*
X120779323Y-155846573D01*
X120367721Y-156351248D01*
X119865933Y-156766362D01*
X119293077Y-157076104D01*
X118670961Y-157268682D01*
X117992417Y-157340000D01*
X73032279Y-157340000D01*
X72351874Y-157273286D01*
X71728430Y-157085057D01*
X71153427Y-156779323D01*
X70648752Y-156367721D01*
X70233638Y-155865933D01*
X69923896Y-155293077D01*
X69731318Y-154670961D01*
X69660000Y-153992417D01*
X69660000Y-153779872D01*
X70765000Y-153779872D01*
X70765000Y-154220128D01*
X70850890Y-154651925D01*
X71019369Y-155058669D01*
X71263962Y-155424729D01*
X71575271Y-155736038D01*
X71941331Y-155980631D01*
X72348075Y-156149110D01*
X72779872Y-156235000D01*
X73220128Y-156235000D01*
X73651925Y-156149110D01*
X74058669Y-155980631D01*
X74424729Y-155736038D01*
X74736038Y-155424729D01*
X74980631Y-155058669D01*
X75149110Y-154651925D01*
X75235000Y-154220128D01*
X75235000Y-153779872D01*
X75149110Y-153348075D01*
X74980631Y-152941331D01*
X74736038Y-152575271D01*
X74424729Y-152263962D01*
X74058669Y-152019369D01*
X73651925Y-151850890D01*
X73220128Y-151765000D01*
X72779872Y-151765000D01*
X72348075Y-151850890D01*
X71941331Y-152019369D01*
X71575271Y-152263962D01*
X71263962Y-152575271D01*
X71019369Y-152941331D01*
X70850890Y-153348075D01*
X70765000Y-153779872D01*
X69660000Y-153779872D01*
X69660000Y-151100000D01*
X80865928Y-151100000D01*
X80865928Y-153700000D01*
X80878188Y-153824482D01*
X80914498Y-153944180D01*
X80973463Y-154054494D01*
X81052815Y-154151185D01*
X81149506Y-154230537D01*
X81259820Y-154289502D01*
X81379518Y-154325812D01*
X81504000Y-154338072D01*
X84104000Y-154338072D01*
X84228482Y-154325812D01*
X84348180Y-154289502D01*
X84458494Y-154230537D01*
X84555185Y-154151185D01*
X84634537Y-154054494D01*
X84693502Y-153944180D01*
X84729812Y-153824482D01*
X84737224Y-153749224D01*
X86634381Y-153749224D01*
X86766317Y-154044312D01*
X87107045Y-154215159D01*
X87474557Y-154316250D01*
X87854729Y-154343701D01*
X88232951Y-154296457D01*
X88594690Y-154176333D01*
X88841683Y-154044312D01*
X88973619Y-153749224D01*
X87804000Y-152579605D01*
X86634381Y-153749224D01*
X84737224Y-153749224D01*
X84742072Y-153700000D01*
X84742072Y-152450729D01*
X85860299Y-152450729D01*
X85907543Y-152828951D01*
X86027667Y-153190690D01*
X86159688Y-153437683D01*
X86454776Y-153569619D01*
X87624395Y-152400000D01*
X87983605Y-152400000D01*
X89153224Y-153569619D01*
X89448312Y-153437683D01*
X89619159Y-153096955D01*
X89720250Y-152729443D01*
X89747701Y-152349271D01*
X89730232Y-152209419D01*
X90869000Y-152209419D01*
X90869000Y-152590581D01*
X90943361Y-152964419D01*
X91089225Y-153316566D01*
X91300987Y-153633491D01*
X91570509Y-153903013D01*
X91887434Y-154114775D01*
X92239581Y-154260639D01*
X92613419Y-154335000D01*
X92994581Y-154335000D01*
X93368419Y-154260639D01*
X93720566Y-154114775D01*
X94037491Y-153903013D01*
X94307013Y-153633491D01*
X94518775Y-153316566D01*
X94664639Y-152964419D01*
X94739000Y-152590581D01*
X94739000Y-152209419D01*
X95869000Y-152209419D01*
X95869000Y-152590581D01*
X95943361Y-152964419D01*
X96089225Y-153316566D01*
X96300987Y-153633491D01*
X96570509Y-153903013D01*
X96887434Y-154114775D01*
X97239581Y-154260639D01*
X97613419Y-154335000D01*
X97994581Y-154335000D01*
X98368419Y-154260639D01*
X98720566Y-154114775D01*
X99037491Y-153903013D01*
X99307013Y-153633491D01*
X99518775Y-153316566D01*
X99664639Y-152964419D01*
X99739000Y-152590581D01*
X99739000Y-152209419D01*
X100869000Y-152209419D01*
X100869000Y-152590581D01*
X100943361Y-152964419D01*
X101089225Y-153316566D01*
X101300987Y-153633491D01*
X101570509Y-153903013D01*
X101887434Y-154114775D01*
X102239581Y-154260639D01*
X102613419Y-154335000D01*
X102994581Y-154335000D01*
X103368419Y-154260639D01*
X103720566Y-154114775D01*
X104037491Y-153903013D01*
X104307013Y-153633491D01*
X104518775Y-153316566D01*
X104664639Y-152964419D01*
X104739000Y-152590581D01*
X104739000Y-152209419D01*
X105869000Y-152209419D01*
X105869000Y-152590581D01*
X105943361Y-152964419D01*
X106089225Y-153316566D01*
X106300987Y-153633491D01*
X106570509Y-153903013D01*
X106887434Y-154114775D01*
X107239581Y-154260639D01*
X107613419Y-154335000D01*
X107994581Y-154335000D01*
X108368419Y-154260639D01*
X108720566Y-154114775D01*
X109037491Y-153903013D01*
X109160632Y-153779872D01*
X115765000Y-153779872D01*
X115765000Y-154220128D01*
X115850890Y-154651925D01*
X116019369Y-155058669D01*
X116263962Y-155424729D01*
X116575271Y-155736038D01*
X116941331Y-155980631D01*
X117348075Y-156149110D01*
X117779872Y-156235000D01*
X118220128Y-156235000D01*
X118651925Y-156149110D01*
X119058669Y-155980631D01*
X119424729Y-155736038D01*
X119736038Y-155424729D01*
X119980631Y-155058669D01*
X120149110Y-154651925D01*
X120235000Y-154220128D01*
X120235000Y-153779872D01*
X120149110Y-153348075D01*
X119980631Y-152941331D01*
X119736038Y-152575271D01*
X119424729Y-152263962D01*
X119058669Y-152019369D01*
X118651925Y-151850890D01*
X118220128Y-151765000D01*
X117779872Y-151765000D01*
X117348075Y-151850890D01*
X116941331Y-152019369D01*
X116575271Y-152263962D01*
X116263962Y-152575271D01*
X116019369Y-152941331D01*
X115850890Y-153348075D01*
X115765000Y-153779872D01*
X109160632Y-153779872D01*
X109307013Y-153633491D01*
X109518775Y-153316566D01*
X109664639Y-152964419D01*
X109739000Y-152590581D01*
X109739000Y-152209419D01*
X109664639Y-151835581D01*
X109518775Y-151483434D01*
X109307013Y-151166509D01*
X109037491Y-150896987D01*
X108720566Y-150685225D01*
X108368419Y-150539361D01*
X107994581Y-150465000D01*
X107613419Y-150465000D01*
X107239581Y-150539361D01*
X106887434Y-150685225D01*
X106570509Y-150896987D01*
X106300987Y-151166509D01*
X106089225Y-151483434D01*
X105943361Y-151835581D01*
X105869000Y-152209419D01*
X104739000Y-152209419D01*
X104664639Y-151835581D01*
X104518775Y-151483434D01*
X104307013Y-151166509D01*
X104037491Y-150896987D01*
X103720566Y-150685225D01*
X103368419Y-150539361D01*
X102994581Y-150465000D01*
X102613419Y-150465000D01*
X102239581Y-150539361D01*
X101887434Y-150685225D01*
X101570509Y-150896987D01*
X101300987Y-151166509D01*
X101089225Y-151483434D01*
X100943361Y-151835581D01*
X100869000Y-152209419D01*
X99739000Y-152209419D01*
X99664639Y-151835581D01*
X99518775Y-151483434D01*
X99307013Y-151166509D01*
X99037491Y-150896987D01*
X98720566Y-150685225D01*
X98368419Y-150539361D01*
X97994581Y-150465000D01*
X97613419Y-150465000D01*
X97239581Y-150539361D01*
X96887434Y-150685225D01*
X96570509Y-150896987D01*
X96300987Y-151166509D01*
X96089225Y-151483434D01*
X95943361Y-151835581D01*
X95869000Y-152209419D01*
X94739000Y-152209419D01*
X94664639Y-151835581D01*
X94518775Y-151483434D01*
X94307013Y-151166509D01*
X94037491Y-150896987D01*
X93720566Y-150685225D01*
X93368419Y-150539361D01*
X92994581Y-150465000D01*
X92613419Y-150465000D01*
X92239581Y-150539361D01*
X91887434Y-150685225D01*
X91570509Y-150896987D01*
X91300987Y-151166509D01*
X91089225Y-151483434D01*
X90943361Y-151835581D01*
X90869000Y-152209419D01*
X89730232Y-152209419D01*
X89700457Y-151971049D01*
X89580333Y-151609310D01*
X89448312Y-151362317D01*
X89153224Y-151230381D01*
X87983605Y-152400000D01*
X87624395Y-152400000D01*
X86454776Y-151230381D01*
X86159688Y-151362317D01*
X85988841Y-151703045D01*
X85887750Y-152070557D01*
X85860299Y-152450729D01*
X84742072Y-152450729D01*
X84742072Y-151642795D01*
X85334091Y-151050776D01*
X86634381Y-151050776D01*
X87804000Y-152220395D01*
X88973619Y-151050776D01*
X88841683Y-150755688D01*
X88500955Y-150584841D01*
X88133443Y-150483750D01*
X87753271Y-150456299D01*
X87375049Y-150503543D01*
X87013310Y-150623667D01*
X86766317Y-150755688D01*
X86634381Y-151050776D01*
X85334091Y-151050776D01*
X89499868Y-146885000D01*
X100288982Y-146885000D01*
X100330000Y-146889040D01*
X100371019Y-146885000D01*
X107781982Y-146885000D01*
X107823000Y-146889040D01*
X107864018Y-146885000D01*
X107864019Y-146885000D01*
X107986689Y-146872918D01*
X108144087Y-146825172D01*
X108289146Y-146747636D01*
X108416291Y-146643291D01*
X108442446Y-146611421D01*
X109654426Y-145399442D01*
X109686291Y-145373291D01*
X109790636Y-145246146D01*
X109868172Y-145101087D01*
X109915918Y-144943689D01*
X109928000Y-144821019D01*
X109928000Y-144821017D01*
X109932040Y-144780001D01*
X109928000Y-144738985D01*
X109928000Y-143010132D01*
X109974612Y-142963520D01*
X110098824Y-142777624D01*
X110184383Y-142571067D01*
X110228000Y-142351788D01*
X110228000Y-142128212D01*
X110184383Y-141908933D01*
X110098824Y-141702376D01*
X109974612Y-141516480D01*
X109816520Y-141358388D01*
X109630624Y-141234176D01*
X109424067Y-141148617D01*
X109204788Y-141105000D01*
X108981212Y-141105000D01*
X108761933Y-141148617D01*
X108564000Y-141230604D01*
X108564000Y-129431323D01*
X108567676Y-129394000D01*
X108564000Y-129356677D01*
X108564000Y-129356667D01*
X108553003Y-129245014D01*
X108509546Y-129101753D01*
X108494634Y-129073855D01*
X108438974Y-128969723D01*
X108367799Y-128882997D01*
X108344001Y-128853999D01*
X108315003Y-128830201D01*
X103264674Y-123779872D01*
X115765000Y-123779872D01*
X115765000Y-124220128D01*
X115850890Y-124651925D01*
X116019369Y-125058669D01*
X116263962Y-125424729D01*
X116575271Y-125736038D01*
X116941331Y-125980631D01*
X117348075Y-126149110D01*
X117779872Y-126235000D01*
X118220128Y-126235000D01*
X118651925Y-126149110D01*
X119058669Y-125980631D01*
X119424729Y-125736038D01*
X119736038Y-125424729D01*
X119980631Y-125058669D01*
X120149110Y-124651925D01*
X120235000Y-124220128D01*
X120235000Y-123779872D01*
X120149110Y-123348075D01*
X119980631Y-122941331D01*
X119736038Y-122575271D01*
X119424729Y-122263962D01*
X119058669Y-122019369D01*
X118651925Y-121850890D01*
X118220128Y-121765000D01*
X117779872Y-121765000D01*
X117348075Y-121850890D01*
X116941331Y-122019369D01*
X116575271Y-122263962D01*
X116263962Y-122575271D01*
X116019369Y-122941331D01*
X115850890Y-123348075D01*
X115765000Y-123779872D01*
X103264674Y-123779872D01*
X102163804Y-122679003D01*
X102140001Y-122649999D01*
X102024276Y-122555026D01*
X101892247Y-122484454D01*
X101748986Y-122440997D01*
X101637333Y-122430000D01*
X101637322Y-122430000D01*
X101600000Y-122426324D01*
X101562678Y-122430000D01*
X96557322Y-122430000D01*
X96519999Y-122426324D01*
X96482676Y-122430000D01*
X96482667Y-122430000D01*
X96371014Y-122440997D01*
X96227753Y-122484454D01*
X96095724Y-122555026D01*
X95979999Y-122649999D01*
X95956201Y-122678997D01*
X95616408Y-123018790D01*
X95396260Y-122975000D01*
X95103740Y-122975000D01*
X94816842Y-123032068D01*
X94546589Y-123144010D01*
X94303368Y-123306525D01*
X94096525Y-123513368D01*
X93980000Y-123687760D01*
X93863475Y-123513368D01*
X93656632Y-123306525D01*
X93413411Y-123144010D01*
X93143158Y-123032068D01*
X92856260Y-122975000D01*
X92563740Y-122975000D01*
X92276842Y-123032068D01*
X92006589Y-123144010D01*
X91763368Y-123306525D01*
X91556525Y-123513368D01*
X91394010Y-123756589D01*
X91282068Y-124026842D01*
X91225000Y-124313740D01*
X91225000Y-124606260D01*
X91282068Y-124893158D01*
X91394010Y-125163411D01*
X91556525Y-125406632D01*
X91763368Y-125613475D01*
X91939406Y-125731100D01*
X91709731Y-125902412D01*
X91514822Y-126118645D01*
X91365843Y-126368748D01*
X91268519Y-126643109D01*
X91389186Y-126873000D01*
X92583000Y-126873000D01*
X92583000Y-126853000D01*
X92837000Y-126853000D01*
X92837000Y-126873000D01*
X92857000Y-126873000D01*
X92857000Y-127127000D01*
X92837000Y-127127000D01*
X92837000Y-128320155D01*
X93066890Y-128441476D01*
X93214099Y-128396825D01*
X93476920Y-128271641D01*
X93710269Y-128097588D01*
X93905178Y-127881355D01*
X93974805Y-127764466D01*
X94096525Y-127946632D01*
X94303368Y-128153475D01*
X94546589Y-128315990D01*
X94816842Y-128427932D01*
X95103740Y-128485000D01*
X95396260Y-128485000D01*
X95683158Y-128427932D01*
X95953411Y-128315990D01*
X96196632Y-128153475D01*
X96403475Y-127946632D01*
X96520000Y-127772240D01*
X96636525Y-127946632D01*
X96843368Y-128153475D01*
X97086589Y-128315990D01*
X97356842Y-128427932D01*
X97643740Y-128485000D01*
X97936260Y-128485000D01*
X98067940Y-128458807D01*
X99495000Y-129885868D01*
X99495001Y-145215000D01*
X89195018Y-145215000D01*
X89153999Y-145210960D01*
X89112981Y-145215000D01*
X88990311Y-145227082D01*
X88832913Y-145274828D01*
X88687854Y-145352364D01*
X88560709Y-145456709D01*
X88534561Y-145488571D01*
X83639000Y-150384133D01*
X83639000Y-141300475D01*
X92615000Y-141300475D01*
X92615000Y-141819525D01*
X92716261Y-142328601D01*
X92914893Y-142808141D01*
X93203262Y-143239715D01*
X93570285Y-143606738D01*
X94001859Y-143895107D01*
X94481399Y-144093739D01*
X94990475Y-144195000D01*
X95509525Y-144195000D01*
X96018601Y-144093739D01*
X96498141Y-143895107D01*
X96929715Y-143606738D01*
X97296738Y-143239715D01*
X97585107Y-142808141D01*
X97783739Y-142328601D01*
X97885000Y-141819525D01*
X97885000Y-141300475D01*
X97783739Y-140791399D01*
X97585107Y-140311859D01*
X97296738Y-139880285D01*
X96929715Y-139513262D01*
X96498141Y-139224893D01*
X96018601Y-139026261D01*
X95509525Y-138925000D01*
X94990475Y-138925000D01*
X94481399Y-139026261D01*
X94001859Y-139224893D01*
X93570285Y-139513262D01*
X93203262Y-139880285D01*
X92914893Y-140311859D01*
X92716261Y-140791399D01*
X92615000Y-141300475D01*
X83639000Y-141300475D01*
X83639000Y-140724080D01*
X87365525Y-140724080D01*
X87449208Y-140978261D01*
X87721775Y-141109158D01*
X88014642Y-141184365D01*
X88316553Y-141200991D01*
X88615907Y-141158397D01*
X88901199Y-141058222D01*
X89050792Y-140978261D01*
X89134475Y-140724080D01*
X88250000Y-139839605D01*
X87365525Y-140724080D01*
X83639000Y-140724080D01*
X83639000Y-140451867D01*
X84364314Y-139726553D01*
X86709009Y-139726553D01*
X86751603Y-140025907D01*
X86851778Y-140311199D01*
X86931739Y-140460792D01*
X87185920Y-140544475D01*
X88070395Y-139660000D01*
X88429605Y-139660000D01*
X89314080Y-140544475D01*
X89568261Y-140460792D01*
X89699158Y-140188225D01*
X89774365Y-139895358D01*
X89790991Y-139593447D01*
X89748397Y-139294093D01*
X89648222Y-139008801D01*
X89568261Y-138859208D01*
X89314080Y-138775525D01*
X88429605Y-139660000D01*
X88070395Y-139660000D01*
X87185920Y-138775525D01*
X86931739Y-138859208D01*
X86800842Y-139131775D01*
X86725635Y-139424642D01*
X86709009Y-139726553D01*
X84364314Y-139726553D01*
X86725732Y-137365136D01*
X86773989Y-137607743D01*
X86889701Y-137887095D01*
X87057688Y-138138505D01*
X87271495Y-138352312D01*
X87414310Y-138447738D01*
X87365525Y-138595920D01*
X88250000Y-139480395D01*
X89134475Y-138595920D01*
X89085690Y-138447738D01*
X89228505Y-138352312D01*
X89442312Y-138138505D01*
X89610299Y-137887095D01*
X89726011Y-137607743D01*
X89785000Y-137311184D01*
X89785000Y-137008816D01*
X89726011Y-136712257D01*
X89610299Y-136432905D01*
X89442312Y-136181495D01*
X89228505Y-135967688D01*
X89142169Y-135910000D01*
X89228505Y-135852312D01*
X89442312Y-135638505D01*
X89610299Y-135387095D01*
X89726011Y-135107743D01*
X89785000Y-134811184D01*
X89785000Y-134508816D01*
X89726011Y-134212257D01*
X89610299Y-133932905D01*
X89442312Y-133681495D01*
X89228505Y-133467688D01*
X88977095Y-133299701D01*
X88697743Y-133183989D01*
X88401184Y-133125000D01*
X88098816Y-133125000D01*
X87802257Y-133183989D01*
X87522905Y-133299701D01*
X87271495Y-133467688D01*
X87057688Y-133681495D01*
X86889701Y-133932905D01*
X86773989Y-134212257D01*
X86715000Y-134508816D01*
X86715000Y-134811184D01*
X86748671Y-134980461D01*
X82242574Y-139486559D01*
X82210710Y-139512709D01*
X82184562Y-139544571D01*
X82106364Y-139639855D01*
X82028828Y-139784914D01*
X81981082Y-139942312D01*
X81964960Y-140106000D01*
X81969001Y-140147029D01*
X81969000Y-150461928D01*
X81504000Y-150461928D01*
X81379518Y-150474188D01*
X81259820Y-150510498D01*
X81149506Y-150569463D01*
X81052815Y-150648815D01*
X80973463Y-150745506D01*
X80914498Y-150855820D01*
X80878188Y-150975518D01*
X80865928Y-151100000D01*
X69660000Y-151100000D01*
X69660000Y-132500475D01*
X92615000Y-132500475D01*
X92615000Y-133019525D01*
X92716261Y-133528601D01*
X92914893Y-134008141D01*
X93203262Y-134439715D01*
X93570285Y-134806738D01*
X94001859Y-135095107D01*
X94481399Y-135293739D01*
X94990475Y-135395000D01*
X95509525Y-135395000D01*
X96018601Y-135293739D01*
X96498141Y-135095107D01*
X96929715Y-134806738D01*
X97296738Y-134439715D01*
X97585107Y-134008141D01*
X97783739Y-133528601D01*
X97885000Y-133019525D01*
X97885000Y-132500475D01*
X97783739Y-131991399D01*
X97585107Y-131511859D01*
X97296738Y-131080285D01*
X96929715Y-130713262D01*
X96498141Y-130424893D01*
X96018601Y-130226261D01*
X95509525Y-130125000D01*
X94990475Y-130125000D01*
X94481399Y-130226261D01*
X94001859Y-130424893D01*
X93570285Y-130713262D01*
X93203262Y-131080285D01*
X92914893Y-131511859D01*
X92716261Y-131991399D01*
X92615000Y-132500475D01*
X69660000Y-132500475D01*
X69660000Y-127356891D01*
X91268519Y-127356891D01*
X91365843Y-127631252D01*
X91514822Y-127881355D01*
X91709731Y-128097588D01*
X91943080Y-128271641D01*
X92205901Y-128396825D01*
X92353110Y-128441476D01*
X92583000Y-128320155D01*
X92583000Y-127127000D01*
X91389186Y-127127000D01*
X91268519Y-127356891D01*
X69660000Y-127356891D01*
X69660000Y-124032278D01*
X69684748Y-123779872D01*
X70765000Y-123779872D01*
X70765000Y-124220128D01*
X70850890Y-124651925D01*
X71019369Y-125058669D01*
X71263962Y-125424729D01*
X71575271Y-125736038D01*
X71941331Y-125980631D01*
X72348075Y-126149110D01*
X72779872Y-126235000D01*
X73220128Y-126235000D01*
X73651925Y-126149110D01*
X74058669Y-125980631D01*
X74424729Y-125736038D01*
X74736038Y-125424729D01*
X74980631Y-125058669D01*
X75149110Y-124651925D01*
X75235000Y-124220128D01*
X75235000Y-123779872D01*
X75149110Y-123348075D01*
X74980631Y-122941331D01*
X74736038Y-122575271D01*
X74424729Y-122263962D01*
X74058669Y-122019369D01*
X73651925Y-121850890D01*
X73220128Y-121765000D01*
X72779872Y-121765000D01*
X72348075Y-121850890D01*
X71941331Y-122019369D01*
X71575271Y-122263962D01*
X71263962Y-122575271D01*
X71019369Y-122941331D01*
X70850890Y-123348075D01*
X70765000Y-123779872D01*
X69684748Y-123779872D01*
X69726714Y-123351874D01*
X69914943Y-122728428D01*
X70220681Y-122153421D01*
X70632279Y-121648753D01*
X71134067Y-121233638D01*
X71706924Y-120923895D01*
X72329039Y-120731318D01*
X73007584Y-120660000D01*
X117967722Y-120660000D01*
X118648126Y-120726714D01*
G37*
%TD.AperFunction*%
%TD*%
M02*
