%TF.GenerationSoftware,KiCad,Pcbnew,5.1.9-73d0e3b20d~88~ubuntu20.04.1*%
%TF.CreationDate,2021-04-09T22:55:46+02:00*%
%TF.ProjectId,hardware,68617264-7761-4726-952e-6b696361645f,rev?*%
%TF.SameCoordinates,Original*%
%TF.FileFunction,Legend,Top*%
%TF.FilePolarity,Positive*%
%FSLAX46Y46*%
G04 Gerber Fmt 4.6, Leading zero omitted, Abs format (unit mm)*
G04 Created by KiCad (PCBNEW 5.1.9-73d0e3b20d~88~ubuntu20.04.1) date 2021-04-09 22:55:46*
%MOMM*%
%LPD*%
G01*
G04 APERTURE LIST*
%ADD10C,0.150000*%
%ADD11C,0.010000*%
%ADD12C,0.120000*%
%ADD13R,2.600000X2.600000*%
%ADD14C,2.600000*%
%ADD15R,1.700000X1.700000*%
%ADD16O,1.700000X1.700000*%
%ADD17C,4.000000*%
%ADD18C,1.800000*%
%ADD19C,3.200000*%
G04 APERTURE END LIST*
D10*
X118372619Y-133571428D02*
X119372619Y-133571428D01*
X119372619Y-133952380D01*
X119325000Y-134047619D01*
X119277380Y-134095238D01*
X119182142Y-134142857D01*
X119039285Y-134142857D01*
X118944047Y-134095238D01*
X118896428Y-134047619D01*
X118848809Y-133952380D01*
X118848809Y-133571428D01*
X119372619Y-134476190D02*
X118372619Y-134714285D01*
X119086904Y-134904761D01*
X118372619Y-135095238D01*
X119372619Y-135333333D01*
X118372619Y-135714285D02*
X119372619Y-135714285D01*
X118658333Y-136047619D01*
X119372619Y-136380952D01*
X118372619Y-136380952D01*
X118420238Y-138047619D02*
X118372619Y-137952380D01*
X118372619Y-137761904D01*
X118420238Y-137666666D01*
X118467857Y-137619047D01*
X118563095Y-137571428D01*
X118848809Y-137571428D01*
X118944047Y-137619047D01*
X118991666Y-137666666D01*
X119039285Y-137761904D01*
X119039285Y-137952380D01*
X118991666Y-138047619D01*
X118372619Y-138619047D02*
X118420238Y-138523809D01*
X118467857Y-138476190D01*
X118563095Y-138428571D01*
X118848809Y-138428571D01*
X118944047Y-138476190D01*
X118991666Y-138523809D01*
X119039285Y-138619047D01*
X119039285Y-138761904D01*
X118991666Y-138857142D01*
X118944047Y-138904761D01*
X118848809Y-138952380D01*
X118563095Y-138952380D01*
X118467857Y-138904761D01*
X118420238Y-138857142D01*
X118372619Y-138761904D01*
X118372619Y-138619047D01*
X119039285Y-139380952D02*
X118372619Y-139380952D01*
X118944047Y-139380952D02*
X118991666Y-139428571D01*
X119039285Y-139523809D01*
X119039285Y-139666666D01*
X118991666Y-139761904D01*
X118896428Y-139809523D01*
X118372619Y-139809523D01*
X119039285Y-140142857D02*
X119039285Y-140523809D01*
X119372619Y-140285714D02*
X118515476Y-140285714D01*
X118420238Y-140333333D01*
X118372619Y-140428571D01*
X118372619Y-140523809D01*
X118372619Y-140857142D02*
X119039285Y-140857142D01*
X118848809Y-140857142D02*
X118944047Y-140904761D01*
X118991666Y-140952380D01*
X119039285Y-141047619D01*
X119039285Y-141142857D01*
X118372619Y-141619047D02*
X118420238Y-141523809D01*
X118467857Y-141476190D01*
X118563095Y-141428571D01*
X118848809Y-141428571D01*
X118944047Y-141476190D01*
X118991666Y-141523809D01*
X119039285Y-141619047D01*
X119039285Y-141761904D01*
X118991666Y-141857142D01*
X118944047Y-141904761D01*
X118848809Y-141952380D01*
X118563095Y-141952380D01*
X118467857Y-141904761D01*
X118420238Y-141857142D01*
X118372619Y-141761904D01*
X118372619Y-141619047D01*
X118372619Y-142523809D02*
X118420238Y-142428571D01*
X118515476Y-142380952D01*
X119372619Y-142380952D01*
X118372619Y-143047619D02*
X118420238Y-142952380D01*
X118515476Y-142904761D01*
X119372619Y-142904761D01*
X118420238Y-143809523D02*
X118372619Y-143714285D01*
X118372619Y-143523809D01*
X118420238Y-143428571D01*
X118515476Y-143380952D01*
X118896428Y-143380952D01*
X118991666Y-143428571D01*
X119039285Y-143523809D01*
X119039285Y-143714285D01*
X118991666Y-143809523D01*
X118896428Y-143857142D01*
X118801190Y-143857142D01*
X118705952Y-143380952D01*
X118372619Y-144285714D02*
X119039285Y-144285714D01*
X118848809Y-144285714D02*
X118944047Y-144333333D01*
X118991666Y-144380952D01*
X119039285Y-144476190D01*
X119039285Y-144571428D01*
X116722619Y-135904761D02*
X117722619Y-135904761D01*
X117008333Y-136238095D01*
X117722619Y-136571428D01*
X116722619Y-136571428D01*
X117722619Y-136952380D02*
X117722619Y-137619047D01*
X116722619Y-136952380D01*
X116722619Y-137619047D01*
X117627380Y-138714285D02*
X117675000Y-138761904D01*
X117722619Y-138857142D01*
X117722619Y-139095238D01*
X117675000Y-139190476D01*
X117627380Y-139238095D01*
X117532142Y-139285714D01*
X117436904Y-139285714D01*
X117294047Y-139238095D01*
X116722619Y-138666666D01*
X116722619Y-139285714D01*
X117722619Y-139904761D02*
X117722619Y-140000000D01*
X117675000Y-140095238D01*
X117627380Y-140142857D01*
X117532142Y-140190476D01*
X117341666Y-140238095D01*
X117103571Y-140238095D01*
X116913095Y-140190476D01*
X116817857Y-140142857D01*
X116770238Y-140095238D01*
X116722619Y-140000000D01*
X116722619Y-139904761D01*
X116770238Y-139809523D01*
X116817857Y-139761904D01*
X116913095Y-139714285D01*
X117103571Y-139666666D01*
X117341666Y-139666666D01*
X117532142Y-139714285D01*
X117627380Y-139761904D01*
X117675000Y-139809523D01*
X117722619Y-139904761D01*
X117627380Y-140619047D02*
X117675000Y-140666666D01*
X117722619Y-140761904D01*
X117722619Y-141000000D01*
X117675000Y-141095238D01*
X117627380Y-141142857D01*
X117532142Y-141190476D01*
X117436904Y-141190476D01*
X117294047Y-141142857D01*
X116722619Y-140571428D01*
X116722619Y-141190476D01*
X116722619Y-142142857D02*
X116722619Y-141571428D01*
X116722619Y-141857142D02*
X117722619Y-141857142D01*
X117579761Y-141761904D01*
X117484523Y-141666666D01*
X117436904Y-141571428D01*
X73071428Y-131333333D02*
X73023809Y-131476190D01*
X72976190Y-131523809D01*
X72880952Y-131571428D01*
X72738095Y-131571428D01*
X72642857Y-131523809D01*
X72595238Y-131476190D01*
X72547619Y-131380952D01*
X72547619Y-131000000D01*
X73547619Y-131000000D01*
X73547619Y-131333333D01*
X73500000Y-131428571D01*
X73452380Y-131476190D01*
X73357142Y-131523809D01*
X73261904Y-131523809D01*
X73166666Y-131476190D01*
X73119047Y-131428571D01*
X73071428Y-131333333D01*
X73071428Y-131000000D01*
X72547619Y-132000000D02*
X73547619Y-132000000D01*
X72833333Y-132333333D01*
X73547619Y-132666666D01*
X72547619Y-132666666D01*
X73071428Y-133142857D02*
X73071428Y-133476190D01*
X72547619Y-133619047D02*
X72547619Y-133142857D01*
X73547619Y-133142857D01*
X73547619Y-133619047D01*
X72595238Y-134761904D02*
X72547619Y-134904761D01*
X72547619Y-135142857D01*
X72595238Y-135238095D01*
X72642857Y-135285714D01*
X72738095Y-135333333D01*
X72833333Y-135333333D01*
X72928571Y-135285714D01*
X72976190Y-135238095D01*
X73023809Y-135142857D01*
X73071428Y-134952380D01*
X73119047Y-134857142D01*
X73166666Y-134809523D01*
X73261904Y-134761904D01*
X73357142Y-134761904D01*
X73452380Y-134809523D01*
X73500000Y-134857142D01*
X73547619Y-134952380D01*
X73547619Y-135190476D01*
X73500000Y-135333333D01*
X72547619Y-135904761D02*
X72595238Y-135809523D01*
X72642857Y-135761904D01*
X72738095Y-135714285D01*
X73023809Y-135714285D01*
X73119047Y-135761904D01*
X73166666Y-135809523D01*
X73214285Y-135904761D01*
X73214285Y-136047619D01*
X73166666Y-136142857D01*
X73119047Y-136190476D01*
X73023809Y-136238095D01*
X72738095Y-136238095D01*
X72642857Y-136190476D01*
X72595238Y-136142857D01*
X72547619Y-136047619D01*
X72547619Y-135904761D01*
X72547619Y-136809523D02*
X72595238Y-136714285D01*
X72690476Y-136666666D01*
X73547619Y-136666666D01*
X72547619Y-137619047D02*
X73071428Y-137619047D01*
X73166666Y-137571428D01*
X73214285Y-137476190D01*
X73214285Y-137285714D01*
X73166666Y-137190476D01*
X72595238Y-137619047D02*
X72547619Y-137523809D01*
X72547619Y-137285714D01*
X72595238Y-137190476D01*
X72690476Y-137142857D01*
X72785714Y-137142857D01*
X72880952Y-137190476D01*
X72928571Y-137285714D01*
X72928571Y-137523809D01*
X72976190Y-137619047D01*
X72547619Y-138095238D02*
X73214285Y-138095238D01*
X73023809Y-138095238D02*
X73119047Y-138142857D01*
X73166666Y-138190476D01*
X73214285Y-138285714D01*
X73214285Y-138380952D01*
X73071428Y-139809523D02*
X73023809Y-139952380D01*
X72976190Y-140000000D01*
X72880952Y-140047619D01*
X72738095Y-140047619D01*
X72642857Y-140000000D01*
X72595238Y-139952380D01*
X72547619Y-139857142D01*
X72547619Y-139476190D01*
X73547619Y-139476190D01*
X73547619Y-139809523D01*
X73500000Y-139904761D01*
X73452380Y-139952380D01*
X73357142Y-140000000D01*
X73261904Y-140000000D01*
X73166666Y-139952380D01*
X73119047Y-139904761D01*
X73071428Y-139809523D01*
X73071428Y-139476190D01*
X72547619Y-140619047D02*
X72595238Y-140523809D01*
X72642857Y-140476190D01*
X72738095Y-140428571D01*
X73023809Y-140428571D01*
X73119047Y-140476190D01*
X73166666Y-140523809D01*
X73214285Y-140619047D01*
X73214285Y-140761904D01*
X73166666Y-140857142D01*
X73119047Y-140904761D01*
X73023809Y-140952380D01*
X72738095Y-140952380D01*
X72642857Y-140904761D01*
X72595238Y-140857142D01*
X72547619Y-140761904D01*
X72547619Y-140619047D01*
X72547619Y-141809523D02*
X73071428Y-141809523D01*
X73166666Y-141761904D01*
X73214285Y-141666666D01*
X73214285Y-141476190D01*
X73166666Y-141380952D01*
X72595238Y-141809523D02*
X72547619Y-141714285D01*
X72547619Y-141476190D01*
X72595238Y-141380952D01*
X72690476Y-141333333D01*
X72785714Y-141333333D01*
X72880952Y-141380952D01*
X72928571Y-141476190D01*
X72928571Y-141714285D01*
X72976190Y-141809523D01*
X73214285Y-142142857D02*
X73214285Y-142523809D01*
X73547619Y-142285714D02*
X72690476Y-142285714D01*
X72595238Y-142333333D01*
X72547619Y-142428571D01*
X72547619Y-142523809D01*
X73547619Y-143476190D02*
X73547619Y-144047619D01*
X72547619Y-143761904D02*
X73547619Y-143761904D01*
X72595238Y-144761904D02*
X72547619Y-144666666D01*
X72547619Y-144476190D01*
X72595238Y-144380952D01*
X72690476Y-144333333D01*
X73071428Y-144333333D01*
X73166666Y-144380952D01*
X73214285Y-144476190D01*
X73214285Y-144666666D01*
X73166666Y-144761904D01*
X73071428Y-144809523D01*
X72976190Y-144809523D01*
X72880952Y-144333333D01*
X72547619Y-145666666D02*
X73071428Y-145666666D01*
X73166666Y-145619047D01*
X73214285Y-145523809D01*
X73214285Y-145333333D01*
X73166666Y-145238095D01*
X72595238Y-145666666D02*
X72547619Y-145571428D01*
X72547619Y-145333333D01*
X72595238Y-145238095D01*
X72690476Y-145190476D01*
X72785714Y-145190476D01*
X72880952Y-145238095D01*
X72928571Y-145333333D01*
X72928571Y-145571428D01*
X72976190Y-145666666D01*
X72547619Y-146142857D02*
X73214285Y-146142857D01*
X73119047Y-146142857D02*
X73166666Y-146190476D01*
X73214285Y-146285714D01*
X73214285Y-146428571D01*
X73166666Y-146523809D01*
X73071428Y-146571428D01*
X72547619Y-146571428D01*
X73071428Y-146571428D02*
X73166666Y-146619047D01*
X73214285Y-146714285D01*
X73214285Y-146857142D01*
X73166666Y-146952380D01*
X73071428Y-147000000D01*
X72547619Y-147000000D01*
X106584904Y-146502380D02*
X106584904Y-145502380D01*
X106965857Y-145502380D01*
X107061095Y-145550000D01*
X107108714Y-145597619D01*
X107156333Y-145692857D01*
X107156333Y-145835714D01*
X107108714Y-145930952D01*
X107061095Y-145978571D01*
X106965857Y-146026190D01*
X106584904Y-146026190D01*
X107918238Y-145978571D02*
X108061095Y-146026190D01*
X108108714Y-146073809D01*
X108156333Y-146169047D01*
X108156333Y-146311904D01*
X108108714Y-146407142D01*
X108061095Y-146454761D01*
X107965857Y-146502380D01*
X107584904Y-146502380D01*
X107584904Y-145502380D01*
X107918238Y-145502380D01*
X108013476Y-145550000D01*
X108061095Y-145597619D01*
X108108714Y-145692857D01*
X108108714Y-145788095D01*
X108061095Y-145883333D01*
X108013476Y-145930952D01*
X107918238Y-145978571D01*
X107584904Y-145978571D01*
X108537285Y-145597619D02*
X108584904Y-145550000D01*
X108680142Y-145502380D01*
X108918238Y-145502380D01*
X109013476Y-145550000D01*
X109061095Y-145597619D01*
X109108714Y-145692857D01*
X109108714Y-145788095D01*
X109061095Y-145930952D01*
X108489666Y-146502380D01*
X109108714Y-146502380D01*
X101758904Y-146502380D02*
X101758904Y-145502380D01*
X102139857Y-145502380D01*
X102235095Y-145550000D01*
X102282714Y-145597619D01*
X102330333Y-145692857D01*
X102330333Y-145835714D01*
X102282714Y-145930952D01*
X102235095Y-145978571D01*
X102139857Y-146026190D01*
X101758904Y-146026190D01*
X103092238Y-145978571D02*
X103235095Y-146026190D01*
X103282714Y-146073809D01*
X103330333Y-146169047D01*
X103330333Y-146311904D01*
X103282714Y-146407142D01*
X103235095Y-146454761D01*
X103139857Y-146502380D01*
X102758904Y-146502380D01*
X102758904Y-145502380D01*
X103092238Y-145502380D01*
X103187476Y-145550000D01*
X103235095Y-145597619D01*
X103282714Y-145692857D01*
X103282714Y-145788095D01*
X103235095Y-145883333D01*
X103187476Y-145930952D01*
X103092238Y-145978571D01*
X102758904Y-145978571D01*
X104282714Y-146502380D02*
X103711285Y-146502380D01*
X103997000Y-146502380D02*
X103997000Y-145502380D01*
X103901761Y-145645238D01*
X103806523Y-145740476D01*
X103711285Y-145788095D01*
X96551904Y-146502380D02*
X96551904Y-145502380D01*
X96932857Y-145502380D01*
X97028095Y-145550000D01*
X97075714Y-145597619D01*
X97123333Y-145692857D01*
X97123333Y-145835714D01*
X97075714Y-145930952D01*
X97028095Y-145978571D01*
X96932857Y-146026190D01*
X96551904Y-146026190D01*
X97885238Y-145978571D02*
X98028095Y-146026190D01*
X98075714Y-146073809D01*
X98123333Y-146169047D01*
X98123333Y-146311904D01*
X98075714Y-146407142D01*
X98028095Y-146454761D01*
X97932857Y-146502380D01*
X97551904Y-146502380D01*
X97551904Y-145502380D01*
X97885238Y-145502380D01*
X97980476Y-145550000D01*
X98028095Y-145597619D01*
X98075714Y-145692857D01*
X98075714Y-145788095D01*
X98028095Y-145883333D01*
X97980476Y-145930952D01*
X97885238Y-145978571D01*
X97551904Y-145978571D01*
X98742380Y-145502380D02*
X98837619Y-145502380D01*
X98932857Y-145550000D01*
X98980476Y-145597619D01*
X99028095Y-145692857D01*
X99075714Y-145883333D01*
X99075714Y-146121428D01*
X99028095Y-146311904D01*
X98980476Y-146407142D01*
X98932857Y-146454761D01*
X98837619Y-146502380D01*
X98742380Y-146502380D01*
X98647142Y-146454761D01*
X98599523Y-146407142D01*
X98551904Y-146311904D01*
X98504285Y-146121428D01*
X98504285Y-145883333D01*
X98551904Y-145692857D01*
X98599523Y-145597619D01*
X98647142Y-145550000D01*
X98742380Y-145502380D01*
X91432238Y-146502380D02*
X91432238Y-145502380D01*
X91813190Y-145502380D01*
X91908428Y-145550000D01*
X91956047Y-145597619D01*
X92003666Y-145692857D01*
X92003666Y-145835714D01*
X91956047Y-145930952D01*
X91908428Y-145978571D01*
X91813190Y-146026190D01*
X91432238Y-146026190D01*
X92337000Y-145502380D02*
X92575095Y-146502380D01*
X92765571Y-145788095D01*
X92956047Y-146502380D01*
X93194142Y-145502380D01*
X93575095Y-146502380D02*
X93575095Y-145502380D01*
X93908428Y-146216666D01*
X94241761Y-145502380D01*
X94241761Y-146502380D01*
X86995095Y-145550000D02*
X86899857Y-145502380D01*
X86757000Y-145502380D01*
X86614142Y-145550000D01*
X86518904Y-145645238D01*
X86471285Y-145740476D01*
X86423666Y-145930952D01*
X86423666Y-146073809D01*
X86471285Y-146264285D01*
X86518904Y-146359523D01*
X86614142Y-146454761D01*
X86757000Y-146502380D01*
X86852238Y-146502380D01*
X86995095Y-146454761D01*
X87042714Y-146407142D01*
X87042714Y-146073809D01*
X86852238Y-146073809D01*
X87471285Y-146502380D02*
X87471285Y-145502380D01*
X88042714Y-146502380D01*
X88042714Y-145502380D01*
X88518904Y-146502380D02*
X88518904Y-145502380D01*
X88757000Y-145502380D01*
X88899857Y-145550000D01*
X88995095Y-145645238D01*
X89042714Y-145740476D01*
X89090333Y-145930952D01*
X89090333Y-146073809D01*
X89042714Y-146264285D01*
X88995095Y-146359523D01*
X88899857Y-146454761D01*
X88757000Y-146502380D01*
X88518904Y-146502380D01*
X82486523Y-145502380D02*
X82010333Y-145502380D01*
X81962714Y-145978571D01*
X82010333Y-145930952D01*
X82105571Y-145883333D01*
X82343666Y-145883333D01*
X82438904Y-145930952D01*
X82486523Y-145978571D01*
X82534142Y-146073809D01*
X82534142Y-146311904D01*
X82486523Y-146407142D01*
X82438904Y-146454761D01*
X82343666Y-146502380D01*
X82105571Y-146502380D01*
X82010333Y-146454761D01*
X81962714Y-146407142D01*
X82819857Y-145502380D02*
X83153190Y-146502380D01*
X83486523Y-145502380D01*
X94273809Y-122372380D02*
X94273809Y-121372380D01*
X94702380Y-122324761D02*
X94845238Y-122372380D01*
X95083333Y-122372380D01*
X95178571Y-122324761D01*
X95226190Y-122277142D01*
X95273809Y-122181904D01*
X95273809Y-122086666D01*
X95226190Y-121991428D01*
X95178571Y-121943809D01*
X95083333Y-121896190D01*
X94892857Y-121848571D01*
X94797619Y-121800952D01*
X94750000Y-121753333D01*
X94702380Y-121658095D01*
X94702380Y-121562857D01*
X94750000Y-121467619D01*
X94797619Y-121420000D01*
X94892857Y-121372380D01*
X95130952Y-121372380D01*
X95273809Y-121420000D01*
X95702380Y-122372380D02*
X95702380Y-121372380D01*
X96083333Y-121372380D01*
X96178571Y-121420000D01*
X96226190Y-121467619D01*
X96273809Y-121562857D01*
X96273809Y-121705714D01*
X96226190Y-121800952D01*
X96178571Y-121848571D01*
X96083333Y-121896190D01*
X95702380Y-121896190D01*
X100285714Y-122372380D02*
X99714285Y-122372380D01*
X100000000Y-122372380D02*
X100000000Y-121372380D01*
X99904761Y-121515238D01*
X99809523Y-121610476D01*
X99714285Y-121658095D01*
D11*
%TO.C,G\u002A\u002A\u002A*%
G36*
X79492176Y-140722967D02*
G01*
X79480820Y-140725648D01*
X79469993Y-140724977D01*
X79451354Y-140722416D01*
X79426993Y-140718353D01*
X79399001Y-140713178D01*
X79369468Y-140707279D01*
X79340482Y-140701045D01*
X79314134Y-140694864D01*
X79310640Y-140693992D01*
X79300642Y-140691617D01*
X79281600Y-140687243D01*
X79254216Y-140681025D01*
X79219189Y-140673118D01*
X79177220Y-140663678D01*
X79129009Y-140652861D01*
X79075256Y-140640822D01*
X79016661Y-140627718D01*
X78953925Y-140613704D01*
X78887747Y-140598935D01*
X78818828Y-140583568D01*
X78747868Y-140567759D01*
X78675567Y-140551662D01*
X78602625Y-140535433D01*
X78529743Y-140519229D01*
X78457621Y-140503205D01*
X78386958Y-140487517D01*
X78318455Y-140472320D01*
X78252813Y-140457771D01*
X78190730Y-140444024D01*
X78132909Y-140431236D01*
X78080047Y-140419563D01*
X78032847Y-140409159D01*
X77992008Y-140400182D01*
X77958230Y-140392786D01*
X77932213Y-140387127D01*
X77914658Y-140383361D01*
X77906265Y-140381644D01*
X77906020Y-140381601D01*
X77886164Y-140377853D01*
X77863064Y-140372896D01*
X77850140Y-140369856D01*
X77828867Y-140364769D01*
X77801234Y-140358371D01*
X77769769Y-140351225D01*
X77737001Y-140343897D01*
X77705458Y-140336948D01*
X77677667Y-140330944D01*
X77656157Y-140326446D01*
X77649480Y-140325119D01*
X77631286Y-140321245D01*
X77615342Y-140317258D01*
X77608840Y-140315288D01*
X77601459Y-140313340D01*
X77585167Y-140309450D01*
X77560979Y-140303850D01*
X77529910Y-140296769D01*
X77492975Y-140288436D01*
X77451188Y-140279083D01*
X77405565Y-140268938D01*
X77357120Y-140258231D01*
X77352300Y-140257170D01*
X77302854Y-140246269D01*
X77255484Y-140235802D01*
X77211309Y-140226019D01*
X77171444Y-140217167D01*
X77137006Y-140209494D01*
X77109110Y-140203248D01*
X77088874Y-140198679D01*
X77077413Y-140196034D01*
X77077226Y-140195989D01*
X77054492Y-140190760D01*
X77027576Y-140184913D01*
X76998422Y-140178830D01*
X76968975Y-140172896D01*
X76941181Y-140167493D01*
X76916984Y-140163005D01*
X76898329Y-140159816D01*
X76887161Y-140158309D01*
X76885746Y-140158240D01*
X76874511Y-140156384D01*
X76869447Y-140153719D01*
X76861286Y-140149904D01*
X76844030Y-140144772D01*
X76818630Y-140138531D01*
X76786034Y-140131391D01*
X76747194Y-140123561D01*
X76703059Y-140115248D01*
X76657278Y-140107126D01*
X76639685Y-140103559D01*
X76625322Y-140099709D01*
X76619178Y-140097320D01*
X76609069Y-140093371D01*
X76593864Y-140089058D01*
X76587760Y-140087636D01*
X76571825Y-140084055D01*
X76550139Y-140079038D01*
X76526828Y-140073541D01*
X76521720Y-140072321D01*
X76499834Y-140067515D01*
X76479752Y-140063862D01*
X76464971Y-140061978D01*
X76462134Y-140061850D01*
X76446775Y-140060663D01*
X76426700Y-140057691D01*
X76404721Y-140053531D01*
X76383649Y-140048776D01*
X76366296Y-140044023D01*
X76355474Y-140039868D01*
X76354080Y-140038962D01*
X76342648Y-140031842D01*
X76337570Y-140029631D01*
X76329711Y-140022633D01*
X76330072Y-140012465D01*
X76332904Y-140008126D01*
X76338030Y-139998382D01*
X76342689Y-139983506D01*
X76345858Y-139967820D01*
X76346513Y-139955652D01*
X76345946Y-139952990D01*
X76346012Y-139943460D01*
X76350055Y-139929839D01*
X76351831Y-139925788D01*
X76357956Y-139909896D01*
X76363985Y-139889504D01*
X76367077Y-139876300D01*
X76372763Y-139853459D01*
X76380324Y-139829221D01*
X76384519Y-139817880D01*
X76388559Y-139806303D01*
X76394848Y-139786365D01*
X76402973Y-139759508D01*
X76412525Y-139727178D01*
X76423090Y-139690816D01*
X76434257Y-139651867D01*
X76445615Y-139611775D01*
X76456751Y-139571984D01*
X76467255Y-139533936D01*
X76476713Y-139499076D01*
X76484716Y-139468847D01*
X76490272Y-139447040D01*
X76497453Y-139420215D01*
X76506345Y-139390039D01*
X76515121Y-139362687D01*
X76515807Y-139360680D01*
X76523232Y-139337095D01*
X76529636Y-139313204D01*
X76533869Y-139293382D01*
X76534440Y-139289682D01*
X76537756Y-139272036D01*
X76542103Y-139257263D01*
X76544742Y-139251582D01*
X76546762Y-139245718D01*
X76551329Y-139230723D01*
X76558258Y-139207255D01*
X76567364Y-139175971D01*
X76578463Y-139137525D01*
X76591368Y-139092575D01*
X76605896Y-139041777D01*
X76621861Y-138985787D01*
X76639078Y-138925262D01*
X76657363Y-138860857D01*
X76676530Y-138793228D01*
X76696395Y-138723033D01*
X76716772Y-138650928D01*
X76737476Y-138577568D01*
X76758324Y-138503610D01*
X76779128Y-138429710D01*
X76799706Y-138356524D01*
X76819871Y-138284710D01*
X76839440Y-138214922D01*
X76858225Y-138147818D01*
X76876044Y-138084053D01*
X76892711Y-138024285D01*
X76908041Y-137969168D01*
X76921849Y-137919359D01*
X76933949Y-137875516D01*
X76944158Y-137838293D01*
X76952290Y-137808347D01*
X76958161Y-137786335D01*
X76961584Y-137772912D01*
X76962111Y-137770640D01*
X76966780Y-137750834D01*
X76971577Y-137732822D01*
X76974831Y-137722380D01*
X76978044Y-137712399D01*
X76983794Y-137693368D01*
X76991870Y-137666015D01*
X77002061Y-137631071D01*
X77014155Y-137589266D01*
X77027941Y-137541329D01*
X77043208Y-137487991D01*
X77059744Y-137429982D01*
X77074812Y-137376940D01*
X77084494Y-137342986D01*
X77091952Y-137317592D01*
X77097690Y-137299533D01*
X77102213Y-137287580D01*
X77106025Y-137280506D01*
X77109628Y-137277087D01*
X77113527Y-137276093D01*
X77116206Y-137276150D01*
X77127697Y-137275533D01*
X77145036Y-137273116D01*
X77161800Y-137269962D01*
X77177903Y-137266677D01*
X77202708Y-137261794D01*
X77235620Y-137255422D01*
X77276046Y-137247673D01*
X77323391Y-137238656D01*
X77377061Y-137228483D01*
X77436461Y-137217263D01*
X77500997Y-137205108D01*
X77570075Y-137192127D01*
X77643100Y-137178432D01*
X77719478Y-137164131D01*
X77798614Y-137149337D01*
X77879915Y-137134160D01*
X77962786Y-137118709D01*
X78046632Y-137103095D01*
X78130859Y-137087430D01*
X78214873Y-137071822D01*
X78298079Y-137056383D01*
X78379884Y-137041224D01*
X78459692Y-137026454D01*
X78536909Y-137012184D01*
X78610942Y-136998524D01*
X78681195Y-136985586D01*
X78747074Y-136973478D01*
X78807985Y-136962313D01*
X78863334Y-136952200D01*
X78912525Y-136943250D01*
X78954966Y-136935573D01*
X78990061Y-136929280D01*
X79017216Y-136924481D01*
X79035837Y-136921286D01*
X79045329Y-136919806D01*
X79046461Y-136919728D01*
X79051347Y-136927456D01*
X79048049Y-136937276D01*
X79041922Y-136943250D01*
X79037054Y-136948561D01*
X79026682Y-136961244D01*
X79011283Y-136980672D01*
X78991328Y-137006216D01*
X78967294Y-137037250D01*
X78939653Y-137073146D01*
X78908880Y-137113278D01*
X78875448Y-137157018D01*
X78839833Y-137203740D01*
X78802508Y-137252815D01*
X78763946Y-137303618D01*
X78724623Y-137355519D01*
X78685012Y-137407894D01*
X78645588Y-137460113D01*
X78606823Y-137511551D01*
X78569194Y-137561579D01*
X78533172Y-137609572D01*
X78499234Y-137654900D01*
X78467852Y-137696939D01*
X78439501Y-137735059D01*
X78414654Y-137768635D01*
X78393787Y-137797038D01*
X78377372Y-137819642D01*
X78365885Y-137835820D01*
X78359799Y-137844944D01*
X78358947Y-137846785D01*
X78364823Y-137851115D01*
X78366091Y-137851992D01*
X78366091Y-137883645D01*
X78365760Y-137884340D01*
X78369337Y-137888976D01*
X78370840Y-137890020D01*
X78375590Y-137891314D01*
X78375920Y-137890619D01*
X78372344Y-137885983D01*
X78370840Y-137884940D01*
X78366091Y-137883645D01*
X78366091Y-137851992D01*
X78378389Y-137860498D01*
X78398947Y-137874472D01*
X78425801Y-137892576D01*
X78457531Y-137913862D01*
X78457531Y-137944605D01*
X78457200Y-137945300D01*
X78460777Y-137949936D01*
X78462280Y-137950980D01*
X78467030Y-137952274D01*
X78467360Y-137951579D01*
X78463784Y-137946943D01*
X78462280Y-137945900D01*
X78457531Y-137944605D01*
X78457531Y-137913862D01*
X78458254Y-137914348D01*
X78488011Y-137934246D01*
X78488011Y-137964925D01*
X78487680Y-137965620D01*
X78491257Y-137970256D01*
X78492760Y-137971300D01*
X78497510Y-137972594D01*
X78497840Y-137971899D01*
X78494264Y-137967263D01*
X78492760Y-137966220D01*
X78488011Y-137964925D01*
X78488011Y-137934246D01*
X78495609Y-137939327D01*
X78505460Y-137945898D01*
X78505460Y-137973840D01*
X78502920Y-137976380D01*
X78505460Y-137978920D01*
X78508000Y-137976380D01*
X78505460Y-137973840D01*
X78505460Y-137945898D01*
X78537169Y-137967052D01*
X78551180Y-137976381D01*
X78551180Y-138004320D01*
X78548640Y-138006860D01*
X78551180Y-138009400D01*
X78553720Y-138006860D01*
X78551180Y-138004320D01*
X78551180Y-137976381D01*
X78582236Y-137997062D01*
X78630115Y-138028894D01*
X78680109Y-138062088D01*
X78731519Y-138096182D01*
X78783651Y-138130715D01*
X78835805Y-138165226D01*
X78887287Y-138199253D01*
X78937398Y-138232335D01*
X78985443Y-138264010D01*
X79030723Y-138293818D01*
X79072543Y-138321297D01*
X79110205Y-138345985D01*
X79143012Y-138367421D01*
X79170267Y-138385144D01*
X79191274Y-138398693D01*
X79205336Y-138407606D01*
X79211756Y-138411421D01*
X79212032Y-138411529D01*
X79216743Y-138412633D01*
X79220143Y-138414106D01*
X79221812Y-138416213D01*
X79221330Y-138419217D01*
X79218279Y-138423383D01*
X79212239Y-138428975D01*
X79202792Y-138436256D01*
X79189516Y-138445490D01*
X79171994Y-138456941D01*
X79149806Y-138470874D01*
X79122533Y-138487551D01*
X79089755Y-138507238D01*
X79051053Y-138530197D01*
X79006008Y-138556693D01*
X78954200Y-138586990D01*
X78895210Y-138621352D01*
X78828619Y-138660042D01*
X78754008Y-138703325D01*
X78683646Y-138744110D01*
X78615602Y-138783551D01*
X78550017Y-138821579D01*
X78487424Y-138857885D01*
X78428358Y-138892157D01*
X78373353Y-138924086D01*
X78322945Y-138953361D01*
X78277667Y-138979670D01*
X78238054Y-139002705D01*
X78204641Y-139022153D01*
X78177961Y-139037705D01*
X78158551Y-139049050D01*
X78146943Y-139055877D01*
X78143611Y-139057896D01*
X78146599Y-139061948D01*
X78155747Y-139073481D01*
X78170757Y-139092132D01*
X78191332Y-139117536D01*
X78217174Y-139149332D01*
X78247986Y-139187155D01*
X78283471Y-139230641D01*
X78323332Y-139279427D01*
X78367271Y-139333151D01*
X78414991Y-139391447D01*
X78466195Y-139453953D01*
X78520586Y-139520305D01*
X78577866Y-139590140D01*
X78637738Y-139663094D01*
X78699904Y-139738803D01*
X78764068Y-139816905D01*
X78818865Y-139883574D01*
X78884520Y-139963477D01*
X78948440Y-140041349D01*
X79010326Y-140116822D01*
X79069881Y-140189530D01*
X79126805Y-140259106D01*
X79180799Y-140325182D01*
X79231566Y-140387390D01*
X79278805Y-140445365D01*
X79322219Y-140498739D01*
X79361508Y-140547143D01*
X79396374Y-140590212D01*
X79426519Y-140627579D01*
X79448131Y-140654500D01*
X79448131Y-140692885D01*
X79447800Y-140693580D01*
X79451377Y-140698216D01*
X79452880Y-140699260D01*
X79457630Y-140700554D01*
X79457960Y-140699859D01*
X79454384Y-140695223D01*
X79452880Y-140694180D01*
X79448131Y-140692885D01*
X79448131Y-140654500D01*
X79451643Y-140658875D01*
X79471447Y-140683733D01*
X79485634Y-140701787D01*
X79493904Y-140712670D01*
X79496060Y-140715986D01*
X79492176Y-140722967D01*
G37*
X79492176Y-140722967D02*
X79480820Y-140725648D01*
X79469993Y-140724977D01*
X79451354Y-140722416D01*
X79426993Y-140718353D01*
X79399001Y-140713178D01*
X79369468Y-140707279D01*
X79340482Y-140701045D01*
X79314134Y-140694864D01*
X79310640Y-140693992D01*
X79300642Y-140691617D01*
X79281600Y-140687243D01*
X79254216Y-140681025D01*
X79219189Y-140673118D01*
X79177220Y-140663678D01*
X79129009Y-140652861D01*
X79075256Y-140640822D01*
X79016661Y-140627718D01*
X78953925Y-140613704D01*
X78887747Y-140598935D01*
X78818828Y-140583568D01*
X78747868Y-140567759D01*
X78675567Y-140551662D01*
X78602625Y-140535433D01*
X78529743Y-140519229D01*
X78457621Y-140503205D01*
X78386958Y-140487517D01*
X78318455Y-140472320D01*
X78252813Y-140457771D01*
X78190730Y-140444024D01*
X78132909Y-140431236D01*
X78080047Y-140419563D01*
X78032847Y-140409159D01*
X77992008Y-140400182D01*
X77958230Y-140392786D01*
X77932213Y-140387127D01*
X77914658Y-140383361D01*
X77906265Y-140381644D01*
X77906020Y-140381601D01*
X77886164Y-140377853D01*
X77863064Y-140372896D01*
X77850140Y-140369856D01*
X77828867Y-140364769D01*
X77801234Y-140358371D01*
X77769769Y-140351225D01*
X77737001Y-140343897D01*
X77705458Y-140336948D01*
X77677667Y-140330944D01*
X77656157Y-140326446D01*
X77649480Y-140325119D01*
X77631286Y-140321245D01*
X77615342Y-140317258D01*
X77608840Y-140315288D01*
X77601459Y-140313340D01*
X77585167Y-140309450D01*
X77560979Y-140303850D01*
X77529910Y-140296769D01*
X77492975Y-140288436D01*
X77451188Y-140279083D01*
X77405565Y-140268938D01*
X77357120Y-140258231D01*
X77352300Y-140257170D01*
X77302854Y-140246269D01*
X77255484Y-140235802D01*
X77211309Y-140226019D01*
X77171444Y-140217167D01*
X77137006Y-140209494D01*
X77109110Y-140203248D01*
X77088874Y-140198679D01*
X77077413Y-140196034D01*
X77077226Y-140195989D01*
X77054492Y-140190760D01*
X77027576Y-140184913D01*
X76998422Y-140178830D01*
X76968975Y-140172896D01*
X76941181Y-140167493D01*
X76916984Y-140163005D01*
X76898329Y-140159816D01*
X76887161Y-140158309D01*
X76885746Y-140158240D01*
X76874511Y-140156384D01*
X76869447Y-140153719D01*
X76861286Y-140149904D01*
X76844030Y-140144772D01*
X76818630Y-140138531D01*
X76786034Y-140131391D01*
X76747194Y-140123561D01*
X76703059Y-140115248D01*
X76657278Y-140107126D01*
X76639685Y-140103559D01*
X76625322Y-140099709D01*
X76619178Y-140097320D01*
X76609069Y-140093371D01*
X76593864Y-140089058D01*
X76587760Y-140087636D01*
X76571825Y-140084055D01*
X76550139Y-140079038D01*
X76526828Y-140073541D01*
X76521720Y-140072321D01*
X76499834Y-140067515D01*
X76479752Y-140063862D01*
X76464971Y-140061978D01*
X76462134Y-140061850D01*
X76446775Y-140060663D01*
X76426700Y-140057691D01*
X76404721Y-140053531D01*
X76383649Y-140048776D01*
X76366296Y-140044023D01*
X76355474Y-140039868D01*
X76354080Y-140038962D01*
X76342648Y-140031842D01*
X76337570Y-140029631D01*
X76329711Y-140022633D01*
X76330072Y-140012465D01*
X76332904Y-140008126D01*
X76338030Y-139998382D01*
X76342689Y-139983506D01*
X76345858Y-139967820D01*
X76346513Y-139955652D01*
X76345946Y-139952990D01*
X76346012Y-139943460D01*
X76350055Y-139929839D01*
X76351831Y-139925788D01*
X76357956Y-139909896D01*
X76363985Y-139889504D01*
X76367077Y-139876300D01*
X76372763Y-139853459D01*
X76380324Y-139829221D01*
X76384519Y-139817880D01*
X76388559Y-139806303D01*
X76394848Y-139786365D01*
X76402973Y-139759508D01*
X76412525Y-139727178D01*
X76423090Y-139690816D01*
X76434257Y-139651867D01*
X76445615Y-139611775D01*
X76456751Y-139571984D01*
X76467255Y-139533936D01*
X76476713Y-139499076D01*
X76484716Y-139468847D01*
X76490272Y-139447040D01*
X76497453Y-139420215D01*
X76506345Y-139390039D01*
X76515121Y-139362687D01*
X76515807Y-139360680D01*
X76523232Y-139337095D01*
X76529636Y-139313204D01*
X76533869Y-139293382D01*
X76534440Y-139289682D01*
X76537756Y-139272036D01*
X76542103Y-139257263D01*
X76544742Y-139251582D01*
X76546762Y-139245718D01*
X76551329Y-139230723D01*
X76558258Y-139207255D01*
X76567364Y-139175971D01*
X76578463Y-139137525D01*
X76591368Y-139092575D01*
X76605896Y-139041777D01*
X76621861Y-138985787D01*
X76639078Y-138925262D01*
X76657363Y-138860857D01*
X76676530Y-138793228D01*
X76696395Y-138723033D01*
X76716772Y-138650928D01*
X76737476Y-138577568D01*
X76758324Y-138503610D01*
X76779128Y-138429710D01*
X76799706Y-138356524D01*
X76819871Y-138284710D01*
X76839440Y-138214922D01*
X76858225Y-138147818D01*
X76876044Y-138084053D01*
X76892711Y-138024285D01*
X76908041Y-137969168D01*
X76921849Y-137919359D01*
X76933949Y-137875516D01*
X76944158Y-137838293D01*
X76952290Y-137808347D01*
X76958161Y-137786335D01*
X76961584Y-137772912D01*
X76962111Y-137770640D01*
X76966780Y-137750834D01*
X76971577Y-137732822D01*
X76974831Y-137722380D01*
X76978044Y-137712399D01*
X76983794Y-137693368D01*
X76991870Y-137666015D01*
X77002061Y-137631071D01*
X77014155Y-137589266D01*
X77027941Y-137541329D01*
X77043208Y-137487991D01*
X77059744Y-137429982D01*
X77074812Y-137376940D01*
X77084494Y-137342986D01*
X77091952Y-137317592D01*
X77097690Y-137299533D01*
X77102213Y-137287580D01*
X77106025Y-137280506D01*
X77109628Y-137277087D01*
X77113527Y-137276093D01*
X77116206Y-137276150D01*
X77127697Y-137275533D01*
X77145036Y-137273116D01*
X77161800Y-137269962D01*
X77177903Y-137266677D01*
X77202708Y-137261794D01*
X77235620Y-137255422D01*
X77276046Y-137247673D01*
X77323391Y-137238656D01*
X77377061Y-137228483D01*
X77436461Y-137217263D01*
X77500997Y-137205108D01*
X77570075Y-137192127D01*
X77643100Y-137178432D01*
X77719478Y-137164131D01*
X77798614Y-137149337D01*
X77879915Y-137134160D01*
X77962786Y-137118709D01*
X78046632Y-137103095D01*
X78130859Y-137087430D01*
X78214873Y-137071822D01*
X78298079Y-137056383D01*
X78379884Y-137041224D01*
X78459692Y-137026454D01*
X78536909Y-137012184D01*
X78610942Y-136998524D01*
X78681195Y-136985586D01*
X78747074Y-136973478D01*
X78807985Y-136962313D01*
X78863334Y-136952200D01*
X78912525Y-136943250D01*
X78954966Y-136935573D01*
X78990061Y-136929280D01*
X79017216Y-136924481D01*
X79035837Y-136921286D01*
X79045329Y-136919806D01*
X79046461Y-136919728D01*
X79051347Y-136927456D01*
X79048049Y-136937276D01*
X79041922Y-136943250D01*
X79037054Y-136948561D01*
X79026682Y-136961244D01*
X79011283Y-136980672D01*
X78991328Y-137006216D01*
X78967294Y-137037250D01*
X78939653Y-137073146D01*
X78908880Y-137113278D01*
X78875448Y-137157018D01*
X78839833Y-137203740D01*
X78802508Y-137252815D01*
X78763946Y-137303618D01*
X78724623Y-137355519D01*
X78685012Y-137407894D01*
X78645588Y-137460113D01*
X78606823Y-137511551D01*
X78569194Y-137561579D01*
X78533172Y-137609572D01*
X78499234Y-137654900D01*
X78467852Y-137696939D01*
X78439501Y-137735059D01*
X78414654Y-137768635D01*
X78393787Y-137797038D01*
X78377372Y-137819642D01*
X78365885Y-137835820D01*
X78359799Y-137844944D01*
X78358947Y-137846785D01*
X78364823Y-137851115D01*
X78366091Y-137851992D01*
X78366091Y-137883645D01*
X78365760Y-137884340D01*
X78369337Y-137888976D01*
X78370840Y-137890020D01*
X78375590Y-137891314D01*
X78375920Y-137890619D01*
X78372344Y-137885983D01*
X78370840Y-137884940D01*
X78366091Y-137883645D01*
X78366091Y-137851992D01*
X78378389Y-137860498D01*
X78398947Y-137874472D01*
X78425801Y-137892576D01*
X78457531Y-137913862D01*
X78457531Y-137944605D01*
X78457200Y-137945300D01*
X78460777Y-137949936D01*
X78462280Y-137950980D01*
X78467030Y-137952274D01*
X78467360Y-137951579D01*
X78463784Y-137946943D01*
X78462280Y-137945900D01*
X78457531Y-137944605D01*
X78457531Y-137913862D01*
X78458254Y-137914348D01*
X78488011Y-137934246D01*
X78488011Y-137964925D01*
X78487680Y-137965620D01*
X78491257Y-137970256D01*
X78492760Y-137971300D01*
X78497510Y-137972594D01*
X78497840Y-137971899D01*
X78494264Y-137967263D01*
X78492760Y-137966220D01*
X78488011Y-137964925D01*
X78488011Y-137934246D01*
X78495609Y-137939327D01*
X78505460Y-137945898D01*
X78505460Y-137973840D01*
X78502920Y-137976380D01*
X78505460Y-137978920D01*
X78508000Y-137976380D01*
X78505460Y-137973840D01*
X78505460Y-137945898D01*
X78537169Y-137967052D01*
X78551180Y-137976381D01*
X78551180Y-138004320D01*
X78548640Y-138006860D01*
X78551180Y-138009400D01*
X78553720Y-138006860D01*
X78551180Y-138004320D01*
X78551180Y-137976381D01*
X78582236Y-137997062D01*
X78630115Y-138028894D01*
X78680109Y-138062088D01*
X78731519Y-138096182D01*
X78783651Y-138130715D01*
X78835805Y-138165226D01*
X78887287Y-138199253D01*
X78937398Y-138232335D01*
X78985443Y-138264010D01*
X79030723Y-138293818D01*
X79072543Y-138321297D01*
X79110205Y-138345985D01*
X79143012Y-138367421D01*
X79170267Y-138385144D01*
X79191274Y-138398693D01*
X79205336Y-138407606D01*
X79211756Y-138411421D01*
X79212032Y-138411529D01*
X79216743Y-138412633D01*
X79220143Y-138414106D01*
X79221812Y-138416213D01*
X79221330Y-138419217D01*
X79218279Y-138423383D01*
X79212239Y-138428975D01*
X79202792Y-138436256D01*
X79189516Y-138445490D01*
X79171994Y-138456941D01*
X79149806Y-138470874D01*
X79122533Y-138487551D01*
X79089755Y-138507238D01*
X79051053Y-138530197D01*
X79006008Y-138556693D01*
X78954200Y-138586990D01*
X78895210Y-138621352D01*
X78828619Y-138660042D01*
X78754008Y-138703325D01*
X78683646Y-138744110D01*
X78615602Y-138783551D01*
X78550017Y-138821579D01*
X78487424Y-138857885D01*
X78428358Y-138892157D01*
X78373353Y-138924086D01*
X78322945Y-138953361D01*
X78277667Y-138979670D01*
X78238054Y-139002705D01*
X78204641Y-139022153D01*
X78177961Y-139037705D01*
X78158551Y-139049050D01*
X78146943Y-139055877D01*
X78143611Y-139057896D01*
X78146599Y-139061948D01*
X78155747Y-139073481D01*
X78170757Y-139092132D01*
X78191332Y-139117536D01*
X78217174Y-139149332D01*
X78247986Y-139187155D01*
X78283471Y-139230641D01*
X78323332Y-139279427D01*
X78367271Y-139333151D01*
X78414991Y-139391447D01*
X78466195Y-139453953D01*
X78520586Y-139520305D01*
X78577866Y-139590140D01*
X78637738Y-139663094D01*
X78699904Y-139738803D01*
X78764068Y-139816905D01*
X78818865Y-139883574D01*
X78884520Y-139963477D01*
X78948440Y-140041349D01*
X79010326Y-140116822D01*
X79069881Y-140189530D01*
X79126805Y-140259106D01*
X79180799Y-140325182D01*
X79231566Y-140387390D01*
X79278805Y-140445365D01*
X79322219Y-140498739D01*
X79361508Y-140547143D01*
X79396374Y-140590212D01*
X79426519Y-140627579D01*
X79448131Y-140654500D01*
X79448131Y-140692885D01*
X79447800Y-140693580D01*
X79451377Y-140698216D01*
X79452880Y-140699260D01*
X79457630Y-140700554D01*
X79457960Y-140699859D01*
X79454384Y-140695223D01*
X79452880Y-140694180D01*
X79448131Y-140692885D01*
X79448131Y-140654500D01*
X79451643Y-140658875D01*
X79471447Y-140683733D01*
X79485634Y-140701787D01*
X79493904Y-140712670D01*
X79496060Y-140715986D01*
X79492176Y-140722967D01*
D12*
%TO.C,C1*%
X112622000Y-140476248D02*
X112622000Y-140998752D01*
X111152000Y-140476248D02*
X111152000Y-140998752D01*
%TO.C,C2*%
X112622000Y-136172752D02*
X112622000Y-135650248D01*
X111152000Y-136172752D02*
X111152000Y-135650248D01*
%TO.C,C3*%
X83765000Y-138201248D02*
X83765000Y-138723752D01*
X85235000Y-138201248D02*
X85235000Y-138723752D01*
%TO.C,J1*%
X80004000Y-157700000D02*
X80404000Y-157700000D01*
X80004000Y-157060000D02*
X80004000Y-157700000D01*
X106546000Y-153392000D02*
X106151000Y-153788000D01*
X109192000Y-150746000D02*
X108812000Y-151126000D01*
X106797000Y-153674000D02*
X106417000Y-154054000D01*
X109458000Y-151012000D02*
X109063000Y-151408000D01*
X101546000Y-153392000D02*
X101151000Y-153788000D01*
X104192000Y-150746000D02*
X103812000Y-151126000D01*
X101797000Y-153674000D02*
X101417000Y-154054000D01*
X104458000Y-151012000D02*
X104063000Y-151408000D01*
X96546000Y-153392000D02*
X96151000Y-153788000D01*
X99192000Y-150746000D02*
X98812000Y-151126000D01*
X96797000Y-153674000D02*
X96417000Y-154054000D01*
X99458000Y-151012000D02*
X99063000Y-151408000D01*
X91546000Y-153392000D02*
X91151000Y-153788000D01*
X94192000Y-150746000D02*
X93812000Y-151126000D01*
X91797000Y-153674000D02*
X91417000Y-154054000D01*
X94458000Y-151012000D02*
X94063000Y-151408000D01*
X86546000Y-153392000D02*
X86151000Y-153788000D01*
X89192000Y-150746000D02*
X88812000Y-151126000D01*
X86797000Y-153674000D02*
X86417000Y-154054000D01*
X89458000Y-151012000D02*
X89063000Y-151408000D01*
X81256000Y-153681000D02*
X81150000Y-153788000D01*
X84192000Y-150746000D02*
X84085000Y-150853000D01*
X81522000Y-153947000D02*
X81416000Y-154054000D01*
X84458000Y-151012000D02*
X84351000Y-151119000D01*
X110364000Y-148340000D02*
X110364000Y-157460000D01*
X80244000Y-148340000D02*
X80244000Y-157460000D01*
X80244000Y-157460000D02*
X110364000Y-157460000D01*
X80244000Y-148340000D02*
X110364000Y-148340000D01*
X80244000Y-155900000D02*
X110364000Y-155900000D01*
X80244000Y-157000000D02*
X110364000Y-157000000D01*
X109984000Y-152400000D02*
G75*
G03*
X109984000Y-152400000I-2180000J0D01*
G01*
X104984000Y-152400000D02*
G75*
G03*
X104984000Y-152400000I-2180000J0D01*
G01*
X99984000Y-152400000D02*
G75*
G03*
X99984000Y-152400000I-2180000J0D01*
G01*
X94984000Y-152400000D02*
G75*
G03*
X94984000Y-152400000I-2180000J0D01*
G01*
X89984000Y-152400000D02*
G75*
G03*
X89984000Y-152400000I-2180000J0D01*
G01*
X84984000Y-152400000D02*
G75*
G03*
X84984000Y-152400000I-2180000J0D01*
G01*
%TO.C,J2*%
X99120000Y-123130000D02*
X99120000Y-124460000D01*
X97790000Y-123130000D02*
X99120000Y-123130000D01*
X99120000Y-125730000D02*
X99120000Y-128330000D01*
X96520000Y-125730000D02*
X99120000Y-125730000D01*
X96520000Y-123130000D02*
X96520000Y-125730000D01*
X99120000Y-128330000D02*
X91380000Y-128330000D01*
X96520000Y-123130000D02*
X91380000Y-123130000D01*
X91380000Y-123130000D02*
X91380000Y-128330000D01*
%TO.C,R1*%
X88111000Y-125957064D02*
X88111000Y-125502936D01*
X86641000Y-125957064D02*
X86641000Y-125502936D01*
%TO.C,U1*%
X104628000Y-137160000D02*
X104628000Y-139110000D01*
X104628000Y-137160000D02*
X104628000Y-135210000D01*
X109748000Y-137160000D02*
X109748000Y-139110000D01*
X109748000Y-137160000D02*
X109748000Y-133710000D01*
%TO.C,RV1*%
X89130000Y-132139000D02*
X93067000Y-132139000D01*
X97434000Y-132139000D02*
X101370000Y-132139000D01*
X89130000Y-142180000D02*
X93067000Y-142180000D01*
X97434000Y-142180000D02*
X101370000Y-142180000D01*
X89130000Y-132139000D02*
X89130000Y-133789000D01*
X89130000Y-135531000D02*
X89130000Y-136290000D01*
X89130000Y-138031000D02*
X89130000Y-138790000D01*
X89130000Y-140530000D02*
X89130000Y-142180000D01*
X101370000Y-132139000D02*
X101370000Y-142180000D01*
%TO.C,C1*%
D10*
X112244142Y-144311666D02*
X112291761Y-144359285D01*
X112339380Y-144502142D01*
X112339380Y-144597380D01*
X112291761Y-144740238D01*
X112196523Y-144835476D01*
X112101285Y-144883095D01*
X111910809Y-144930714D01*
X111767952Y-144930714D01*
X111577476Y-144883095D01*
X111482238Y-144835476D01*
X111387000Y-144740238D01*
X111339380Y-144597380D01*
X111339380Y-144502142D01*
X111387000Y-144359285D01*
X111434619Y-144311666D01*
X112339380Y-143359285D02*
X112339380Y-143930714D01*
X112339380Y-143645000D02*
X111339380Y-143645000D01*
X111482238Y-143740238D01*
X111577476Y-143835476D01*
X111625095Y-143930714D01*
%TO.C,C2*%
X112244142Y-132924666D02*
X112291761Y-132972285D01*
X112339380Y-133115142D01*
X112339380Y-133210380D01*
X112291761Y-133353238D01*
X112196523Y-133448476D01*
X112101285Y-133496095D01*
X111910809Y-133543714D01*
X111767952Y-133543714D01*
X111577476Y-133496095D01*
X111482238Y-133448476D01*
X111387000Y-133353238D01*
X111339380Y-133210380D01*
X111339380Y-133115142D01*
X111387000Y-132972285D01*
X111434619Y-132924666D01*
X111434619Y-132543714D02*
X111387000Y-132496095D01*
X111339380Y-132400857D01*
X111339380Y-132162761D01*
X111387000Y-132067523D01*
X111434619Y-132019904D01*
X111529857Y-131972285D01*
X111625095Y-131972285D01*
X111767952Y-132019904D01*
X112339380Y-132591333D01*
X112339380Y-131972285D01*
%TO.C,C3*%
X84333333Y-141719142D02*
X84285714Y-141766761D01*
X84142857Y-141814380D01*
X84047619Y-141814380D01*
X83904761Y-141766761D01*
X83809523Y-141671523D01*
X83761904Y-141576285D01*
X83714285Y-141385809D01*
X83714285Y-141242952D01*
X83761904Y-141052476D01*
X83809523Y-140957238D01*
X83904761Y-140862000D01*
X84047619Y-140814380D01*
X84142857Y-140814380D01*
X84285714Y-140862000D01*
X84333333Y-140909619D01*
X84666666Y-140814380D02*
X85285714Y-140814380D01*
X84952380Y-141195333D01*
X85095238Y-141195333D01*
X85190476Y-141242952D01*
X85238095Y-141290571D01*
X85285714Y-141385809D01*
X85285714Y-141623904D01*
X85238095Y-141719142D01*
X85190476Y-141766761D01*
X85095238Y-141814380D01*
X84809523Y-141814380D01*
X84714285Y-141766761D01*
X84666666Y-141719142D01*
%TO.C,J1*%
X94970666Y-148677380D02*
X94970666Y-149391666D01*
X94923047Y-149534523D01*
X94827809Y-149629761D01*
X94684952Y-149677380D01*
X94589714Y-149677380D01*
X95970666Y-149677380D02*
X95399238Y-149677380D01*
X95684952Y-149677380D02*
X95684952Y-148677380D01*
X95589714Y-148820238D01*
X95494476Y-148915476D01*
X95399238Y-148963095D01*
%TO.C,R1*%
X86178380Y-125896666D02*
X85702190Y-126230000D01*
X86178380Y-126468095D02*
X85178380Y-126468095D01*
X85178380Y-126087142D01*
X85226000Y-125991904D01*
X85273619Y-125944285D01*
X85368857Y-125896666D01*
X85511714Y-125896666D01*
X85606952Y-125944285D01*
X85654571Y-125991904D01*
X85702190Y-126087142D01*
X85702190Y-126468095D01*
X86178380Y-124944285D02*
X86178380Y-125515714D01*
X86178380Y-125230000D02*
X85178380Y-125230000D01*
X85321238Y-125325238D01*
X85416476Y-125420476D01*
X85464095Y-125515714D01*
%TO.C,U1*%
X102449380Y-137921904D02*
X103258904Y-137921904D01*
X103354142Y-137874285D01*
X103401761Y-137826666D01*
X103449380Y-137731428D01*
X103449380Y-137540952D01*
X103401761Y-137445714D01*
X103354142Y-137398095D01*
X103258904Y-137350476D01*
X102449380Y-137350476D01*
X103449380Y-136350476D02*
X103449380Y-136921904D01*
X103449380Y-136636190D02*
X102449380Y-136636190D01*
X102592238Y-136731428D01*
X102687476Y-136826666D01*
X102735095Y-136921904D01*
%TO.C,RV1*%
X94654761Y-137612380D02*
X94321428Y-137136190D01*
X94083333Y-137612380D02*
X94083333Y-136612380D01*
X94464285Y-136612380D01*
X94559523Y-136660000D01*
X94607142Y-136707619D01*
X94654761Y-136802857D01*
X94654761Y-136945714D01*
X94607142Y-137040952D01*
X94559523Y-137088571D01*
X94464285Y-137136190D01*
X94083333Y-137136190D01*
X94940476Y-136612380D02*
X95273809Y-137612380D01*
X95607142Y-136612380D01*
X96464285Y-137612380D02*
X95892857Y-137612380D01*
X96178571Y-137612380D02*
X96178571Y-136612380D01*
X96083333Y-136755238D01*
X95988095Y-136850476D01*
X95892857Y-136898095D01*
%TD*%
%LPC*%
%TO.C,C1*%
G36*
G01*
X111412000Y-141187500D02*
X112362000Y-141187500D01*
G75*
G02*
X112612000Y-141437500I0J-250000D01*
G01*
X112612000Y-142112500D01*
G75*
G02*
X112362000Y-142362500I-250000J0D01*
G01*
X111412000Y-142362500D01*
G75*
G02*
X111162000Y-142112500I0J250000D01*
G01*
X111162000Y-141437500D01*
G75*
G02*
X111412000Y-141187500I250000J0D01*
G01*
G37*
G36*
G01*
X111412000Y-139112500D02*
X112362000Y-139112500D01*
G75*
G02*
X112612000Y-139362500I0J-250000D01*
G01*
X112612000Y-140037500D01*
G75*
G02*
X112362000Y-140287500I-250000J0D01*
G01*
X111412000Y-140287500D01*
G75*
G02*
X111162000Y-140037500I0J250000D01*
G01*
X111162000Y-139362500D01*
G75*
G02*
X111412000Y-139112500I250000J0D01*
G01*
G37*
%TD*%
%TO.C,C2*%
G36*
G01*
X112362000Y-137536500D02*
X111412000Y-137536500D01*
G75*
G02*
X111162000Y-137286500I0J250000D01*
G01*
X111162000Y-136611500D01*
G75*
G02*
X111412000Y-136361500I250000J0D01*
G01*
X112362000Y-136361500D01*
G75*
G02*
X112612000Y-136611500I0J-250000D01*
G01*
X112612000Y-137286500D01*
G75*
G02*
X112362000Y-137536500I-250000J0D01*
G01*
G37*
G36*
G01*
X112362000Y-135461500D02*
X111412000Y-135461500D01*
G75*
G02*
X111162000Y-135211500I0J250000D01*
G01*
X111162000Y-134536500D01*
G75*
G02*
X111412000Y-134286500I250000J0D01*
G01*
X112362000Y-134286500D01*
G75*
G02*
X112612000Y-134536500I0J-250000D01*
G01*
X112612000Y-135211500D01*
G75*
G02*
X112362000Y-135461500I-250000J0D01*
G01*
G37*
%TD*%
%TO.C,C3*%
G36*
G01*
X84025000Y-136837500D02*
X84975000Y-136837500D01*
G75*
G02*
X85225000Y-137087500I0J-250000D01*
G01*
X85225000Y-137762500D01*
G75*
G02*
X84975000Y-138012500I-250000J0D01*
G01*
X84025000Y-138012500D01*
G75*
G02*
X83775000Y-137762500I0J250000D01*
G01*
X83775000Y-137087500D01*
G75*
G02*
X84025000Y-136837500I250000J0D01*
G01*
G37*
G36*
G01*
X84025000Y-138912500D02*
X84975000Y-138912500D01*
G75*
G02*
X85225000Y-139162500I0J-250000D01*
G01*
X85225000Y-139837500D01*
G75*
G02*
X84975000Y-140087500I-250000J0D01*
G01*
X84025000Y-140087500D01*
G75*
G02*
X83775000Y-139837500I0J250000D01*
G01*
X83775000Y-139162500D01*
G75*
G02*
X84025000Y-138912500I250000J0D01*
G01*
G37*
%TD*%
D13*
%TO.C,J1*%
X82804000Y-152400000D03*
D14*
X87804000Y-152400000D03*
X92804000Y-152400000D03*
X97804000Y-152400000D03*
X102804000Y-152400000D03*
X107804000Y-152400000D03*
%TD*%
D15*
%TO.C,J2*%
X97790000Y-124460000D03*
D16*
X97790000Y-127000000D03*
X95250000Y-124460000D03*
X95250000Y-127000000D03*
X92710000Y-124460000D03*
X92710000Y-127000000D03*
%TD*%
%TO.C,R1*%
G36*
G01*
X87826001Y-127330000D02*
X86925999Y-127330000D01*
G75*
G02*
X86676000Y-127080001I0J249999D01*
G01*
X86676000Y-126379999D01*
G75*
G02*
X86925999Y-126130000I249999J0D01*
G01*
X87826001Y-126130000D01*
G75*
G02*
X88076000Y-126379999I0J-249999D01*
G01*
X88076000Y-127080001D01*
G75*
G02*
X87826001Y-127330000I-249999J0D01*
G01*
G37*
G36*
G01*
X87826001Y-125330000D02*
X86925999Y-125330000D01*
G75*
G02*
X86676000Y-125080001I0J249999D01*
G01*
X86676000Y-124379999D01*
G75*
G02*
X86925999Y-124130000I249999J0D01*
G01*
X87826001Y-124130000D01*
G75*
G02*
X88076000Y-124379999I0J-249999D01*
G01*
X88076000Y-125080001D01*
G75*
G02*
X87826001Y-125330000I-249999J0D01*
G01*
G37*
%TD*%
%TO.C,U1*%
G36*
G01*
X108943000Y-138660000D02*
X109243000Y-138660000D01*
G75*
G02*
X109393000Y-138810000I0J-150000D01*
G01*
X109393000Y-140460000D01*
G75*
G02*
X109243000Y-140610000I-150000J0D01*
G01*
X108943000Y-140610000D01*
G75*
G02*
X108793000Y-140460000I0J150000D01*
G01*
X108793000Y-138810000D01*
G75*
G02*
X108943000Y-138660000I150000J0D01*
G01*
G37*
G36*
G01*
X107673000Y-138660000D02*
X107973000Y-138660000D01*
G75*
G02*
X108123000Y-138810000I0J-150000D01*
G01*
X108123000Y-140460000D01*
G75*
G02*
X107973000Y-140610000I-150000J0D01*
G01*
X107673000Y-140610000D01*
G75*
G02*
X107523000Y-140460000I0J150000D01*
G01*
X107523000Y-138810000D01*
G75*
G02*
X107673000Y-138660000I150000J0D01*
G01*
G37*
G36*
G01*
X106403000Y-138660000D02*
X106703000Y-138660000D01*
G75*
G02*
X106853000Y-138810000I0J-150000D01*
G01*
X106853000Y-140460000D01*
G75*
G02*
X106703000Y-140610000I-150000J0D01*
G01*
X106403000Y-140610000D01*
G75*
G02*
X106253000Y-140460000I0J150000D01*
G01*
X106253000Y-138810000D01*
G75*
G02*
X106403000Y-138660000I150000J0D01*
G01*
G37*
G36*
G01*
X105133000Y-138660000D02*
X105433000Y-138660000D01*
G75*
G02*
X105583000Y-138810000I0J-150000D01*
G01*
X105583000Y-140460000D01*
G75*
G02*
X105433000Y-140610000I-150000J0D01*
G01*
X105133000Y-140610000D01*
G75*
G02*
X104983000Y-140460000I0J150000D01*
G01*
X104983000Y-138810000D01*
G75*
G02*
X105133000Y-138660000I150000J0D01*
G01*
G37*
G36*
G01*
X105133000Y-133710000D02*
X105433000Y-133710000D01*
G75*
G02*
X105583000Y-133860000I0J-150000D01*
G01*
X105583000Y-135510000D01*
G75*
G02*
X105433000Y-135660000I-150000J0D01*
G01*
X105133000Y-135660000D01*
G75*
G02*
X104983000Y-135510000I0J150000D01*
G01*
X104983000Y-133860000D01*
G75*
G02*
X105133000Y-133710000I150000J0D01*
G01*
G37*
G36*
G01*
X106403000Y-133710000D02*
X106703000Y-133710000D01*
G75*
G02*
X106853000Y-133860000I0J-150000D01*
G01*
X106853000Y-135510000D01*
G75*
G02*
X106703000Y-135660000I-150000J0D01*
G01*
X106403000Y-135660000D01*
G75*
G02*
X106253000Y-135510000I0J150000D01*
G01*
X106253000Y-133860000D01*
G75*
G02*
X106403000Y-133710000I150000J0D01*
G01*
G37*
G36*
G01*
X107673000Y-133710000D02*
X107973000Y-133710000D01*
G75*
G02*
X108123000Y-133860000I0J-150000D01*
G01*
X108123000Y-135510000D01*
G75*
G02*
X107973000Y-135660000I-150000J0D01*
G01*
X107673000Y-135660000D01*
G75*
G02*
X107523000Y-135510000I0J150000D01*
G01*
X107523000Y-133860000D01*
G75*
G02*
X107673000Y-133710000I150000J0D01*
G01*
G37*
G36*
G01*
X108943000Y-133710000D02*
X109243000Y-133710000D01*
G75*
G02*
X109393000Y-133860000I0J-150000D01*
G01*
X109393000Y-135510000D01*
G75*
G02*
X109243000Y-135660000I-150000J0D01*
G01*
X108943000Y-135660000D01*
G75*
G02*
X108793000Y-135510000I0J150000D01*
G01*
X108793000Y-133860000D01*
G75*
G02*
X108943000Y-133710000I150000J0D01*
G01*
G37*
%TD*%
D17*
%TO.C,RV1*%
X95250000Y-141560000D03*
X95250000Y-132760000D03*
D18*
X88250000Y-139660000D03*
X88250000Y-137160000D03*
X88250000Y-134660000D03*
%TD*%
D19*
%TO.C,H1*%
X73000000Y-154000000D03*
%TD*%
%TO.C,H2*%
X73000000Y-124000000D03*
%TD*%
%TO.C,H3*%
X118000000Y-124000000D03*
%TD*%
%TO.C,H4*%
X118000000Y-154000000D03*
%TD*%
M02*
